<?xml version="1.0" encoding="utf-8"?>
<!-- Generator: Adobe Illustrator 21.1.0, SVG Export Plug-In . SVG Version: 6.00 Build 0)  -->
<svg version="1.1" id="Layer_1" xmlns="http://www.w3.org/2000/svg" xmlns:xlink="http://www.w3.org/1999/xlink" x="0px" y="0px"
	 viewBox="0 0 149 148" style="enable-background:new 0 0 149 148;" xml:space="preserve">
<style type="text/css">
	.st0{fill:#C23685;}
	.st1{fill:#F9FBF7;}
	.st2{fill:#D94297;}
	.st3{fill:#A3FF90;}
	.st4{fill:url(#SVGID_1_);}
	.st5{fill:#E6EDE6;}
	.st6{fill:#F9FAF9;}
	.st7{fill:url(#SVGID_2_);}
	.st8{fill:url(#SVGID_3_);}
	.st9{fill:url(#SVGID_4_);}
	.st10{fill:url(#SVGID_5_);}
	.st11{fill:url(#SVGID_6_);}
	.st12{fill:url(#SVGID_7_);}
	.st13{fill:url(#SVGID_8_);}
	.st14{fill:url(#SVGID_9_);}
	.st15{fill:url(#SVGID_10_);}
	.st16{fill:url(#SVGID_11_);}
	.st17{fill:url(#SVGID_12_);}
	.st18{fill:url(#SVGID_13_);}
	.st19{fill:url(#SVGID_14_);}
	.st20{fill:#FFFFFF;}
	.st21{font-family:'Charter-BoldItalic';}
	.st22{font-size:52.9755px;}
</style>
<g>
	<g>
		<g>
			<path class="st0" d="M124.2,65.3c-0.7-3.2-1.6-6.2-2.9-9.1c-1.2-2.8-2.6-5.4-4.3-7.9c-1.8-2.7-3.8-5.1-6.1-7.4
				c-2.4-2.4-5-4.5-7.8-6.3c-2.7-1.7-5.5-3.2-8.5-4.4c-2.7-1.1-5.6-2-8.6-2.6c-0.7-0.1-1.4-0.3-2.1-0.4c-0.2,0-0.4-0.1-0.6-0.1
				c-0.5-0.1-1-0.1-1.5-0.2c-0.2,0-0.5-0.1-0.7-0.1c-0.6-0.1-1.3-0.1-1.9-0.1l-0.2,0c-0.8,0-1.6-0.1-2.4-0.1c-0.8,0-1.7,0-2.5,0.1h0
				h0h0l-0.2,0c-0.7,0-1.4,0.1-2.1,0.2c-0.2,0-0.5,0.1-0.7,0.1c-0.5,0.1-1.1,0.1-1.6,0.2c-0.2,0-0.5,0.1-0.7,0.1
				c-0.7,0.1-1.5,0.3-2.2,0.4c-3.2,0.7-6.2,1.6-9.1,2.9c-2.8,1.2-5.4,2.6-7.9,4.3c-2.7,1.8-5.1,3.8-7.4,6.1c-2.4,2.4-4.5,5-6.3,7.8
				c-1.7,2.7-3.2,5.5-4.4,8.5c-1.1,2.7-2,5.6-2.6,8.6c-0.6,3.1-0.9,6.2-0.9,9.5c0,3.4,0.4,6.8,1,10c0.7,3.2,1.6,6.2,2.9,9.1
				c1.2,2.8,2.6,5.4,4.3,7.9c1.8,2.7,3.8,5.1,6.1,7.4c2.4,2.4,5,4.5,7.8,6.3c2.7,1.7,5.5,3.2,8.5,4.4c2.7,1.1,5.6,2,8.6,2.6
				c0.7,0.1,1.4,0.3,2.1,0.4c0.2,0,0.4,0.1,0.6,0.1c0.5,0.1,1,0.1,1.5,0.2c0.2,0,0.5,0.1,0.7,0.1c0.6,0.1,1.3,0.1,1.9,0.1
				c0.9,0,1.7,0.1,2.6,0.1c3.4,0,6.8-0.4,10-1c3.2-0.7,6.2-1.6,9.1-2.9c2.8-1.2,5.4-2.6,7.9-4.3c2.7-1.8,5.1-3.8,7.4-6.1
				c2.4-2.4,4.5-5,6.3-7.8c1.7-2.7,3.2-5.5,4.4-8.5c1.1-2.7,2-5.6,2.6-8.6c0.6-3.1,0.9-6.2,0.9-9.5
				C125.3,71.9,124.9,68.5,124.2,65.3z M84.7,27.4c-0.1,0-0.3-0.1-0.4-0.1C84.4,27.3,84.6,27.4,84.7,27.4z M83.2,27.2
				c-0.4,0-0.7-0.1-1.1-0.1C82.4,27.1,82.8,27.1,83.2,27.2z M81.2,26.9c-0.6-0.1-1.2-0.1-1.8-0.1C79.9,26.8,80.5,26.9,81.2,26.9z
				 M73.9,26.8c-0.7,0-1.3,0.1-2,0.2C72.6,26.9,73.3,26.8,73.9,26.8z M71,27.1c-0.4,0-0.8,0.1-1.2,0.2C70.2,27.2,70.6,27.1,71,27.1z
				 M68.7,27.4c-0.2,0-0.3,0.1-0.4,0.1C68.4,27.4,68.5,27.4,68.7,27.4z M68.6,123.2c0.1,0,0.3,0.1,0.4,0.1
				C68.9,123.3,68.8,123.2,68.6,123.2z M70.2,123.4c0.4,0,0.7,0.1,1.1,0.1C70.9,123.5,70.6,123.5,70.2,123.4z M72.2,123.7
				c0.6,0.1,1.2,0.1,1.8,0.1C73.4,123.8,72.8,123.7,72.2,123.7z"/>
			<path class="st1" d="M29.5,95.5c-1.3-3.1-2.3-6.3-3-9.6c-0.3-1.4-0.5-2.8-0.7-4.2l-12.1,1.5c0.2,1.8,0.5,3.5,0.9,5.2
				c0.9,4.1,2.1,8.1,3.8,11.9c0.3,0.7,0.6,1.4,0.9,2.1l11-5.2C30,96.6,29.7,96.1,29.5,95.5z"/>
			<path class="st1" d="M129.8,110.1l-10.2-6.7c-1.9,2.9-4.2,5.7-6.6,8.2c-1.3,1.3-2.8,2.6-4.2,3.8l7.6,9.5c1.8-1.5,3.6-3,5.2-4.7
				C124.7,117.2,127.4,113.8,129.8,110.1z"/>
			<path class="st1" d="M57.6,123c-2.3-0.9-4.6-2-6.8-3.3l-6.1,10.5c2.7,1.6,5.5,2.9,8.4,4.1c3.3,1.3,6.7,2.4,10.3,3.1l2.6-11.9
				C63,124.9,60.2,124,57.6,123z"/>
			<path class="st1" d="M123.9,55.1c1.3,3.1,2.3,6.3,3,9.6c0.3,1.4,0.5,2.8,0.7,4.2l12.1-1.5c-0.2-1.8-0.5-3.5-0.9-5.2
				c-0.9-4.1-2.1-8.1-3.8-11.9c-0.3-0.7-0.6-1.4-1-2.1l-11,5.2C123.4,54,123.6,54.5,123.9,55.1z"/>
			<path class="st1" d="M95.8,27.7c2.3,0.9,4.6,2,6.7,3.3l6.1-10.5c-2.7-1.6-5.5-2.9-8.4-4.1C97,15,93.6,13.9,90,13.2l-2.6,11.9
				C90.3,25.7,93.1,26.6,95.8,27.7z"/>
			<path class="st2" d="M139.7,67.4l-12.1,1.5v0c-0.2-1.4-0.4-2.8-0.7-4.2c-0.7-3.3-1.7-6.6-3-9.6c-0.2-0.6-0.5-1.1-0.8-1.7l0,0
				l11-5.2c-1.3-2.8-2.9-5.6-4.6-8.2c-2.3-3.5-5-6.7-7.9-9.6c-3.1-3.1-6.5-5.9-10.2-8.3c-0.9-0.6-1.8-1.1-2.7-1.7L102.5,31l0,0
				c-2.2-1.3-4.4-2.4-6.8-3.3c-2.7-1.1-5.4-1.9-8.3-2.5L90,13.2c-0.3-0.1-0.6-0.1-0.9-0.2c-4-0.8-8.2-1.2-12.4-1.2
				c-4.5,0-8.9,0.5-13.1,1.4c-4.1,0.9-8.1,2.1-11.9,3.8c-3.6,1.5-7,3.4-10.3,5.6c-1.5,1-3,2.1-4.4,3.2l7.6,9.5
				c-1.5,1.2-2.9,2.4-4.2,3.8c-2.5,2.5-4.8,5.3-6.7,8.3l0.1-0.1l-10.2-6.7l-0.1,0.1c-2.3,3.5-4.2,7.2-5.8,11.1
				c-1.4,3.6-2.6,7.3-3.3,11.2c-0.8,4-1.2,8.2-1.2,12.4c0,2.7,0.2,5.3,0.5,7.9l12.1-1.5l0,0c0.2,1.4,0.4,2.8,0.7,4.2
				c0.7,3.3,1.7,6.6,3,9.6c0.2,0.6,0.5,1.1,0.8,1.7l-11,5.2c1.3,2.8,2.9,5.6,4.6,8.2c2.3,3.5,5,6.7,7.9,9.6
				c3.1,3.1,6.5,5.9,10.2,8.3c0.9,0.6,1.8,1.1,2.7,1.7l6.1-10.5v0c2.2,1.3,4.4,2.4,6.8,3.3c2.9,1.2,5.9,2.1,9.1,2.7
				c-0.3-0.1-0.5-0.1-0.8-0.2l-2.6,11.9c0.3,0.1,0.6,0.1,0.9,0.2c4,0.8,8.2,1.2,12.4,1.2c4.5,0,8.9-0.5,13.1-1.4
				c4.1-0.9,8.1-2.1,11.9-3.8c3.6-1.5,7-3.4,10.3-5.6c1.5-1,3-2.1,4.4-3.2l-7.6-9.5c1.5-1.2,2.9-2.4,4.2-3.8
				c2.5-2.5,4.7-5.2,6.6-8.2l10.2,6.7l0.1-0.1c2.3-3.5,4.2-7.2,5.8-11.1c1.4-3.6,2.6-7.3,3.3-11.2c0.8-4,1.2-8.2,1.2-12.4
				C140.2,72.6,140,70,139.7,67.4z M122.4,52c-0.1-0.2-0.2-0.4-0.3-0.5C122.2,51.7,122.3,51.8,122.4,52z M120.5,48.6
				c-0.4-0.6-0.7-1.2-1.1-1.8C119.8,47.4,120.1,48,120.5,48.6z M121.5,50.3c-0.2-0.3-0.3-0.6-0.5-0.9
				C121.2,49.7,121.3,50,121.5,50.3z M48.2,32.6c-0.6,0.4-1.2,0.8-1.8,1.3C47,33.5,47.6,33,48.2,32.6z M25.6,80l0,0.2L25.6,80z
				 M25.4,76.8c0,0.1,0,0.2,0,0.4C25.4,77.1,25.4,76.9,25.4,76.8z M25.4,78.4c0,0.1,0,0.2,0,0.4C25.5,78.6,25.5,78.5,25.4,78.4z
				 M30.9,98.6c0.1,0.2,0.2,0.4,0.3,0.5C31.1,98.9,31,98.8,30.9,98.6z M32.9,102c0.4,0.6,0.7,1.2,1.1,1.8
				C33.6,103.2,33.2,102.6,32.9,102z M31.8,100.3c0.2,0.3,0.3,0.6,0.5,0.9C32.2,100.9,32,100.6,31.8,100.3z M105.2,118
				c0.6-0.4,1.2-0.8,1.8-1.3C106.4,117.1,105.8,117.6,105.2,118z M114,99.7c-1.7,2.6-3.6,5-5.8,7.2c-2.1,2.1-4.3,3.9-6.8,5.6
				c-2.3,1.5-4.7,2.8-7.2,3.9c-2.7,1.1-5.5,2-8.4,2.6c-3,0.6-6,1-9.2,1c-3,0-5.9-0.3-8.7-0.9c-2.7-0.5-5.3-1.3-7.9-2.3
				c-2.7-1.1-5.3-2.5-7.8-4.1c-2.6-1.7-5-3.6-7.2-5.8c-2.1-2.1-3.9-4.3-5.6-6.8c-1.5-2.3-2.8-4.7-3.9-7.2c-1.1-2.7-2-5.5-2.6-8.4
				c-0.6-3-1-6-1-9.2c0-3,0.3-5.9,0.9-8.7c0.5-2.7,1.3-5.3,2.3-7.9c1.1-2.7,2.5-5.3,4.1-7.8c1.7-2.6,3.6-5,5.8-7.2
				c2.1-2.1,4.3-3.9,6.8-5.6c2.3-1.5,4.7-2.8,7.2-3.9c2.7-1.1,5.5-2,8.4-2.6c3-0.6,6-1,9.2-1c3,0,5.9,0.3,8.7,0.9
				c2.7,0.5,5.3,1.3,7.9,2.3c2.7,1.1,5.3,2.5,7.8,4.1c2.6,1.7,5,3.6,7.2,5.8c2.1,2.1,3.9,4.3,5.6,6.8c1.5,2.3,2.8,4.7,3.9,7.2
				c1.1,2.7,2,5.5,2.6,8.4c0.6,3,1,6,1,9.2c0,3-0.3,5.9-0.9,8.7c-0.5,2.7-1.3,5.3-2.3,7.9C117,94.6,115.6,97.2,114,99.7z
				 M127.8,70.4l0,0.2L127.8,70.4z M127.9,71.9c0,0.1,0,0.2,0,0.3C127.9,72.1,127.9,72,127.9,71.9z M128,73.4c0,0.1,0,0.2,0,0.4
				C128,73.7,128,73.5,128,73.4z"/>
			<path class="st1" d="M40.4,39c1.3-1.3,2.8-2.6,4.2-3.8L37,25.7c-1.8,1.5-3.6,3-5.2,4.7c-3.1,3.1-5.8,6.5-8.2,10.1l10.2,6.7
				C35.7,44.2,37.9,41.5,40.4,39z"/>
			<path class="st3" d="M116.8,66.8c-0.6-2.7-1.4-5.2-2.4-7.7c-1-2.3-2.2-4.5-3.6-6.6c-1.5-2.2-3.2-4.3-5.1-6.2
				c-2-2-4.2-3.8-6.6-5.3c-2.2-1.5-4.6-2.7-7.1-3.7c-2.3-0.9-4.7-1.7-7.2-2.2c-2.6-0.5-5.3-0.8-8-0.8c-2.9,0-5.7,0.3-8.5,0.9
				c-2.7,0.6-5.2,1.4-7.7,2.4c-2.3,1-4.5,2.2-6.6,3.6c-2.2,1.5-4.3,3.2-6.2,5.1c-2,2-3.8,4.2-5.3,6.6c-1.5,2.2-2.7,4.6-3.7,7.1
				c-0.9,2.3-1.7,4.7-2.2,7.2c-0.5,2.6-0.8,5.3-0.8,8c0,2.9,0.3,5.7,0.9,8.5c0.6,2.7,1.4,5.2,2.4,7.7c1,2.3,2.2,4.5,3.6,6.6
				c1.5,2.2,3.2,4.3,5.1,6.2c2,2,4.2,3.8,6.6,5.3c2.2,1.5,4.6,2.7,7.1,3.7c2.3,0.9,4.7,1.7,7.2,2.2c2,0.4,4,0.6,6,0.7
				c-2-0.1-4-0.3-5.9-0.7c-2.5-0.5-4.9-1.2-7.1-2.1c-2.5-1-4.8-2.2-7.1-3.7c-2.4-1.5-4.5-3.3-6.5-5.3c-1.9-1.9-3.6-3.9-5.1-6.2
				c-1.4-2.1-2.6-4.2-3.6-6.5c-1-2.4-1.8-5-2.4-7.6c-0.6-2.7-0.9-5.5-0.9-8.4c0-2.7,0.3-5.4,0.8-7.9c0.5-2.5,1.2-4.9,2.1-7.1
				c1-2.5,2.2-4.8,3.7-7.1c1.5-2.4,3.3-4.5,5.3-6.5c1.9-1.9,3.9-3.6,6.2-5c2.1-1.4,4.2-2.6,6.5-3.6c2.4-1,5-1.8,7.6-2.4
				c2.7-0.6,5.5-0.9,8.4-0.9c2.7,0,5.4,0.3,7.9,0.8c2.5,0.5,4.9,1.2,7.1,2.1c2.5,1,4.8,2.2,7.1,3.7c2.4,1.5,4.5,3.3,6.5,5.3
				c1.9,1.9,3.6,3.9,5,6.2c1.4,2.1,2.6,4.2,3.6,6.5c1,2.4,1.8,5,2.4,7.6c0.6,2.7,0.9,5.5,0.9,8.4c0,2.7-0.3,5.4-0.8,7.9
				c-0.5,2.5-1.2,4.9-2.1,7.1c-1,2.5-2.2,4.8-3.7,7.1c-1.5,2.4-3.3,4.5-5.3,6.5c-1.9,1.9-3.9,3.6-6.2,5c-2.1,1.4-4.2,2.6-6.5,3.6
				c-2.4,1-5,1.8-7.6,2.4c-2.7,0.6-5.5,0.9-8.4,0.9c2.9,0,5.7-0.3,8.5-0.9c2.7-0.6,5.2-1.4,7.7-2.4c2.3-1,4.5-2.2,6.6-3.6
				c2.2-1.5,4.3-3.2,6.2-5.1c2-2,3.8-4.2,5.3-6.6c1.5-2.2,2.7-4.6,3.7-7.1c0.9-2.3,1.7-4.7,2.2-7.2c0.5-2.6,0.8-5.3,0.8-8
				C117.7,72.4,117.4,69.6,116.8,66.8z"/>
			
				<linearGradient id="SVGID_1_" gradientUnits="userSpaceOnUse" x1="663.2757" y1="797.2996" x2="664.2758" y2="797.2996" gradientTransform="matrix(-64.2086 -64.2086 -64.2086 64.2086 93890.375 -8497.9863)">
				<stop  offset="0" style="stop-color:#FC1DC8"/>
				<stop  offset="0.2713" style="stop-color:#F022BA"/>
				<stop  offset="0.7783" style="stop-color:#D12F97"/>
				<stop  offset="1" style="stop-color:#C23685"/>
			</linearGradient>
			<path class="st4" d="M38.6,50.5c-1.6,2.5-3,5.2-4.1,7.9c-1,2.6-1.8,5.3-2.4,8c-0.6,2.9-0.9,5.9-0.9,8.9c0,3.1,0.3,6.3,1,9.4
				c0.6,2.9,1.5,5.7,2.7,8.5c1.1,2.5,2.4,5,4,7.3c1.6,2.4,3.5,4.8,5.7,6.9c2.3,2.3,4.7,4.2,7.3,5.9c2.5,1.6,5.2,3,7.9,4.1
				c2.6,1,5.3,1.8,8,2.4c2.9,0.6,5.9,0.9,8.9,0.9c3.1,0,6.3-0.3,9.4-1c2.9-0.6,5.8-1.5,8.5-2.7c2.5-1.1,5-2.4,7.3-4
				c2.4-1.6,4.8-3.5,6.9-5.7c2.3-2.3,4.2-4.7,5.9-7.3c1.6-2.5,3-5.2,4.1-7.9c1-2.6,1.8-5.3,2.4-8c0.6-2.9,0.9-5.9,0.9-8.9
				c0-3.1-0.3-6.3-1-9.4c-0.6-2.9-1.5-5.7-2.7-8.5c-1.1-2.5-2.4-5-4-7.3c-1.6-2.4-3.5-4.7-5.7-6.9c-2.3-2.3-4.7-4.2-7.3-5.9
				c-2.5-1.6-5.2-3-7.9-4.1c-2.6-1-5.3-1.8-8-2.4c-2.9-0.6-5.9-0.9-8.9-0.9c-3.1,0-6.3,0.3-9.4,1c-2.9,0.6-5.7,1.5-8.5,2.7
				c-2.5,1.1-5,2.4-7.3,4c-2.4,1.6-4.7,3.5-6.9,5.7C42.3,45.5,40.3,47.9,38.6,50.5z M60.3,36.9c2.5-1.1,5.2-1.9,7.8-2.5
				c2.8-0.6,5.7-0.9,8.6-0.9c2.7,0,5.5,0.3,8.2,0.8c2.5,0.5,5,1.2,7.4,2.2c2.5,1,5,2.3,7.3,3.8c2.4,1.6,4.6,3.4,6.7,5.4
				c2,2,3.7,4.1,5.2,6.3c1.4,2.2,2.7,4.4,3.6,6.8c1.1,2.5,1.9,5.2,2.5,7.8c0.6,2.8,0.9,5.7,0.9,8.6c0,2.7-0.3,5.5-0.8,8.2
				c-0.5,2.5-1.2,5-2.2,7.4c-1,2.5-2.3,5-3.8,7.3c-1.5,2.4-3.4,4.6-5.4,6.7c-2,2-4.1,3.7-6.3,5.2c-2.2,1.4-4.4,2.7-6.8,3.6
				c-2.5,1.1-5.2,1.9-7.8,2.5c-2.8,0.6-5.7,0.9-8.6,0.9c-2.7,0-5.5-0.3-8.2-0.8c-2.5-0.5-5-1.2-7.4-2.2c-2.5-1-5-2.3-7.3-3.8
				c-2.4-1.6-4.6-3.4-6.7-5.4c-2-2-3.7-4.1-5.2-6.3c-1.4-2.2-2.7-4.4-3.6-6.8c-1.1-2.5-1.9-5.2-2.5-7.8c-0.6-2.8-0.9-5.7-0.9-8.6
				c0-2.7,0.3-5.5,0.8-8.2c0.5-2.5,1.2-5,2.2-7.4c1-2.5,2.3-5,3.8-7.3c1.6-2.4,3.4-4.6,5.4-6.7c2-2,4.1-3.7,6.3-5.2
				C55.7,39.2,57.9,37.9,60.3,36.9z"/>
			<path class="st0" d="M110.8,52.5l3-2c-1.6-2.4-3.5-4.7-5.6-6.8l-2.5,2.5C107.6,48.2,109.3,50.3,110.8,52.5z"/>
			<path class="st5" d="M114.4,59.2l3.3-1.4c-1.1-2.5-2.4-4.9-3.9-7.2l-3,2C112.2,54.6,113.4,56.8,114.4,59.2z"/>
			<path class="st0" d="M116.8,66.8l3.5-0.7c-0.6-2.9-1.5-5.7-2.6-8.4l-3.3,1.4C115.4,61.6,116.2,64.2,116.8,66.8z"/>
			<path class="st5" d="M105.7,104.3l2.5,2.5c2.2-2.2,4.1-4.6,5.8-7.2l-3-2C109.5,100.1,107.7,102.3,105.7,104.3z"/>
			<path class="st5" d="M38.6,60.1l-3.3-1.3c-1,2.5-1.8,5.1-2.3,7.9l3.5,0.7C37,64.8,37.7,62.4,38.6,60.1z"/>
			<path class="st0" d="M36.5,83.8L33,84.5c0.6,2.9,1.5,5.7,2.6,8.4l3.3-1.4C37.9,89,37.1,86.4,36.5,83.8z"/>
			<path class="st0" d="M36.5,67.3l-3.5-0.7c-0.6,2.8-0.9,5.7-0.9,8.7h3.6C35.7,72.6,35.9,69.9,36.5,67.3z"/>
			<path class="st5" d="M39,91.4l-3.3,1.4c1.1,2.5,2.4,4.9,3.9,7.2l3-2C41.2,96,40,93.8,39,91.4z"/>
			<path class="st5" d="M47.7,104.3l-2.5,2.5c2.2,2.2,4.6,4.1,7.2,5.8l2-3C51.9,108.1,49.7,106.3,47.7,104.3z"/>
			<path class="st0" d="M42.6,98.1l-3,2c1.6,2.4,3.5,4.7,5.6,6.8l2.5-2.5C45.8,102.4,44.1,100.3,42.6,98.1z"/>
			<path class="st0" d="M54.3,109.6l-2,3c2.4,1.6,5,3,7.8,4.1l1.3-3.3C58.9,112.3,56.5,111.1,54.3,109.6z"/>
			<path class="st0" d="M42.3,52.9l-3-2c-1.6,2.4-3,5-4.1,7.8l3.3,1.3C39.6,57.5,40.9,55.2,42.3,52.9z"/>
			<path class="st5" d="M76.7,34.3v-3.6c-3.2,0-6.2,0.3-9.2,1l0.7,3.5C71,34.6,73.8,34.3,76.7,34.3z"/>
			<path class="st5" d="M60.5,37.6l-1.4-3.3c-2.5,1.1-4.9,2.4-7.2,3.9l2,3C56,39.8,58.2,38.6,60.5,37.6z"/>
			<path class="st0" d="M68.2,35.2l-0.7-3.5c-2.9,0.6-5.7,1.5-8.4,2.6l1.4,3.3C63,36.6,65.6,35.7,68.2,35.2z"/>
			<path class="st5" d="M47.7,46.3l-2.5-2.5c-2.2,2.2-4.1,4.6-5.8,7.2l3,2C43.9,50.5,45.7,48.3,47.7,46.3z"/>
			<path class="st0" d="M53.9,41.2l-2-3c-2.4,1.6-4.7,3.5-6.8,5.6l2.5,2.5C49.6,44.4,51.7,42.7,53.9,41.2z"/>
			<path class="st5" d="M116.8,66.8c0.6,2.7,0.9,5.6,0.9,8.5h3.6c0-3.2-0.3-6.2-1-9.2L116.8,66.8z"/>
			<path class="st0" d="M116.9,83.3l3.5,0.7c0.6-2.8,0.9-5.7,0.9-8.7h-3.6C117.7,78,117.4,80.7,116.9,83.3z"/>
			<path class="st5" d="M105.7,46.3l2.5-2.5c-2.2-2.2-4.6-4.1-7.2-5.8l-2,3C101.4,42.5,103.7,44.3,105.7,46.3z"/>
			<path class="st5" d="M114.7,90.5l3.3,1.3c1-2.5,1.8-5.1,2.3-7.9l-3.5-0.7C116.4,85.8,115.7,88.2,114.7,90.5z"/>
			<path class="st5" d="M61.4,113.4l-1.3,3.3c2.5,1,5.1,1.8,7.9,2.3l0.7-3.5C66.2,115,63.7,114.3,61.4,113.4z"/>
			<path class="st0" d="M99.1,41l2-3c-2.4-1.6-5-3-7.8-4.1l-1.3,3.3C94.4,38.3,96.8,39.5,99.1,41z"/>
			<path class="st5" d="M91.9,37.2l1.3-3.3c-2.5-1-5.1-1.8-7.9-2.3l-0.7,3.5C87.2,35.6,89.6,36.3,91.9,37.2z"/>
			<path class="st0" d="M111,97.7l3,2c1.6-2.4,3-5,4.1-7.8l-3.3-1.3C113.7,93.1,112.5,95.5,111,97.7z"/>
			<path class="st5" d="M76.7,116.3v3.6c3.2,0,6.2-0.3,9.2-1l-0.7-3.5C82.4,116,79.6,116.3,76.7,116.3z"/>
			<path class="st0" d="M84.7,35.1l0.7-3.5c-2.8-0.6-5.7-0.9-8.7-0.9v3.6C79.4,34.3,82.1,34.6,84.7,35.1z"/>
			<path class="st0" d="M68.7,115.5l-0.7,3.5c2.8,0.6,5.7,0.9,8.7,0.9v-3.6C73.9,116.3,71.3,116,68.7,115.5z"/>
			<path class="st0" d="M85.1,115.4l0.7,3.5c2.9-0.6,5.7-1.5,8.4-2.6l-1.4-3.3C90.4,114.1,87.8,114.9,85.1,115.4z"/>
			<path class="st5" d="M92.8,113l1.4,3.3c2.5-1.1,4.9-2.4,7.2-3.9l-2-3C97.4,110.8,95.1,112,92.8,113z"/>
			<path class="st0" d="M99.4,109.4l2,3c2.4-1.6,4.7-3.5,6.8-5.6l-2.5-2.5C103.8,106.2,101.7,107.9,99.4,109.4z"/>
			<path class="st0" d="M26,83.4c0,0.1,0,0.3,0.1,0.4C26,83.7,26,83.5,26,83.4z"/>
			<path class="st0" d="M113,111.6c2.5-2.5,4.7-5.2,6.6-8.2C117.7,106.4,115.4,109.1,113,111.6z"/>
			<path class="st0" d="M61.7,124.4c1.4,0.4,2.8,0.8,4.2,1.1C64.5,125.2,63.1,124.8,61.7,124.4z"/>
			<path class="st0" d="M59.7,123.7c0.6,0.2,1.1,0.4,1.7,0.5C60.8,124.1,60.2,123.9,59.7,123.7z"/>
			<path class="st0" d="M127.3,66.8l0,0.2L127.3,66.8z"/>
			<path class="st6" d="M36.9,42.9c-1.1,1.4-2.1,2.8-3.1,4.2C34.7,45.7,35.8,44.3,36.9,42.9z"/>
			<path class="st6" d="M38.6,40.9c-0.5,0.6-1.1,1.2-1.6,1.8C37.5,42.1,38,41.5,38.6,40.9z"/>
			
				<linearGradient id="SVGID_2_" gradientUnits="userSpaceOnUse" x1="512.4795" y1="991.4675" x2="513.4786" y2="991.4675" gradientTransform="matrix(3.7452 -1.1097 -1.1097 -3.7452 -805.2686 4375.5044)">
				<stop  offset="0" style="stop-color:#B3B0B1"/>
				<stop  offset="0.197" style="stop-color:#C8C6C7"/>
				<stop  offset="0.5265" style="stop-color:#E6E5E5"/>
				<stop  offset="0.8059" style="stop-color:#F8F8F8"/>
				<stop  offset="1" style="stop-color:#FFFFFF"/>
			</linearGradient>
			<path class="st7" d="M20,102c-0.3-0.7-0.6-1.4-0.9-2.1c-1.6-3.7-2.8-7.7-3.7-11.7c-0.4-1.7-0.6-3.4-0.8-5.1l-0.9,0.1
				c0.2,1.8,0.5,3.5,0.9,5.2c0.9,4.1,2.1,8.1,3.8,11.9c0.3,0.7,0.6,1.4,0.9,2.1L20,102z"/>
			
				<linearGradient id="SVGID_3_" gradientUnits="userSpaceOnUse" x1="775.393" y1="811.4579" x2="776.3927" y2="811.4579" gradientTransform="matrix(-5.3902 -5.3902 -5.3902 5.3902 8679.9023 -73.5075)">
				<stop  offset="0" style="stop-color:#B3B0B1"/>
				<stop  offset="0.197" style="stop-color:#C8C6C7"/>
				<stop  offset="0.5265" style="stop-color:#E6E5E5"/>
				<stop  offset="0.8059" style="stop-color:#F8F8F8"/>
				<stop  offset="1" style="stop-color:#FFFFFF"/>
			</linearGradient>
			<path class="st8" d="M120.9,119.6c-1.6,1.6-3.4,3.2-5.2,4.6l0.6,0.7c1.8-1.5,3.6-3,5.2-4.7c3.1-3.1,5.8-6.5,8.2-10.1l-0.8-0.5
				C126.7,113.2,124,116.5,120.9,119.6z"/>
			
				<linearGradient id="SVGID_4_" gradientUnits="userSpaceOnUse" x1="721.0106" y1="1022.6713" x2="722.0101" y2="1022.6713" gradientTransform="matrix(1.4311 -3.7061 -3.7061 -1.4311 2811.4475 4271.6621)">
				<stop  offset="0" style="stop-color:#B3B0B1"/>
				<stop  offset="0.197" style="stop-color:#C8C6C7"/>
				<stop  offset="0.5265" style="stop-color:#E6E5E5"/>
				<stop  offset="0.8059" style="stop-color:#F8F8F8"/>
				<stop  offset="1" style="stop-color:#FFFFFF"/>
			</linearGradient>
			<path class="st9" d="M53.4,133.4c-2.9-1.1-5.6-2.5-8.2-4l-0.5,0.8c2.7,1.6,5.5,2.9,8.4,4.1c3.3,1.3,6.7,2.4,10.3,3.1l0.2-0.9
				C60,135.8,56.6,134.7,53.4,133.4z"/>
			
				<linearGradient id="SVGID_5_" gradientUnits="userSpaceOnUse" x1="738.7514" y1="690.8239" x2="739.7527" y2="690.8239" gradientTransform="matrix(-6.7547 1.559 1.559 6.7547 4053.9646 -5761.1333)">
				<stop  offset="0" style="stop-color:#B3B0B1"/>
				<stop  offset="0.197" style="stop-color:#C8C6C7"/>
				<stop  offset="0.5265" style="stop-color:#E6E5E5"/>
				<stop  offset="0.8059" style="stop-color:#F8F8F8"/>
				<stop  offset="1" style="stop-color:#FFFFFF"/>
			</linearGradient>
			<path class="st10" d="M134.2,50.7c1.6,3.7,2.8,7.7,3.7,11.7c0.4,1.7,0.6,3.4,0.8,5.1l0.9-0.1c-0.2-1.8-0.5-3.5-0.9-5.2
				c-0.9-4.1-2.1-8.1-3.8-11.9c-0.3-0.7-0.6-1.4-1-2.1l-0.8,0.4C133.6,49.3,133.9,50,134.2,50.7z"/>
			
				<linearGradient id="SVGID_6_" gradientUnits="userSpaceOnUse" x1="616.8712" y1="664.6583" x2="617.8696" y2="664.6583" gradientTransform="matrix(-2.6351 6.3796 6.3796 2.6351 -2513.3604 -5674.9443)">
				<stop  offset="0" style="stop-color:#B3B0B1"/>
				<stop  offset="0.197" style="stop-color:#C8C6C7"/>
				<stop  offset="0.5265" style="stop-color:#E6E5E5"/>
				<stop  offset="0.8059" style="stop-color:#F8F8F8"/>
				<stop  offset="1" style="stop-color:#FFFFFF"/>
			</linearGradient>
			<path class="st11" d="M100,17.2c2.9,1.1,5.6,2.5,8.2,4l0.5-0.8c-2.7-1.6-5.5-2.9-8.4-4.1C97,15,93.6,13.9,90,13.2l-0.2,0.9
				C93.3,14.8,96.7,15.9,100,17.2z"/>
			
				<linearGradient id="SVGID_7_" gradientUnits="userSpaceOnUse" x1="784.6701" y1="751.3958" x2="785.67" y2="751.3958" gradientTransform="matrix(-6.3948 -2.2152 -2.2152 6.3948 6695.812 -3006.7461)">
				<stop  offset="0" style="stop-color:#FC1DCF"/>
				<stop  offset="0.4761" style="stop-color:#FB1ECD"/>
				<stop  offset="0.6486" style="stop-color:#F520C6"/>
				<stop  offset="0.7718" style="stop-color:#EC24BA"/>
				<stop  offset="0.8713" style="stop-color:#DF2AAA"/>
				<stop  offset="0.9557" style="stop-color:#CE3194"/>
				<stop  offset="1" style="stop-color:#C23685"/>
			</linearGradient>
			<path class="st12" d="M14.6,83.1c-0.3-2.6-0.5-5.2-0.5-7.8c0-4.2,0.4-8.3,1.2-12.2c0.8-3.8,1.9-7.5,3.3-11
				c1.5-3.8,3.4-7.5,5.7-10.9l0.1-0.1l-0.8-0.5l-0.1,0.1c-2.3,3.5-4.2,7.2-5.8,11.1c-1.4,3.6-2.6,7.3-3.3,11.2
				c-0.8,4-1.2,8.2-1.2,12.4c0,2.7,0.2,5.3,0.5,7.9L14.6,83.1z"/>
			
				<linearGradient id="SVGID_8_" gradientUnits="userSpaceOnUse" x1="674.0172" y1="657.1543" x2="675.0176" y2="657.1543" gradientTransform="matrix(-4.8493 4.6142 4.6142 4.8493 268.5495 -6180.811)">
				<stop  offset="0" style="stop-color:#F220C0"/>
				<stop  offset="0.24" style="stop-color:#EC23B8"/>
				<stop  offset="0.6067" style="stop-color:#DA2BA3"/>
				<stop  offset="1" style="stop-color:#C23685"/>
			</linearGradient>
			<path class="st13" d="M45.2,129.4c-0.9-0.5-1.8-1.1-2.7-1.7c-3.6-2.4-7-5.1-10.1-8.2c-2.9-2.9-5.5-6.1-7.8-9.5
				c-1.7-2.6-3.2-5.3-4.6-8.1l-0.8,0.4c1.3,2.8,2.9,5.6,4.6,8.2c2.3,3.5,5,6.7,7.9,9.6c3.1,3.1,6.5,5.9,10.2,8.3
				c0.9,0.6,1.8,1.1,2.7,1.7L45.2,129.4z"/>
			
				<linearGradient id="SVGID_9_" gradientUnits="userSpaceOnUse" x1="594.9694" y1="750.7859" x2="595.969" y2="750.7859" gradientTransform="matrix(3.1438 12.3895 12.3895 -3.1438 -11083.2832 -4883.0229)">
				<stop  offset="0" style="stop-color:#C72C92"/>
				<stop  offset="0.2118" style="stop-color:#BC3188"/>
				<stop  offset="0.5479" style="stop-color:#B3367F"/>
				<stop  offset="1" style="stop-color:#B0387C"/>
			</linearGradient>
			<path class="st14" d="M115.8,124.2c-1.4,1.1-2.8,2.2-4.3,3.2c-3.2,2.1-6.6,4-10.1,5.5c-3.7,1.6-7.7,2.8-11.7,3.7
				c-4.2,0.9-8.5,1.3-12.9,1.3c-4.2,0-8.3-0.4-12.2-1.2c-0.3-0.1-0.6-0.1-0.9-0.2l-0.2,0.9c0.3,0.1,0.6,0.1,0.9,0.2
				c4,0.8,8.2,1.2,12.4,1.2c4.5,0,8.9-0.5,13.1-1.4c4.1-0.9,8.1-2.1,11.9-3.8c3.6-1.5,7-3.4,10.3-5.6c1.5-1,3-2.1,4.4-3.2
				L115.8,124.2z"/>
			
				<linearGradient id="SVGID_10_" gradientUnits="userSpaceOnUse" x1="605.1046" y1="779.5391" x2="606.1045" y2="779.5391" gradientTransform="matrix(10.1714 15.5348 15.5348 -10.1714 -18138.5098 -1395.0923)">
				<stop  offset="0" style="stop-color:#ED3BB5"/>
				<stop  offset="0.5212" style="stop-color:#EB3BB3"/>
				<stop  offset="0.7089" style="stop-color:#E53AAC"/>
				<stop  offset="0.8427" style="stop-color:#DB39A1"/>
				<stop  offset="0.9501" style="stop-color:#CC3790"/>
				<stop  offset="1" style="stop-color:#C23685"/>
			</linearGradient>
			<path class="st15" d="M139.7,67.4l-0.9,0.1l0,0c0.3,2.6,0.5,5.2,0.5,7.8c0,4.2-0.4,8.3-1.2,12.2c-0.8,3.8-1.9,7.5-3.3,11
				c-1.5,3.8-3.4,7.5-5.7,10.9l-0.1,0.1l0.8,0.5l0.1-0.1c2.3-3.5,4.2-7.2,5.8-11.1c1.4-3.6,2.6-7.3,3.3-11.2c0.8-4,1.2-8.2,1.2-12.4
				C140.2,72.6,140,70,139.7,67.4z"/>
			
				<linearGradient id="SVGID_11_" gradientUnits="userSpaceOnUse" x1="611.1103" y1="898.0176" x2="612.1102" y2="898.0176" gradientTransform="matrix(7.3982 -4.2536 -4.2536 -7.3982 -583.1901 9279.333)">
				<stop  offset="0" style="stop-color:#FC1DCF"/>
				<stop  offset="0.4761" style="stop-color:#FB1ECD"/>
				<stop  offset="0.6486" style="stop-color:#F520C6"/>
				<stop  offset="0.7718" style="stop-color:#EC24BA"/>
				<stop  offset="0.8713" style="stop-color:#DF2AAA"/>
				<stop  offset="0.9557" style="stop-color:#CE3194"/>
				<stop  offset="1" style="stop-color:#C23685"/>
			</linearGradient>
			<path class="st16" d="M108.2,21.2c0.9,0.5,1.8,1.1,2.7,1.7c3.6,2.4,7,5.1,10.1,8.2c2.9,2.9,5.5,6.1,7.8,9.5
				c1.7,2.6,3.2,5.3,4.6,8.1l0.8-0.4c-1.3-2.8-2.9-5.6-4.6-8.2c-2.3-3.5-5-6.7-7.9-9.6c-3.1-3.1-6.5-5.9-10.2-8.3
				c-0.9-0.6-1.8-1.1-2.7-1.7L108.2,21.2z"/>
			
				<linearGradient id="SVGID_12_" gradientUnits="userSpaceOnUse" x1="817.1484" y1="917.2437" x2="818.1483" y2="917.2437" gradientTransform="matrix(-1.2515 -4.4379 -4.4379 1.2515 5154.8018 2490.8088)">
				<stop  offset="0" style="stop-color:#FC1DCF"/>
				<stop  offset="0.4761" style="stop-color:#FB1ECD"/>
				<stop  offset="0.6486" style="stop-color:#F520C6"/>
				<stop  offset="0.7718" style="stop-color:#EC24BA"/>
				<stop  offset="0.8713" style="stop-color:#DF2AAA"/>
				<stop  offset="0.9557" style="stop-color:#CE3194"/>
				<stop  offset="1" style="stop-color:#C23685"/>
			</linearGradient>
			<path class="st17" d="M37.6,26.4c1.4-1.1,2.8-2.2,4.3-3.2c3.2-2.1,6.6-4,10.1-5.5c3.7-1.6,7.7-2.8,11.7-3.7
				c4.2-0.9,8.5-1.3,12.9-1.3c4.2,0,8.3,0.4,12.2,1.2c0.3,0.1,0.6,0.1,0.9,0.2l0.2-0.9c-0.3-0.1-0.6-0.1-0.9-0.2
				c-4-0.8-8.2-1.2-12.4-1.2c-4.5,0-8.9,0.5-13.1,1.4c-4.1,0.9-8.1,2.1-11.9,3.8c-3.6,1.5-7,3.4-10.3,5.6c-1.5,1-3,2.1-4.4,3.2
				L37.6,26.4z"/>
			
				<linearGradient id="SVGID_13_" gradientUnits="userSpaceOnUse" x1="542.3101" y1="786.2344" x2="543.3123" y2="786.2344" gradientTransform="matrix(6.2075 5.75 5.75 -6.2075 -7861.9292 1790.7621)">
				<stop  offset="0" style="stop-color:#B3B0B1"/>
				<stop  offset="0.197" style="stop-color:#C8C6C7"/>
				<stop  offset="0.5265" style="stop-color:#E6E5E5"/>
				<stop  offset="0.8059" style="stop-color:#F8F8F8"/>
				<stop  offset="1" style="stop-color:#FFFFFF"/>
			</linearGradient>
			<path class="st18" d="M32.4,31c1.6-1.6,3.4-3.2,5.2-4.6L37,25.7c-1.8,1.5-3.6,3-5.2,4.7c-3.1,3.1-5.8,6.5-8.2,10.1l0.8,0.5
				C26.7,37.4,29.4,34.1,32.4,31z"/>
			<circle class="st6" cx="90.2" cy="128.8" r="2.6"/>
			<circle class="st6" cx="63.9" cy="21.8" r="2.6"/>
			<circle class="st6" cx="22.5" cy="65.6" r="2.6"/>
			<circle class="st6" cx="36.9" cy="113.5" r="2.6"/>
			<circle class="st6" cx="130.1" cy="88" r="2.6"/>
			<circle class="st6" cx="117.4" cy="38.6" r="2.6"/>
			
				<linearGradient id="SVGID_14_" gradientUnits="userSpaceOnUse" x1="641.6219" y1="794.5628" x2="642.6219" y2="794.5628" gradientTransform="matrix(57.9976 57.9976 57.9976 -57.9976 -83247.7031 8916.3975)">
				<stop  offset="0" style="stop-color:#FC1DC8"/>
				<stop  offset="0.2713" style="stop-color:#F022BA"/>
				<stop  offset="0.7783" style="stop-color:#D12F97"/>
				<stop  offset="1" style="stop-color:#C23685"/>
			</linearGradient>
			<path class="st19" d="M111,97.7c1.5-2.3,2.7-4.7,3.7-7.2c0.9-2.4,1.7-4.8,2.1-7.2c0.5-2.6,0.8-5.3,0.8-8c0-2.8-0.3-5.7-0.9-8.4
				c-0.5-2.6-1.4-5.2-2.4-7.7c-1-2.3-2.2-4.5-3.6-6.6c-0.3-0.5-0.7-1-1-1.5c-0.1-0.1-0.2-0.3-0.3-0.4c-0.3-0.3-0.5-0.7-0.8-1
				c-0.1-0.2-0.2-0.3-0.4-0.5c-0.3-0.4-0.7-0.8-1.1-1.2l-0.1-0.1c-0.4-0.5-0.9-1-1.4-1.5c-0.5-0.5-1-1-1.5-1.5l0,0l0,0l0,0l-0.1-0.1
				c-0.4-0.4-0.9-0.8-1.3-1.1c-0.2-0.1-0.3-0.3-0.5-0.4c-0.4-0.3-0.7-0.6-1.1-0.8c-0.2-0.1-0.3-0.2-0.5-0.3c-0.5-0.4-1-0.7-1.5-1.1
				c-2.3-1.5-4.7-2.7-7.2-3.7c-2.4-0.9-4.8-1.7-7.2-2.1c-2.6-0.5-5.3-0.8-8-0.8c-2.8,0-5.7,0.3-8.4,0.9c-2.6,0.5-5.2,1.4-7.7,2.4
				c-2.3,1-4.5,2.2-6.6,3.6c-2.2,1.5-4.3,3.2-6.2,5.1c-2,2-3.8,4.3-5.4,6.6c-1.5,2.3-2.7,4.7-3.7,7.2c-0.9,2.4-1.7,4.8-2.1,7.2
				c-0.5,2.6-0.8,5.3-0.8,8c0,2.8,0.3,5.7,0.9,8.4c0.5,2.6,1.4,5.2,2.4,7.7c1,2.3,2.2,4.5,3.6,6.6c0.3,0.5,0.7,1,1,1.5
				c0.1,0.1,0.2,0.3,0.3,0.4c0.3,0.3,0.5,0.7,0.8,1c0.1,0.2,0.2,0.3,0.4,0.5c0.3,0.4,0.7,0.8,1.1,1.2c0.5,0.5,1,1.1,1.5,1.6
				c2,2,4.3,3.8,6.6,5.4c2.3,1.5,4.7,2.7,7.2,3.7c2.4,0.9,4.8,1.7,7.2,2.1c2.6,0.5,5.3,0.8,8,0.8c2.8,0,5.7-0.3,8.4-0.9
				c2.6-0.5,5.2-1.4,7.7-2.4c2.3-1,4.5-2.2,6.6-3.6c2.2-1.5,4.3-3.2,6.2-5.1C107.7,102.3,109.5,100,111,97.7z M110.1,51.5
				c-0.1-0.1-0.1-0.2-0.2-0.3C109.9,51.3,110,51.4,110.1,51.5z M109.3,50.4c-0.2-0.2-0.4-0.5-0.6-0.7
				C108.9,49.9,109.1,50.2,109.3,50.4z M108.2,49.1c-0.3-0.4-0.7-0.8-1-1.2C107.6,48.3,107.9,48.7,108.2,49.1z M104,44.7
				c-0.4-0.4-0.8-0.7-1.3-1.1C103.1,44,103.6,44.3,104,44.7z M102.1,43.1c-0.3-0.2-0.5-0.4-0.8-0.6
				C101.6,42.7,101.8,42.9,102.1,43.1z M100.5,41.9c-0.1-0.1-0.2-0.1-0.3-0.2C100.3,41.8,100.4,41.8,100.5,41.9z M43.3,99.1
				c0.1,0.1,0.1,0.2,0.2,0.3C43.4,99.3,43.4,99.2,43.3,99.1z M44.1,100.2c0.2,0.2,0.4,0.5,0.6,0.7C44.5,100.7,44.3,100.4,44.1,100.2
				z M45.1,101.5c0.3,0.4,0.7,0.8,1,1.2C45.8,102.3,45.5,101.9,45.1,101.5z"/>
			<path class="st2" d="M115.9,67c-0.5-2.6-1.4-5.1-2.4-7.5c-1-2.3-2.2-4.4-3.5-6.5c-1.5-2.2-3.1-4.2-5-6.1c-2-2-4.1-3.7-6.5-5.2
				c-2.2-1.4-4.5-2.7-7-3.6c-2.3-0.9-4.6-1.6-7.1-2.1c-0.6-0.1-1.1-0.2-1.7-0.3c-0.2,0-0.4-0.1-0.5-0.1c-0.4-0.1-0.8-0.1-1.3-0.2
				c-0.2,0-0.4,0-0.6-0.1c-0.5-0.1-1.1-0.1-1.6-0.1l-0.2,0c-0.7,0-1.3,0-2,0c-0.7,0-1.4,0-2.1,0.1h0h0h0l-0.2,0
				c-0.6,0-1.1,0.1-1.7,0.1c-0.2,0-0.4,0-0.6,0.1c-0.4,0.1-0.9,0.1-1.3,0.2c-0.2,0-0.4,0.1-0.6,0.1c-0.6,0.1-1.2,0.2-1.8,0.3
				c-2.6,0.5-5.1,1.3-7.5,2.4c-2.3,1-4.4,2.2-6.5,3.5c-2.2,1.5-4.2,3.1-6.1,5c-2,2-3.7,4.1-5.2,6.5c-1.4,2.2-2.7,4.5-3.6,7
				c-0.9,2.3-1.6,4.6-2.1,7.1c-0.5,2.5-0.8,5.2-0.8,7.8c0,2.8,0.3,5.6,0.9,8.3c0.5,2.6,1.3,5.1,2.4,7.5c1,2.3,2.2,4.4,3.5,6.5
				c1.5,2.2,3.1,4.2,5,6.1c2,2,4.1,3.7,6.5,5.2c2.2,1.4,4.5,2.7,7,3.6c2.3,0.9,4.6,1.6,7.1,2.1c0.6,0.1,1.1,0.2,1.7,0.3
				c0.2,0,0.4,0.1,0.5,0.1c0.4,0.1,0.8,0.1,1.3,0.2c0.2,0,0.4,0,0.6,0.1c0.5,0.1,1.1,0.1,1.6,0.1c0.7,0,1.4,0.1,2.2,0.1
				c2.8,0,5.6-0.3,8.3-0.9c2.6-0.5,5.1-1.3,7.5-2.4c2.3-1,4.4-2.2,6.5-3.5c2.2-1.5,4.2-3.1,6.1-5c2-2,3.7-4.1,5.2-6.5
				c1.4-2.2,2.7-4.5,3.6-7c0.9-2.3,1.6-4.6,2.1-7.1c0.5-2.5,0.8-5.2,0.8-7.8C116.8,72.5,116.5,69.7,115.9,67z M83.3,35.7
				c-0.1,0-0.2,0-0.4-0.1C83.1,35.7,83.2,35.7,83.3,35.7z M82,35.5c-0.3,0-0.6-0.1-0.9-0.1C81.4,35.5,81.7,35.5,82,35.5z M80.4,35.3
				c-0.5,0-1-0.1-1.5-0.1C79.4,35.3,79.9,35.3,80.4,35.3z M72,35.5c-0.3,0-0.6,0.1-1,0.1C71.4,35.5,71.7,35.5,72,35.5z M70.1,35.7
				c-0.1,0-0.2,0-0.4,0.1C69.8,35.8,69.9,35.7,70.1,35.7z M70,114.9c0.1,0,0.2,0,0.4,0.1C70.3,114.9,70.2,114.9,70,114.9z
				 M71.3,115.1c0.3,0,0.6,0.1,0.9,0.1C71.9,115.1,71.6,115.1,71.3,115.1z M73,115.3c0.5,0,1,0.1,1.5,0.1
				C74,115.3,73.5,115.3,73,115.3z"/>
		</g>
	</g>
</g>
<text transform="matrix(0.7472 0 0 1 41.543 92.7364)" class="st20 st21 st22">500</text>
</svg>
