<?xml version="1.0" encoding="utf-8"?>
<!-- Generator: Adobe Illustrator 21.1.0, SVG Export Plug-In . SVG Version: 6.00 Build 0)  -->
<svg version="1.1" id="Layer_1" xmlns="http://www.w3.org/2000/svg" xmlns:xlink="http://www.w3.org/1999/xlink" x="0px" y="0px"
	 viewBox="0 0 1920 1080" style="enable-background:new 0 0 1920 1080;" xml:space="preserve">
<style type="text/css">
	.st0{fill:#093679;}
	.st1{fill:#F8F5F6;}
	.st2{fill:#1E4E97;}
	.st3{fill:#EA7374;}
	.st4{fill:url(#SVGID_1_);}
	.st5{fill:#E3DEDD;}
	.st6{fill:#F8F7F7;}
	.st7{fill:url(#SVGID_2_);}
	.st8{fill:url(#SVGID_3_);}
	.st9{fill:url(#SVGID_4_);}
	.st10{fill:url(#SVGID_5_);}
	.st11{fill:url(#SVGID_6_);}
	.st12{fill:url(#SVGID_7_);}
	.st13{fill:url(#SVGID_8_);}
	.st14{fill:url(#SVGID_9_);}
	.st15{fill:url(#SVGID_10_);}
	.st16{fill:url(#SVGID_11_);}
	.st17{fill:url(#SVGID_12_);}
	.st18{fill:url(#SVGID_13_);}
	.st19{fill:url(#SVGID_14_);}
	.st20{fill:#FFFFFF;}
	.st21{font-family:'Charter-BoldItalic';}
	.st22{font-size:70.3807px;}
</style>
<path class="st0" d="M1008.1,530.6c-0.7-3.2-1.6-6.2-2.9-9.1c-1.2-2.8-2.6-5.4-4.3-7.9c-1.8-2.7-3.8-5.1-6.1-7.4
	c-2.4-2.4-5-4.5-7.8-6.3c-2.7-1.7-5.5-3.2-8.5-4.4c-2.7-1.1-5.6-2-8.6-2.6c-0.7-0.1-1.4-0.3-2.1-0.4c-0.2,0-0.4-0.1-0.7-0.1
	c-0.5-0.1-1-0.1-1.5-0.2c-0.2,0-0.5-0.1-0.7-0.1c-0.6-0.1-1.3-0.1-1.9-0.1l-0.2,0c-0.8,0-1.6-0.1-2.4-0.1c-0.8,0-1.7,0-2.5,0.1h0h0
	h0l-0.2,0c-0.7,0-1.4,0.1-2.1,0.2c-0.2,0-0.5,0.1-0.7,0.1c-0.5,0.1-1.1,0.1-1.6,0.2c-0.2,0-0.5,0.1-0.7,0.1
	c-0.7,0.1-1.5,0.2-2.2,0.4c-3.2,0.7-6.2,1.6-9.1,2.9c-2.8,1.2-5.4,2.6-7.9,4.3c-2.7,1.8-5.1,3.8-7.4,6.1c-2.4,2.4-4.5,5-6.3,7.8
	c-1.7,2.7-3.2,5.5-4.4,8.5c-1.1,2.7-2,5.6-2.6,8.6c-0.6,3.1-0.9,6.2-0.9,9.5c0,3.4,0.4,6.8,1,10c0.7,3.2,1.6,6.2,2.9,9.1
	c1.2,2.8,2.6,5.4,4.3,7.9c1.8,2.7,3.8,5.1,6.1,7.4c2.4,2.4,5,4.5,7.8,6.3c2.7,1.7,5.5,3.2,8.5,4.4c2.7,1.1,5.6,2,8.6,2.6
	c0.7,0.1,1.4,0.3,2.1,0.4c0.2,0,0.4,0.1,0.6,0.1c0.5,0.1,1,0.1,1.5,0.2c0.2,0,0.5,0.1,0.7,0.1c0.6,0.1,1.3,0.1,1.9,0.1
	c0.9,0,1.7,0.1,2.6,0.1c3.4,0,6.8-0.4,10-1c3.2-0.7,6.2-1.6,9.1-2.9c2.8-1.2,5.4-2.6,7.9-4.3c2.7-1.8,5.1-3.8,7.4-6.1
	c2.4-2.4,4.5-5,6.3-7.8c1.7-2.7,3.2-5.5,4.4-8.5c1.1-2.7,2-5.6,2.6-8.6c0.6-3.1,0.9-6.2,0.9-9.5
	C1009.1,537.2,1008.7,533.9,1008.1,530.6z M968.5,492.7c-0.1,0-0.3-0.1-0.4-0.1C968.3,492.7,968.4,492.7,968.5,492.7z M967,492.5
	c-0.4,0-0.7-0.1-1.1-0.1C966.3,492.4,966.6,492.4,967,492.5z M965,492.3c-0.6-0.1-1.2-0.1-1.8-0.1
	C963.8,492.2,964.4,492.2,965,492.3z M957.8,492.1c-0.7,0-1.3,0.1-2,0.2C956.4,492.2,957.1,492.2,957.8,492.1z M954.8,492.4
	c-0.4,0-0.8,0.1-1.2,0.2C954.1,492.5,954.4,492.4,954.8,492.4z M952.5,492.7c-0.1,0-0.3,0.1-0.4,0.1
	C952.2,492.8,952.3,492.7,952.5,492.7z M952.5,588.5c0.1,0,0.3,0.1,0.4,0.1C952.8,588.6,952.6,588.6,952.5,588.5z M954,588.8
	c0.4,0.1,0.7,0.1,1.1,0.1C954.8,588.9,954.4,588.8,954,588.8z M956,589c0.6,0.1,1.2,0.1,1.8,0.1C957.3,589.1,956.6,589.1,956,589z"
	/>
<path class="st1" d="M913.3,560.8c-1.3-3.1-2.3-6.3-3-9.6c-0.3-1.4-0.5-2.8-0.7-4.2l-12.1,1.5c0.2,1.8,0.5,3.5,0.9,5.2
	c0.9,4.1,2.1,8.1,3.8,11.9c0.3,0.7,0.6,1.4,1,2.1l11-5.2C913.8,562,913.6,561.4,913.3,560.8z"/>
<path class="st1" d="M1013.6,575.5l-10.2-6.7c-1.9,2.9-4.2,5.7-6.6,8.2c-1.3,1.3-2.8,2.6-4.2,3.8l7.6,9.5c1.8-1.5,3.6-3,5.2-4.7
	C1008.5,582.5,1011.2,579.1,1013.6,575.5z"/>
<path class="st1" d="M941.4,588.3c-2.3-0.9-4.6-2-6.7-3.3l-6.1,10.5c2.7,1.6,5.5,2.9,8.4,4.1c3.3,1.3,6.7,2.4,10.3,3.1l2.6-11.9
	C946.9,590.2,944.1,589.4,941.4,588.3z"/>
<path class="st1" d="M1007.7,520.4c1.3,3.1,2.3,6.3,3,9.6c0.3,1.4,0.5,2.8,0.7,4.2l12.1-1.5c-0.2-1.8-0.5-3.5-0.9-5.2
	c-0.9-4.1-2.1-8.1-3.8-11.9c-0.3-0.7-0.6-1.4-1-2.1l-11,5.2C1007.2,519.3,1007.5,519.9,1007.7,520.4z"/>
<path class="st1" d="M979.6,493c2.3,0.9,4.6,2,6.8,3.3l6.1-10.5c-2.7-1.6-5.5-2.9-8.4-4.1c-3.3-1.3-6.7-2.4-10.3-3.1l-2.6,11.9
	C974.2,491.1,976.9,491.9,979.6,493z"/>
<path class="st2" d="M960.5,477.1c-4.5,0-8.9,0.5-13.1,1.4c-4.1,0.9-8.1,2.1-11.9,3.8c-3.6,1.5-7,3.4-10.3,5.6c-1.5,1-3,2.1-4.4,3.2
	l7.6,9.5c-1.5,1.2-2.9,2.4-4.2,3.8c-2.5,2.5-4.8,5.3-6.7,8.3l0.1-0.1l-10.2-6.7l-0.1,0.1c-2.3,3.5-4.2,7.2-5.8,11.1
	c-1.4,3.6-2.6,7.3-3.3,11.2c-0.8,4-1.2,8.2-1.2,12.4c0,2.7,0.2,5.3,0.5,7.9l12.1-1.5l0,0c0.2,1.4,0.4,2.8,0.7,4.2
	c0.7,3.3,1.7,6.6,3,9.6c0.2,0.6,0.5,1.1,0.8,1.7l-11,5.2c1.3,2.9,2.9,5.6,4.6,8.2c2.3,3.5,5,6.7,7.9,9.6c3.1,3.1,6.5,5.9,10.2,8.3
	c0.9,0.6,1.8,1.1,2.7,1.7l6.1-10.5l0,0c2.2,1.3,4.4,2.4,6.8,3.3c2.9,1.2,5.9,2.1,9.1,2.7c-0.3-0.1-0.5-0.1-0.8-0.2l-2.6,11.9
	c0.3,0.1,0.6,0.1,0.9,0.2c4,0.8,8.2,1.2,12.4,1.2c4.5,0,8.9-0.5,13.1-1.4c4.1-0.9,8.1-2.1,11.9-3.8c3.6-1.5,7-3.4,10.3-5.6
	c1.5-1,3-2.1,4.4-3.2l-7.6-9.5c1.5-1.2,2.9-2.4,4.2-3.8c2.5-2.5,4.7-5.2,6.6-8.2l10.2,6.7l0.1-0.1c2.3-3.5,4.2-7.2,5.8-11.1
	c1.4-3.6,2.6-7.3,3.3-11.2c0.8-4,1.2-8.2,1.2-12.4c0-2.7-0.2-5.3-0.5-7.9l-12.1,1.5v0c-0.2-1.4-0.4-2.8-0.7-4.2
	c-0.7-3.3-1.7-6.6-3-9.6c-0.2-0.6-0.5-1.1-0.8-1.7l0,0l11-5.2c-1.3-2.8-2.9-5.6-4.6-8.2c-2.3-3.5-5-6.7-7.9-9.6
	c-3.1-3.1-6.5-5.9-10.2-8.3c-0.9-0.6-1.8-1.1-2.7-1.7l-6.1,10.5l0,0c-2.2-1.3-4.4-2.4-6.8-3.3c-2.7-1.1-5.4-1.9-8.3-2.5l2.6-11.9
	c-0.3-0.1-0.6-0.1-0.9-0.2C968.9,477.5,964.8,477.1,960.5,477.1"/>
<path class="st2" d="M1006.2,517.4c-0.1-0.2-0.2-0.4-0.3-0.5C1006.1,517,1006.2,517.2,1006.2,517.4z"/>
<path class="st2" d="M1004.3,513.9c-0.4-0.6-0.7-1.2-1.1-1.8C1003.6,512.7,1004,513.3,1004.3,513.9z"/>
<path class="st2" d="M1005.3,515.7c-0.2-0.3-0.3-0.6-0.5-0.9C1005,515.1,1005.2,515.4,1005.3,515.7z"/>
<path class="st2" d="M932,498c-0.6,0.4-1.2,0.8-1.8,1.3C930.8,498.8,931.4,498.4,932,498z"/>
<path class="st2" d="M909.4,545.3l0,0.2L909.4,545.3z"/>
<path class="st2" d="M909.2,542.2c0,0.1,0,0.3,0,0.4C909.2,542.4,909.2,542.3,909.2,542.2z"/>
<path class="st2" d="M909.3,543.7c0,0.1,0,0.2,0,0.4C909.3,543.9,909.3,543.8,909.3,543.7z"/>
<path class="st2" d="M914.8,563.9c0.1,0.2,0.2,0.4,0.3,0.5C915,564.3,914.9,564.1,914.8,563.9z"/>
<path class="st2" d="M916.7,567.4c0.4,0.6,0.7,1.2,1.1,1.8C917.4,568.6,917.1,568,916.7,567.4z"/>
<path class="st2" d="M915.7,565.6c0.2,0.3,0.3,0.6,0.5,0.9C916,566.2,915.8,565.9,915.7,565.6z"/>
<path class="st2" d="M989,583.3c0.6-0.4,1.2-0.8,1.8-1.3C990.2,582.5,989.6,582.9,989,583.3z"/>
<path class="st2" d="M997.9,565c-1.7,2.6-3.6,5-5.8,7.2c-2.1,2.1-4.3,3.9-6.8,5.6c-2.3,1.5-4.7,2.8-7.2,3.9c-2.7,1.1-5.5,2-8.4,2.6
	c-3,0.6-6,1-9.2,1c-3,0-5.9-0.3-8.7-0.9c-2.7-0.5-5.3-1.3-7.9-2.3c-2.7-1.1-5.3-2.5-7.8-4.1c-2.6-1.7-5-3.6-7.2-5.8
	c-2.1-2.1-3.9-4.3-5.6-6.8c-1.5-2.3-2.8-4.7-3.9-7.2c-1.1-2.7-2-5.5-2.6-8.4c-0.6-3-1-6-1-9.2c0-3,0.3-5.9,0.9-8.7
	c0.5-2.7,1.3-5.3,2.3-7.9c1.1-2.7,2.5-5.3,4.1-7.8c1.7-2.6,3.6-5,5.8-7.2c2.1-2.1,4.3-3.9,6.8-5.6c2.3-1.5,4.7-2.8,7.2-3.9
	c2.7-1.1,5.5-2,8.4-2.6c3-0.6,6-1,9.2-1c3,0,5.9,0.3,8.7,0.9c2.7,0.5,5.3,1.3,7.9,2.3c2.7,1.1,5.3,2.5,7.8,4.1
	c2.6,1.7,5,3.6,7.2,5.8c2.1,2.1,3.9,4.3,5.6,6.8c1.5,2.3,2.8,4.7,3.9,7.2c1.1,2.7,2,5.5,2.6,8.4c0.6,3,1,6,1,9.2
	c0,3-0.3,5.9-0.9,8.7c-0.5,2.7-1.3,5.3-2.3,7.9C1000.8,560,999.5,562.6,997.9,565z"/>
<path class="st2" d="M1011.6,535.7l0,0.2L1011.6,535.7z"/>
<path class="st2" d="M1011.7,537.2c0,0.1,0,0.2,0,0.3C1011.7,537.5,1011.7,537.3,1011.7,537.2z"/>
<path class="st2" d="M1011.8,538.8c0,0.1,0,0.2,0,0.4C1011.8,539,1011.8,538.9,1011.8,538.8z"/>
<path class="st1" d="M924.2,504.4c1.3-1.3,2.8-2.6,4.2-3.8l-7.6-9.5c-1.8,1.5-3.6,3-5.2,4.7c-3.1,3.1-5.8,6.4-8.2,10.1l10.2,6.7
	C919.5,509.6,921.7,506.8,924.2,504.4z"/>
<path class="st3" d="M1000.6,532.2c-0.6-2.7-1.4-5.2-2.4-7.7c-1-2.3-2.2-4.5-3.6-6.6c-1.5-2.2-3.2-4.3-5.1-6.2c-2-2-4.2-3.8-6.6-5.3
	c-2.2-1.5-4.6-2.7-7.1-3.7c-2.3-0.9-4.7-1.7-7.2-2.2c-2.6-0.5-5.3-0.8-8-0.8c-2.9,0-5.7,0.3-8.5,0.9c-2.7,0.6-5.2,1.4-7.7,2.4
	c-2.3,1-4.5,2.2-6.6,3.6c-2.2,1.5-4.3,3.2-6.2,5.1c-2,2-3.8,4.2-5.3,6.6c-1.5,2.2-2.7,4.6-3.7,7.1c-0.9,2.3-1.7,4.7-2.2,7.2
	c-0.5,2.6-0.8,5.3-0.8,8c0,2.9,0.3,5.7,0.9,8.5c0.6,2.7,1.4,5.2,2.4,7.7c1,2.3,2.2,4.5,3.6,6.6c1.5,2.2,3.2,4.3,5.1,6.2
	c2,2,4.2,3.8,6.6,5.3c2.2,1.5,4.6,2.7,7.1,3.7c2.3,0.9,4.7,1.7,7.2,2.2c2,0.4,4,0.6,6,0.7c-2-0.1-4-0.3-5.9-0.7
	c-2.5-0.5-4.9-1.2-7.1-2.1c-2.5-1-4.8-2.2-7.1-3.7c-2.4-1.5-4.5-3.3-6.5-5.3c-1.9-1.9-3.6-3.9-5-6.2c-1.4-2.1-2.6-4.2-3.6-6.5
	c-1-2.4-1.8-5-2.4-7.6c-0.6-2.7-0.9-5.5-0.9-8.4c0-2.7,0.3-5.4,0.8-7.9c0.5-2.5,1.2-4.9,2.1-7.1c1-2.5,2.2-4.8,3.7-7.1
	c1.5-2.4,3.3-4.5,5.3-6.5c1.9-1.9,3.9-3.6,6.2-5.1c2.1-1.4,4.2-2.6,6.5-3.6c2.4-1,5-1.8,7.6-2.4c2.7-0.6,5.5-0.9,8.4-0.9
	c2.7,0,5.4,0.3,7.9,0.8c2.5,0.5,4.9,1.2,7.1,2.1c2.5,1,4.8,2.2,7.1,3.7c2.4,1.5,4.5,3.3,6.5,5.3c1.9,1.9,3.6,3.9,5,6.2
	c1.4,2.1,2.6,4.2,3.6,6.5c1,2.4,1.8,5,2.4,7.6c0.6,2.7,0.9,5.5,0.9,8.4c0,2.7-0.3,5.4-0.8,7.9c-0.5,2.5-1.2,4.9-2.1,7.1
	c-1,2.5-2.2,4.8-3.7,7.1c-1.5,2.4-3.3,4.5-5.3,6.5c-1.9,1.9-3.9,3.6-6.2,5c-2.1,1.4-4.2,2.6-6.5,3.6c-2.4,1-5,1.8-7.6,2.4
	c-2.7,0.6-5.5,0.9-8.4,0.9c2.9,0,5.7-0.3,8.5-0.9c2.7-0.6,5.2-1.4,7.7-2.4c2.3-1,4.5-2.2,6.6-3.6c2.2-1.5,4.3-3.2,6.2-5.1
	c2-2,3.8-4.2,5.3-6.6c1.5-2.2,2.7-4.6,3.7-7.1c0.9-2.3,1.7-4.7,2.2-7.2c0.5-2.6,0.8-5.3,0.8-8
	C1001.5,537.7,1001.2,534.9,1000.6,532.2z"/>
<linearGradient id="SVGID_1_" gradientUnits="userSpaceOnUse" x1="589.0376" y1="762.7916" x2="590.0376" y2="762.7916" gradientTransform="matrix(-64.2086 -64.2086 -64.2086 64.2086 87791.7656 -10583.6611)">
	<stop  offset="0" style="stop-color:#006BB3"/>
	<stop  offset="0.3053" style="stop-color:#025FA5"/>
	<stop  offset="0.8759" style="stop-color:#083E82"/>
	<stop  offset="1" style="stop-color:#093679"/>
</linearGradient>
<path class="st4" d="M922.5,515.8c-1.6,2.5-3,5.2-4.1,7.9c-1,2.6-1.8,5.3-2.4,8c-0.6,2.9-0.9,5.9-0.9,8.9c0,3.1,0.3,6.3,1,9.4
	c0.6,2.9,1.5,5.7,2.7,8.5c1.1,2.5,2.4,5,4,7.3c1.6,2.4,3.5,4.7,5.7,6.9c2.3,2.3,4.7,4.2,7.3,5.9c2.5,1.6,5.2,3,7.9,4.1
	c2.6,1,5.3,1.8,8,2.4c2.9,0.6,5.9,0.9,8.9,0.9c3.1,0,6.3-0.3,9.4-1c2.9-0.6,5.7-1.5,8.5-2.7c2.5-1.1,5-2.4,7.3-4
	c2.4-1.6,4.7-3.5,6.9-5.7c2.3-2.3,4.2-4.7,5.9-7.3c1.6-2.5,3-5.2,4.1-7.9c1-2.6,1.8-5.3,2.4-8c0.6-2.9,0.9-5.9,0.9-8.9
	c0-3.1-0.3-6.3-1-9.4c-0.6-2.9-1.5-5.7-2.7-8.5c-1.1-2.5-2.4-5-4-7.3c-1.6-2.4-3.5-4.7-5.7-6.9c-2.3-2.3-4.7-4.2-7.3-5.9
	c-2.5-1.6-5.2-3-7.9-4.1c-2.6-1-5.3-1.8-8-2.4c-2.9-0.6-5.9-0.9-8.9-0.9c-3.1,0-6.3,0.3-9.4,1c-2.9,0.6-5.7,1.5-8.5,2.7
	c-2.5,1.1-5,2.4-7.3,4c-2.4,1.6-4.8,3.5-6.9,5.7C926.1,510.8,924.2,513.3,922.5,515.8z M944.1,502.3c2.5-1.1,5.2-1.9,7.8-2.5
	c2.8-0.6,5.7-0.9,8.6-0.9c2.7,0,5.5,0.3,8.2,0.8c2.5,0.5,5,1.2,7.4,2.2c2.5,1,5,2.3,7.3,3.8c2.4,1.6,4.6,3.4,6.7,5.4
	c2,2,3.7,4.1,5.2,6.3c1.4,2.2,2.7,4.4,3.6,6.8c1.1,2.5,1.9,5.2,2.5,7.8c0.6,2.8,0.9,5.7,0.9,8.6c0,2.7-0.3,5.5-0.8,8.2
	c-0.5,2.5-1.2,5-2.2,7.4c-1,2.5-2.3,5-3.8,7.3c-1.6,2.4-3.4,4.6-5.4,6.7c-2,2-4.1,3.7-6.3,5.2c-2.2,1.4-4.4,2.7-6.8,3.6
	c-2.5,1.1-5.2,1.9-7.8,2.5c-2.8,0.6-5.7,0.9-8.6,0.9c-2.7,0-5.5-0.3-8.2-0.8c-2.5-0.5-5-1.2-7.4-2.2c-2.5-1-5-2.3-7.3-3.8
	c-2.4-1.6-4.6-3.4-6.7-5.4c-2-2-3.7-4.1-5.2-6.3c-1.4-2.2-2.7-4.4-3.6-6.8c-1.1-2.5-1.9-5.2-2.5-7.8c-0.6-2.8-0.9-5.7-0.9-8.6
	c0-2.7,0.3-5.5,0.8-8.2c0.5-2.5,1.2-5,2.2-7.4c1-2.5,2.3-5,3.8-7.3c1.5-2.4,3.4-4.6,5.4-6.7c2-2,4.1-3.7,6.3-5.2
	C939.5,504.5,941.8,503.3,944.1,502.3z"/>
<path class="st0" d="M994.6,517.9l3-2c-1.6-2.4-3.5-4.7-5.6-6.8l-2.5,2.5C991.4,513.6,993.1,515.6,994.6,517.9z"/>
<path class="st5" d="M998.2,524.5l3.3-1.4c-1.1-2.5-2.4-4.9-3.9-7.2l-3,2C996,520,997.2,522.2,998.2,524.5z"/>
<path class="st0" d="M1000.6,532.2l3.5-0.7c-0.6-2.9-1.5-5.7-2.6-8.4l-3.3,1.4C999.3,527,1000.1,529.5,1000.6,532.2z"/>
<path class="st5" d="M989.5,569.6l2.5,2.5c2.2-2.2,4.1-4.6,5.8-7.2l-3-2C993.3,565.4,991.5,567.6,989.5,569.6z"/>
<path class="st5" d="M922.5,525.4l-3.3-1.3c-1,2.5-1.8,5.1-2.3,7.9l3.5,0.7C920.8,530.1,921.5,527.7,922.5,525.4z"/>
<path class="st0" d="M920.4,549.1l-3.5,0.7c0.6,2.9,1.5,5.7,2.6,8.4l3.3-1.4C921.8,554.3,920.9,551.8,920.4,549.1z"/>
<path class="st0" d="M920.3,532.6l-3.5-0.7c-0.6,2.8-0.9,5.7-0.9,8.7h3.6C919.5,537.9,919.8,535.2,920.3,532.6z"/>
<path class="st5" d="M919.5,540.6h-3.6c0,3.2,0.3,6.2,1,9.2l3.5-0.7C919.8,546.4,919.5,543.5,919.5,540.6z"/>
<path class="st5" d="M922.8,556.8l-3.3,1.4c1.1,2.5,2.4,4.9,3.9,7.2l3-2C925,561.3,923.8,559.1,922.8,556.8z"/>
<path class="st5" d="M931.5,569.6l-2.5,2.5c2.2,2.2,4.6,4.1,7.2,5.8l2-3C935.7,573.4,933.5,571.6,931.5,569.6z"/>
<path class="st0" d="M926.4,563.4l-3,2c1.6,2.4,3.5,4.7,5.6,6.8l2.5-2.5C929.6,567.7,927.9,565.6,926.4,563.4z"/>
<path class="st0" d="M938.1,575l-2,3c2.4,1.6,5,3,7.8,4.1l1.3-3.3C942.8,577.7,940.4,576.4,938.1,575z"/>
<path class="st0" d="M926.2,518.3l-3-2c-1.6,2.4-3,5-4.1,7.8l3.3,1.3C923.5,522.9,924.7,520.5,926.2,518.3z"/>
<path class="st5" d="M960.5,499.6V496c-3.2,0-6.2,0.3-9.2,1l0.7,3.5C954.8,499.9,957.6,499.6,960.5,499.6z"/>
<path class="st5" d="M944.4,502.9l-1.4-3.3c-2.5,1.1-4.9,2.4-7.2,3.9l2,3C939.8,505.2,942.1,503.9,944.4,502.9z"/>
<path class="st0" d="M952.1,500.5l-0.7-3.5c-2.9,0.6-5.7,1.5-8.4,2.6l1.4,3.3C946.8,501.9,949.4,501.1,952.1,500.5z"/>
<path class="st5" d="M931.5,511.7l-2.5-2.5c-2.2,2.2-4.1,4.6-5.8,7.2l3,2C927.7,515.9,929.5,513.7,931.5,511.7z"/>
<path class="st0" d="M937.8,506.5l-2-3c-2.4,1.6-4.7,3.5-6.8,5.6l2.5,2.5C933.4,509.8,935.5,508,937.8,506.5z"/>
<path class="st5" d="M1000.6,532.2c0.6,2.7,0.9,5.6,0.9,8.5h3.6c0-3.2-0.3-6.2-1-9.2L1000.6,532.2z"/>
<path class="st0" d="M1000.7,548.7l3.5,0.7c0.6-2.8,0.9-5.7,0.9-8.7h-3.6C1001.5,543.4,1001.2,546.1,1000.7,548.7z"/>
<path class="st5" d="M989.5,511.7l2.5-2.5c-2.2-2.2-4.6-4.1-7.2-5.8l-2,3C985.3,507.9,987.5,509.7,989.5,511.7z"/>
<path class="st5" d="M998.6,555.9l3.3,1.3c1-2.5,1.8-5.1,2.3-7.9l-3.5-0.7C1000.2,551.2,999.5,553.6,998.6,555.9z"/>
<path class="st5" d="M945.3,578.7l-1.3,3.3c2.5,1,5.1,1.8,7.9,2.3l0.7-3.5C950,580.4,947.6,579.6,945.3,578.7z"/>
<path class="st0" d="M982.9,506.3l2-3c-2.4-1.6-5-3-7.8-4.1l-1.3,3.3C978.3,503.6,980.7,504.8,982.9,506.3z"/>
<path class="st5" d="M975.8,502.6l1.3-3.3c-2.5-1-5.1-1.8-7.9-2.3l-0.7,3.5C971,500.9,973.4,501.7,975.8,502.6z"/>
<path class="st0" d="M994.8,563l3,2c1.6-2.4,3-5,4.1-7.8l-3.3-1.3C997.6,558.4,996.3,560.8,994.8,563z"/>
<path class="st5" d="M960.5,581.7v3.6c3.2,0,6.2-0.3,9.2-1l-0.7-3.5C966.2,581.3,963.4,581.7,960.5,581.7z"/>
<path class="st0" d="M968.5,500.4l0.7-3.5c-2.8-0.6-5.7-0.9-8.7-0.9v3.6C963.3,499.6,965.9,499.9,968.5,500.4z"/>
<path class="st0" d="M952.5,580.9l-0.7,3.5c2.8,0.6,5.7,0.9,8.7,0.9v-3.6C957.8,581.7,955.1,581.4,952.5,580.9z"/>
<path class="st0" d="M969,580.8l0.7,3.5c2.9-0.6,5.7-1.5,8.4-2.6l-1.4-3.3C974.2,579.4,971.6,580.2,969,580.8z"/>
<path class="st5" d="M976.6,578.3l1.4,3.3c2.5-1.1,4.9-2.4,7.2-3.9l-2-3C981.2,576.1,979,577.3,976.6,578.3z"/>
<path class="st0" d="M983.3,574.7l2,3c2.4-1.6,4.7-3.5,6.8-5.6l-2.5-2.5C987.6,571.5,985.5,573.2,983.3,574.7z"/>
<path class="st0" d="M909.8,548.7c0,0.1,0,0.3,0.1,0.4C909.9,549,909.9,548.9,909.8,548.7z"/>
<path class="st0" d="M996.8,576.9c2.5-2.5,4.7-5.2,6.6-8.2C1001.5,571.7,999.3,574.5,996.8,576.9z"/>
<path class="st0" d="M945.5,589.7c1.4,0.4,2.8,0.8,4.2,1.1C948.3,590.5,946.9,590.1,945.5,589.7z"/>
<path class="st0" d="M943.5,589.1c0.6,0.2,1.1,0.4,1.7,0.5C944.6,589.4,944,589.3,943.5,589.1z"/>
<path class="st0" d="M1011.1,532.1l0,0.2L1011.1,532.1z"/>
<path class="st6" d="M920.7,508.3c-1.1,1.4-2.1,2.8-3.1,4.2C918.6,511,919.6,509.6,920.7,508.3z"/>
<path class="st6" d="M922.4,506.3c-0.5,0.6-1.1,1.2-1.6,1.8C921.3,507.5,921.9,506.9,922.4,506.3z"/>
<linearGradient id="SVGID_2_" gradientUnits="userSpaceOnUse" x1="645.7899" y1="769.7741" x2="646.7892" y2="769.7741" gradientTransform="matrix(3.7452 -1.1097 -1.1097 -3.7452 -666.7217 4158.4917)">
	<stop  offset="0" style="stop-color:#8D8E90"/>
	<stop  offset="8.237898e-02" style="stop-color:#9B9C9D"/>
	<stop  offset="0.3703" style="stop-color:#C6C6C7"/>
	<stop  offset="0.6293" style="stop-color:#E5E5E6"/>
	<stop  offset="0.8481" style="stop-color:#F8F8F8"/>
	<stop  offset="1" style="stop-color:#FFFFFF"/>
</linearGradient>
<path class="st7" d="M903.9,567.3c-0.3-0.7-0.6-1.4-0.9-2.1c-1.6-3.7-2.8-7.7-3.7-11.7c-0.4-1.7-0.6-3.4-0.8-5.1l-0.9,0.1
	c0.2,1.8,0.5,3.5,0.9,5.2c0.9,4.1,2.1,8.1,3.8,11.9c0.3,0.7,0.6,1.4,1,2.1L903.9,567.3z"/>
<linearGradient id="SVGID_3_" gradientUnits="userSpaceOnUse" x1="578.5229" y1="738.6695" x2="579.5224" y2="738.6695" gradientTransform="matrix(-5.3902 -5.3902 -5.3902 5.3902 8110.2231 -276.9939)">
	<stop  offset="0" style="stop-color:#8D8E90"/>
	<stop  offset="8.237898e-02" style="stop-color:#9B9C9D"/>
	<stop  offset="0.3703" style="stop-color:#C6C6C7"/>
	<stop  offset="0.6293" style="stop-color:#E5E5E6"/>
	<stop  offset="0.8481" style="stop-color:#F8F8F8"/>
	<stop  offset="1" style="stop-color:#FFFFFF"/>
</linearGradient>
<path class="st8" d="M1004.8,584.9c-1.6,1.6-3.4,3.2-5.2,4.6l0.6,0.7c1.8-1.5,3.6-3,5.2-4.7c3.1-3.1,5.8-6.5,8.2-10.1l-0.8-0.5
	C1010.5,578.5,1007.8,581.9,1004.8,584.9z"/>
<linearGradient id="SVGID_4_" gradientUnits="userSpaceOnUse" x1="627.3156" y1="724.3382" x2="628.3151" y2="724.3382" gradientTransform="matrix(1.4311 -3.7061 -3.7061 -1.4311 2723.7178 3962.8137)">
	<stop  offset="0" style="stop-color:#8D8E90"/>
	<stop  offset="8.237898e-02" style="stop-color:#9B9C9D"/>
	<stop  offset="0.3703" style="stop-color:#C6C6C7"/>
	<stop  offset="0.6293" style="stop-color:#E5E5E6"/>
	<stop  offset="0.8481" style="stop-color:#F8F8F8"/>
	<stop  offset="1" style="stop-color:#FFFFFF"/>
</linearGradient>
<path class="st9" d="M937.2,598.8c-2.9-1.1-5.6-2.5-8.2-4l-0.5,0.8c2.7,1.6,5.5,2.9,8.4,4.1c3.3,1.3,6.7,2.4,10.3,3.1l0.2-0.9
	C943.9,601.1,940.5,600.1,937.2,598.8z"/>
<linearGradient id="SVGID_5_" gradientUnits="userSpaceOnUse" x1="558.7688" y1="760.3045" x2="559.7692" y2="760.3045" gradientTransform="matrix(-6.7547 1.559 1.559 6.7547 3613.7476 -5484.5205)">
	<stop  offset="0" style="stop-color:#8D8E90"/>
	<stop  offset="8.237898e-02" style="stop-color:#9B9C9D"/>
	<stop  offset="0.3703" style="stop-color:#C6C6C7"/>
	<stop  offset="0.6293" style="stop-color:#E5E5E6"/>
	<stop  offset="0.8481" style="stop-color:#F8F8F8"/>
	<stop  offset="1" style="stop-color:#FFFFFF"/>
</linearGradient>
<path class="st10" d="M1018.1,516c1.6,3.7,2.8,7.7,3.7,11.7c0.4,1.7,0.6,3.4,0.8,5.1l0.9-0.1c-0.2-1.8-0.5-3.5-0.9-5.2
	c-0.9-4.1-2.1-8.1-3.8-11.9c-0.3-0.7-0.6-1.4-1-2.1l-0.8,0.4C1017.5,514.6,1017.8,515.3,1018.1,516z"/>
<linearGradient id="SVGID_6_" gradientUnits="userSpaceOnUse" x1="567.9644" y1="787.8955" x2="568.9627" y2="787.8955" gradientTransform="matrix(-2.6351 6.3796 6.3796 2.6351 -2544.604 -5222.3413)">
	<stop  offset="0" style="stop-color:#8D8E90"/>
	<stop  offset="8.237898e-02" style="stop-color:#9B9C9D"/>
	<stop  offset="0.3703" style="stop-color:#C6C6C7"/>
	<stop  offset="0.6293" style="stop-color:#E5E5E6"/>
	<stop  offset="0.8481" style="stop-color:#F8F8F8"/>
	<stop  offset="1" style="stop-color:#FFFFFF"/>
</linearGradient>
<path class="st11" d="M983.8,482.5c2.9,1.1,5.6,2.5,8.2,4l0.5-0.8c-2.7-1.6-5.5-2.9-8.4-4.1c-3.3-1.3-6.7-2.4-10.3-3.1l-0.2,0.9
	C977.2,480.2,980.5,481.2,983.8,482.5z"/>
<linearGradient id="SVGID_7_" gradientUnits="userSpaceOnUse" x1="565.4644" y1="743.9011" x2="566.4643" y2="743.9011" gradientTransform="matrix(-6.3948 -2.2152 -2.2152 6.3948 6161.2686 -2979.0647)">
	<stop  offset="0" style="stop-color:#0071B2"/>
	<stop  offset="0.4984" style="stop-color:#006FB0"/>
	<stop  offset="0.679" style="stop-color:#0168AA"/>
	<stop  offset="0.8078" style="stop-color:#035C9E"/>
	<stop  offset="0.9114" style="stop-color:#064C8E"/>
	<stop  offset="1" style="stop-color:#093679"/>
</linearGradient>
<path class="st12" d="M898.4,548.4c-0.3-2.6-0.5-5.2-0.5-7.8c0-4.2,0.4-8.3,1.2-12.2c0.8-3.8,1.9-7.5,3.3-11
	c1.5-3.8,3.4-7.5,5.7-10.9l0.1-0.1l-0.8-0.5l-0.1,0.1c-2.3,3.5-4.2,7.2-5.8,11.1c-1.4,3.6-2.6,7.3-3.3,11.2c-0.8,4-1.2,8.2-1.2,12.4
	c0,2.7,0.2,5.3,0.5,7.9L898.4,548.4z"/>
<linearGradient id="SVGID_8_" gradientUnits="userSpaceOnUse" x1="559.6569" y1="777.3774" x2="560.657" y2="777.3774" gradientTransform="matrix(-4.8493 4.6142 4.6142 4.8493 43.0838 -5770.7881)">
	<stop  offset="0" style="stop-color:#0064A8"/>
	<stop  offset="0.2815" style="stop-color:#015CA0"/>
	<stop  offset="0.7104" style="stop-color:#06488B"/>
	<stop  offset="1" style="stop-color:#093679"/>
</linearGradient>
<path class="st13" d="M929,594.7c-0.9-0.5-1.8-1.1-2.7-1.7c-3.6-2.4-7-5.1-10.1-8.2c-2.9-2.9-5.5-6.1-7.8-9.5
	c-1.7-2.6-3.2-5.3-4.6-8.1l-0.8,0.4c1.3,2.9,2.9,5.6,4.6,8.2c2.3,3.5,5,6.7,7.9,9.6c3.1,3.1,6.5,5.9,10.2,8.3
	c0.9,0.6,1.8,1.1,2.7,1.7L929,594.7z"/>
<linearGradient id="SVGID_9_" gradientUnits="userSpaceOnUse" x1="587.826" y1="782.0348" x2="588.8257" y2="782.0348" gradientTransform="matrix(3.1438 12.3895 12.3895 -3.1438 -10564.1494 -4230.9424)">
	<stop  offset="0" style="stop-color:#003D7C"/>
	<stop  offset="0.2118" style="stop-color:#023571"/>
	<stop  offset="0.5479" style="stop-color:#042E68"/>
	<stop  offset="1" style="stop-color:#052C65"/>
</linearGradient>
<path class="st14" d="M999.6,589.5c-1.4,1.1-2.8,2.2-4.3,3.2c-3.2,2.1-6.6,4-10.1,5.5c-3.7,1.6-7.7,2.8-11.7,3.7
	c-4.2,0.9-8.5,1.3-12.9,1.3c-4.2,0-8.3-0.4-12.2-1.2c-0.3-0.1-0.6-0.1-0.9-0.2l-0.2,0.9c0.3,0.1,0.6,0.1,0.9,0.2
	c4,0.8,8.2,1.2,12.4,1.2c4.5,0,8.9-0.5,13.1-1.4c4.1-0.9,8.1-2.1,11.9-3.8c3.6-1.5,7-3.4,10.3-5.6c1.5-1,3-2.1,4.4-3.2L999.6,589.5z
	"/>
<linearGradient id="SVGID_10_" gradientUnits="userSpaceOnUse" x1="592.3998" y1="776.5575" x2="593.3997" y2="776.5575" gradientTransform="matrix(10.1714 15.5348 15.5348 -10.1714 -17079.1328 -762.7133)">
	<stop  offset="0" style="stop-color:#1D67AB"/>
	<stop  offset="0.5169" style="stop-color:#1C65A9"/>
	<stop  offset="0.7031" style="stop-color:#1A5FA2"/>
	<stop  offset="0.8359" style="stop-color:#155397"/>
	<stop  offset="0.9424" style="stop-color:#0E4386"/>
	<stop  offset="1" style="stop-color:#093679"/>
</linearGradient>
<path class="st15" d="M1023.5,532.7l-0.9,0.1v0c0.3,2.6,0.5,5.1,0.5,7.8c0,4.2-0.4,8.3-1.2,12.2c-0.8,3.8-1.9,7.5-3.3,11
	c-1.5,3.8-3.4,7.5-5.7,10.9l-0.1,0.1l0.8,0.5l0.1-0.1c2.3-3.5,4.2-7.2,5.8-11.1c1.4-3.6,2.6-7.3,3.3-11.2c0.8-4,1.2-8.2,1.2-12.4
	C1024,538,1023.9,535.3,1023.5,532.7z"/>
<linearGradient id="SVGID_11_" gradientUnits="userSpaceOnUse" x1="615.3062" y1="761.2941" x2="616.3063" y2="761.2941" gradientTransform="matrix(7.3982 -4.2536 -4.2536 -7.3982 -311.9651 8751.0117)">
	<stop  offset="0" style="stop-color:#0071B2"/>
	<stop  offset="0.4984" style="stop-color:#006FB0"/>
	<stop  offset="0.679" style="stop-color:#0168AA"/>
	<stop  offset="0.8078" style="stop-color:#035C9E"/>
	<stop  offset="0.9114" style="stop-color:#064C8E"/>
	<stop  offset="1" style="stop-color:#093679"/>
</linearGradient>
<path class="st16" d="M992,486.5c0.9,0.5,1.8,1.1,2.7,1.7c3.6,2.4,7,5.1,10.1,8.2c2.9,2.9,5.5,6.1,7.8,9.5c1.7,2.6,3.2,5.3,4.6,8.1
	l0.8-0.4c-1.3-2.8-2.9-5.6-4.6-8.2c-2.3-3.5-5-6.7-7.9-9.6c-3.1-3.1-6.5-5.9-10.2-8.3c-0.9-0.6-1.8-1.1-2.7-1.7L992,486.5z"/>
<linearGradient id="SVGID_12_" gradientUnits="userSpaceOnUse" x1="594.8127" y1="717.825" x2="595.8126" y2="717.825" gradientTransform="matrix(-1.2515 -4.4379 -4.4379 1.2515 4875.3823 2219.0176)">
	<stop  offset="0" style="stop-color:#0071B2"/>
	<stop  offset="0.4984" style="stop-color:#006FB0"/>
	<stop  offset="0.679" style="stop-color:#0168AA"/>
	<stop  offset="0.8078" style="stop-color:#035C9E"/>
	<stop  offset="0.9114" style="stop-color:#064C8E"/>
	<stop  offset="1" style="stop-color:#093679"/>
</linearGradient>
<path class="st17" d="M960.5,477.1c-4.5,0-8.9,0.5-13.1,1.4c-4.1,0.9-8.1,2.1-11.9,3.8c-3.6,1.5-7,3.4-10.3,5.6
	c-1.5,1-3,2.1-4.4,3.2l0.6,0.7c1.4-1.1,2.8-2.2,4.3-3.2c3.2-2.1,6.6-4,10.1-5.5c3.7-1.6,7.7-2.8,11.7-3.7c4.2-0.9,8.5-1.3,12.9-1.3
	c4.2,0,8.3,0.4,12.2,1.2c0.3,0.1,0.6,0.1,0.9,0.2l0.2-0.9c-0.3-0.1-0.6-0.1-0.9-0.2C968.9,477.5,964.8,477.1,960.5,477.1"/>
<linearGradient id="SVGID_13_" gradientUnits="userSpaceOnUse" x1="601.265" y1="788.2431" x2="602.2672" y2="788.2431" gradientTransform="matrix(6.2075 5.75 5.75 -6.2075 -7355.6064 1929.5796)">
	<stop  offset="0" style="stop-color:#8D8E90"/>
	<stop  offset="8.237898e-02" style="stop-color:#9B9C9D"/>
	<stop  offset="0.3703" style="stop-color:#C6C6C7"/>
	<stop  offset="0.6293" style="stop-color:#E5E5E6"/>
	<stop  offset="0.8481" style="stop-color:#F8F8F8"/>
	<stop  offset="1" style="stop-color:#FFFFFF"/>
</linearGradient>
<path class="st18" d="M916.2,496.4c1.6-1.6,3.4-3.2,5.2-4.6l-0.6-0.7c-1.8,1.5-3.6,3-5.2,4.7c-3.1,3.1-5.8,6.4-8.2,10.1l0.8,0.5
	C910.5,502.7,913.2,499.4,916.2,496.4z"/>
<circle class="st6" cx="974" cy="594.2" r="2.6"/>
<circle class="st6" cx="947.7" cy="487.1" r="2.6"/>
<circle class="st6" cx="906.3" cy="530.9" r="2.6"/>
<circle class="st6" cx="920.7" cy="578.8" r="2.6"/>
<circle class="st6" cx="1014" cy="553.3" r="2.6"/>
<circle class="st6" cx="1001.2" cy="503.9" r="2.6"/>
<linearGradient id="SVGID_14_" gradientUnits="userSpaceOnUse" x1="591.0635" y1="767.4466" x2="592.0635" y2="767.4466" gradientTransform="matrix(57.9976 57.9976 57.9976 -57.9976 -77858.9297 10741.3203)">
	<stop  offset="0" style="stop-color:#006BB3"/>
	<stop  offset="0.3053" style="stop-color:#025FA5"/>
	<stop  offset="0.8759" style="stop-color:#083E82"/>
	<stop  offset="1" style="stop-color:#093679"/>
</linearGradient>
<path class="st19" d="M994.9,563c1.5-2.3,2.7-4.7,3.7-7.2c0.9-2.4,1.7-4.8,2.1-7.2c0.5-2.6,0.8-5.3,0.8-8c0-2.8-0.3-5.7-0.9-8.4
	c-0.5-2.6-1.4-5.2-2.4-7.7c-1-2.3-2.2-4.5-3.6-6.6c-0.3-0.5-0.7-1-1-1.5c-0.1-0.1-0.2-0.3-0.3-0.4c-0.3-0.3-0.5-0.7-0.8-1
	c-0.1-0.2-0.2-0.3-0.4-0.5c-0.3-0.4-0.7-0.8-1.1-1.2l-0.1-0.1c-0.5-0.5-0.9-1-1.4-1.5c-0.5-0.5-1-1-1.5-1.5l0,0l0,0l0,0l-0.1-0.1
	c-0.4-0.4-0.9-0.8-1.3-1.1c-0.2-0.1-0.3-0.3-0.5-0.4c-0.4-0.3-0.7-0.6-1.1-0.8c-0.2-0.1-0.3-0.2-0.5-0.3c-0.5-0.4-1-0.7-1.6-1.1
	c-2.3-1.5-4.7-2.7-7.2-3.7c-2.4-0.9-4.8-1.7-7.2-2.1c-2.6-0.5-5.3-0.8-8-0.8c-2.8,0-5.7,0.3-8.4,0.9c-2.6,0.5-5.2,1.4-7.7,2.4
	c-2.3,1-4.5,2.2-6.6,3.6c-2.2,1.5-4.3,3.2-6.2,5.1c-2,2-3.8,4.3-5.4,6.6c-1.5,2.3-2.7,4.7-3.7,7.2c-0.9,2.4-1.7,4.8-2.1,7.2
	c-0.5,2.6-0.8,5.3-0.8,8c0,2.8,0.3,5.7,0.9,8.4c0.5,2.6,1.4,5.2,2.4,7.7c1,2.3,2.2,4.5,3.6,6.6c0.3,0.5,0.7,1,1,1.5
	c0.1,0.1,0.2,0.3,0.3,0.4c0.3,0.3,0.5,0.7,0.8,1c0.1,0.2,0.2,0.3,0.4,0.5c0.3,0.4,0.7,0.8,1.1,1.2c0.5,0.5,1,1.1,1.5,1.6
	c2,2,4.3,3.8,6.6,5.4c2.3,1.5,4.7,2.7,7.2,3.7c2.4,0.9,4.8,1.7,7.2,2.1c2.6,0.5,5.3,0.8,8,0.8c2.8,0,5.7-0.3,8.4-0.9
	c2.6-0.5,5.2-1.4,7.7-2.4c2.3-1,4.5-2.2,6.6-3.6c2.2-1.5,4.3-3.2,6.2-5.1C991.6,567.6,993.3,565.4,994.9,563z M993.9,516.8
	c-0.1-0.1-0.1-0.2-0.2-0.3C993.8,516.6,993.8,516.7,993.9,516.8z M993.1,515.8c-0.2-0.2-0.4-0.5-0.6-0.7
	C992.7,515.3,992.9,515.5,993.1,515.8z M992.1,514.4c-0.3-0.4-0.7-0.8-1-1.2C991.4,513.7,991.7,514,992.1,514.4z M987.8,510
	c-0.4-0.4-0.8-0.7-1.3-1.1C987,509.3,987.4,509.7,987.8,510z M985.9,508.5c-0.3-0.2-0.5-0.4-0.8-0.6
	C985.4,508.1,985.7,508.3,985.9,508.5z M984.3,507.3c-0.1-0.1-0.2-0.1-0.3-0.2C984.1,507.1,984.2,507.2,984.3,507.3z M927.1,564.4
	c0.1,0.1,0.1,0.2,0.2,0.3C927.3,564.6,927.2,564.5,927.1,564.4z M927.9,565.5c0.2,0.2,0.4,0.5,0.6,0.7
	C928.3,566,928.1,565.8,927.9,565.5z M929,566.8c0.3,0.4,0.7,0.8,1,1.2C929.6,567.6,929.3,567.2,929,566.8z"/>
<path class="st2" d="M999.8,532.4c-0.5-2.6-1.3-5.1-2.4-7.5c-1-2.3-2.2-4.4-3.5-6.5c-1.5-2.2-3.1-4.2-5-6.1c-2-2-4.1-3.7-6.5-5.2
	c-2.2-1.4-4.5-2.7-7-3.6c-2.3-0.9-4.6-1.6-7.1-2.1c-0.6-0.1-1.1-0.2-1.7-0.3c-0.2,0-0.4-0.1-0.5-0.1c-0.4-0.1-0.8-0.1-1.3-0.2
	c-0.2,0-0.4,0-0.6-0.1c-0.5,0-1.1-0.1-1.6-0.1l-0.2,0c-0.7,0-1.3,0-2,0c-0.7,0-1.4,0-2.1,0.1h0h0h0l-0.2,0c-0.6,0-1.1,0.1-1.7,0.1
	c-0.2,0-0.4,0-0.6,0.1c-0.4,0.1-0.9,0.1-1.3,0.2c-0.2,0-0.4,0.1-0.6,0.1c-0.6,0.1-1.2,0.2-1.8,0.3c-2.6,0.5-5.1,1.4-7.5,2.4
	c-2.3,1-4.4,2.2-6.5,3.5c-2.2,1.5-4.2,3.1-6.1,5c-2,2-3.7,4.1-5.2,6.5c-1.4,2.2-2.7,4.5-3.6,7c-0.9,2.3-1.6,4.6-2.1,7.1
	c-0.5,2.5-0.8,5.2-0.8,7.8c0,2.8,0.3,5.6,0.9,8.3c0.5,2.6,1.4,5.1,2.4,7.5c1,2.3,2.2,4.4,3.5,6.5c1.5,2.2,3.1,4.2,5,6.1
	c2,2,4.1,3.7,6.5,5.2c2.2,1.4,4.5,2.7,7,3.6c2.3,0.9,4.6,1.6,7.1,2.1c0.6,0.1,1.1,0.2,1.7,0.3c0.2,0,0.4,0.1,0.5,0.1
	c0.4,0.1,0.8,0.1,1.3,0.2c0.2,0,0.4,0,0.6,0.1c0.5,0.1,1.1,0.1,1.6,0.1c0.7,0,1.4,0.1,2.2,0.1c2.8,0,5.6-0.3,8.3-0.9
	c2.6-0.5,5.1-1.3,7.5-2.4c2.3-1,4.4-2.2,6.5-3.5c2.2-1.5,4.2-3.1,6.1-5c2-2,3.7-4.1,5.2-6.5c1.4-2.2,2.7-4.5,3.6-7
	c0.9-2.3,1.6-4.6,2.1-7.1c0.5-2.5,0.8-5.2,0.8-7.8C1000.6,537.8,1000.3,535,999.8,532.4z M967.1,501.1c-0.1,0-0.2,0-0.4-0.1
	C966.9,501,967,501.1,967.1,501.1z M965.9,500.9c-0.3,0-0.6-0.1-0.9-0.1C965.3,500.8,965.6,500.8,965.9,500.9z M964.2,500.7
	c-0.5,0-1-0.1-1.5-0.1C963.2,500.6,963.7,500.6,964.2,500.7z M955.8,500.8c-0.3,0-0.6,0.1-1,0.1
	C955.2,500.9,955.5,500.8,955.8,500.8z M953.9,501.1c-0.1,0-0.2,0-0.4,0.1C953.6,501.1,953.8,501.1,953.9,501.1z M953.9,580.2
	c0.1,0,0.2,0,0.4,0.1C954.1,580.3,954,580.2,953.9,580.2z M955.2,580.4c0.3,0,0.6,0.1,0.9,0.1C955.8,580.5,955.5,580.4,955.2,580.4z
	 M956.8,580.6c0.5,0,1,0.1,1.5,0.1C957.8,580.7,957.3,580.6,956.8,580.6z"/>
<text transform="matrix(1.1334 0 0 1 938.1245 563.0283)" class="st20 st21 st22">1</text>
</svg>
