<?xml version="1.0" encoding="utf-8"?>
<!-- Generator: Adobe Illustrator 21.1.0, SVG Export Plug-In . SVG Version: 6.00 Build 0)  -->
<svg version="1.1" id="Layer_1" xmlns="http://www.w3.org/2000/svg" xmlns:xlink="http://www.w3.org/1999/xlink" x="0px" y="0px"
	 viewBox="0 0 156 155" style="enable-background:new 0 0 156 155;" xml:space="preserve">
<style type="text/css">
	.st0{fill:#0099C3;}
	.st1{fill:#FBF5F9;}
	.st2{fill:#00B9ED;}
	.st3{fill:#FF79AE;}
	.st4{fill:url(#SVGID_1_);}
	.st5{fill:#EBDFE2;}
	.st6{fill:#FAF8F9;}
	.st7{fill:url(#SVGID_2_);}
	.st8{fill:url(#SVGID_3_);}
	.st9{fill:url(#SVGID_4_);}
	.st10{fill:url(#SVGID_5_);}
	.st11{fill:url(#SVGID_6_);}
	.st12{fill:url(#SVGID_7_);}
	.st13{fill:url(#SVGID_8_);}
	.st14{fill:url(#SVGID_9_);}
	.st15{fill:url(#SVGID_10_);}
	.st16{fill:url(#SVGID_11_);}
	.st17{fill:url(#SVGID_12_);}
	.st18{fill:url(#SVGID_13_);}
	.st19{fill:url(#SVGID_14_);}
	.st20{fill:#FFFFFF;}
	.st21{font-family:'Charter-BoldItalic';}
	.st22{font-size:51.5622px;}
</style>
<g>
	<g>
		<path class="st0" d="M126.1,69.8c-0.7-3.2-1.6-6.2-2.9-9.1c-1.2-2.8-2.6-5.4-4.3-7.9c-1.8-2.7-3.8-5.1-6.1-7.4
			c-2.4-2.4-5-4.5-7.8-6.3c-2.7-1.7-5.5-3.2-8.5-4.4c-2.7-1.1-5.6-2-8.6-2.6c-0.7-0.1-1.4-0.3-2.1-0.4c-0.2,0-0.4-0.1-0.6-0.1
			c-0.5-0.1-1-0.1-1.5-0.2c-0.2,0-0.5-0.1-0.7-0.1c-0.6-0.1-1.3-0.1-1.9-0.1l-0.2,0c-0.8,0-1.6-0.1-2.4-0.1c-0.8,0-1.7,0-2.5,0.1h0
			h0h0l-0.2,0c-0.7,0-1.4,0.1-2.1,0.2c-0.2,0-0.5,0.1-0.7,0.1c-0.5,0.1-1.1,0.1-1.6,0.2c-0.2,0-0.5,0.1-0.7,0.1
			c-0.7,0.1-1.5,0.3-2.2,0.4c-3.2,0.7-6.2,1.6-9.1,2.9c-2.8,1.2-5.4,2.6-7.9,4.3c-2.7,1.8-5.1,3.8-7.4,6.1c-2.4,2.4-4.5,5-6.3,7.8
			c-1.7,2.7-3.2,5.5-4.4,8.5c-1.1,2.7-2,5.6-2.6,8.6c-0.6,3.1-0.9,6.2-0.9,9.5c0,3.4,0.4,6.8,1,10c0.7,3.2,1.6,6.2,2.9,9.1
			c1.2,2.8,2.6,5.4,4.3,7.9c1.8,2.7,3.8,5.1,6.1,7.4c2.4,2.4,5,4.5,7.8,6.3c2.7,1.7,5.5,3.2,8.5,4.4c2.7,1.1,5.6,2,8.6,2.6
			c0.7,0.1,1.4,0.3,2.1,0.4c0.2,0,0.4,0.1,0.6,0.1c0.5,0.1,1,0.1,1.5,0.2c0.2,0,0.5,0.1,0.7,0.1c0.6,0.1,1.3,0.1,1.9,0.1
			c0.9,0,1.7,0.1,2.6,0.1c3.4,0,6.8-0.4,10-1c3.2-0.7,6.2-1.6,9.1-2.9c2.8-1.2,5.4-2.6,7.9-4.3c2.7-1.8,5.1-3.8,7.4-6.1
			c2.4-2.4,4.5-5,6.3-7.8c1.7-2.7,3.2-5.5,4.4-8.5c1.1-2.7,2-5.6,2.6-8.6c0.6-3.1,0.9-6.2,0.9-9.5C127.1,76.4,126.8,73.1,126.1,69.8
			z M86.6,31.9c-0.1,0-0.3-0.1-0.4-0.1C86.3,31.9,86.4,31.9,86.6,31.9z M85,31.7c-0.4,0-0.7-0.1-1.1-0.1
			C84.3,31.6,84.7,31.6,85,31.7z M83,31.5c-0.6-0.1-1.2-0.1-1.8-0.1C81.8,31.4,82.4,31.4,83,31.5z M75.8,31.3c-0.7,0-1.3,0.1-2,0.2
			C74.5,31.4,75.1,31.4,75.8,31.3z M72.9,31.6c-0.4,0-0.8,0.1-1.2,0.2C72.1,31.7,72.5,31.6,72.9,31.6z M70.5,31.9
			c-0.1,0-0.3,0.1-0.4,0.1C70.2,32,70.4,31.9,70.5,31.9z M70.5,127.7c0.1,0,0.3,0.1,0.4,0.1C70.8,127.8,70.7,127.8,70.5,127.7z
			 M72.1,128c0.4,0,0.7,0.1,1.1,0.1C72.8,128.1,72.4,128,72.1,128z M74.1,128.2c0.6,0.1,1.2,0.1,1.8,0.1
			C75.3,128.3,74.7,128.3,74.1,128.2z"/>
		<path class="st1" d="M31.4,100c-1.3-3.1-2.3-6.3-3-9.6c-0.3-1.4-0.5-2.8-0.7-4.2l-12.1,1.5c0.2,1.8,0.5,3.5,0.9,5.2
			c0.9,4.1,2.1,8.1,3.8,11.9c0.3,0.7,0.6,1.4,1,2.1l11-5.2C31.9,101.2,31.6,100.6,31.4,100z"/>
		<path class="st1" d="M131.7,114.7l-10.2-6.7c-1.9,2.9-4.2,5.7-6.6,8.2c-1.3,1.3-2.8,2.6-4.2,3.8l7.6,9.5c1.8-1.5,3.6-3,5.2-4.7
			C126.5,121.7,129.3,118.3,131.7,114.7z"/>
		<path class="st1" d="M59.5,127.5c-2.3-0.9-4.6-2-6.7-3.3l-6.1,10.5c2.7,1.6,5.5,2.9,8.4,4.1c3.3,1.3,6.7,2.4,10.3,3.1l2.6-11.9
			C64.9,129.4,62.1,128.6,59.5,127.5z"/>
		<path class="st1" d="M125.7,59.6c1.3,3.1,2.3,6.3,3,9.6c0.3,1.4,0.5,2.8,0.7,4.2l12.1-1.5c-0.2-1.8-0.5-3.5-0.9-5.2
			c-0.9-4.1-2.1-8.1-3.8-11.9c-0.3-0.7-0.6-1.4-1-2.1L125,58C125.2,58.5,125.5,59.1,125.7,59.6z"/>
		<path class="st1" d="M97.6,32.2c2.3,0.9,4.6,2,6.7,3.3l6.1-10.5c-2.7-1.6-5.5-2.9-8.4-4.1c-3.3-1.3-6.7-2.4-10.3-3.1l-2.6,11.9
			C92.2,30.3,95,31.1,97.6,32.2z"/>
		<path class="st2" d="M141.6,71.9l-12.1,1.5l0,0c-0.2-1.4-0.4-2.8-0.7-4.2c-0.7-3.3-1.7-6.6-3-9.6c-0.2-0.6-0.5-1.1-0.8-1.7l0,0
			l11-5.2c-1.3-2.8-2.9-5.6-4.6-8.2c-2.3-3.5-5-6.7-7.9-9.6c-3.1-3.1-6.5-5.9-10.2-8.3c-0.9-0.6-1.8-1.1-2.7-1.7l-6.1,10.5l0,0
			c-2.2-1.3-4.4-2.4-6.8-3.3c-2.7-1.1-5.4-1.9-8.3-2.5l2.6-11.9c-0.3-0.1-0.6-0.1-0.9-0.2c-4-0.8-8.2-1.2-12.4-1.2
			c-4.5,0-8.9,0.5-13.1,1.4c-4.1,0.9-8.1,2.1-11.9,3.8c-3.6,1.5-7,3.4-10.3,5.6c-1.5,1-3,2.1-4.4,3.2l7.6,9.5
			c-1.5,1.2-2.9,2.4-4.2,3.8c-2.5,2.5-4.8,5.3-6.7,8.3l0.1-0.1L25.4,45l-0.1,0.1c-2.3,3.5-4.2,7.2-5.8,11.1
			c-1.4,3.6-2.6,7.3-3.3,11.2c-0.8,4-1.2,8.2-1.2,12.4c0,2.7,0.2,5.3,0.5,7.9l12.1-1.5l0,0c0.2,1.4,0.4,2.8,0.7,4.2
			c0.7,3.3,1.7,6.6,3,9.6c0.2,0.6,0.5,1.1,0.8,1.7l-11,5.2c1.3,2.8,2.9,5.6,4.6,8.2c2.3,3.5,5,6.7,7.9,9.6c3.1,3.1,6.5,5.9,10.2,8.3
			c0.9,0.6,1.8,1.1,2.7,1.7l6.1-10.5l0,0c2.2,1.3,4.4,2.4,6.8,3.3c2.9,1.2,5.9,2.1,9.1,2.7c-0.3-0.1-0.5-0.1-0.8-0.2l-2.6,11.9
			c0.3,0.1,0.6,0.1,0.9,0.2c4,0.8,8.2,1.2,12.4,1.2c4.5,0,8.9-0.5,13.1-1.4c4.1-0.9,8.1-2.1,11.9-3.8c3.6-1.5,7-3.4,10.3-5.6
			c1.5-1,3-2.1,4.4-3.2l-7.6-9.5c1.5-1.2,2.9-2.4,4.2-3.8c2.5-2.5,4.7-5.2,6.6-8.2l10.2,6.7l0.1-0.1c2.3-3.5,4.2-7.2,5.8-11.1
			c1.4-3.6,2.6-7.3,3.3-11.2c0.8-4,1.2-8.2,1.2-12.4C142.1,77.2,141.9,74.5,141.6,71.9z M124.3,56.6c-0.1-0.2-0.2-0.4-0.3-0.5
			C124.1,56.2,124.2,56.4,124.3,56.6z M122.4,53.1c-0.4-0.6-0.7-1.2-1.1-1.8C121.6,51.9,122,52.5,122.4,53.1z M123.4,54.9
			c-0.2-0.3-0.3-0.6-0.5-0.9C123,54.3,123.2,54.6,123.4,54.9z M50.1,37.1c-0.6,0.4-1.2,0.8-1.8,1.3C48.8,38,49.4,37.6,50.1,37.1z
			 M27.4,84.5l0,0.2L27.4,84.5z M27.3,81.4c0,0.1,0,0.2,0,0.4C27.3,81.6,27.3,81.5,27.3,81.4z M27.3,82.9c0,0.1,0,0.2,0,0.4
			C27.3,83.1,27.3,83,27.3,82.9z M32.8,103.1c0.1,0.2,0.2,0.4,0.3,0.5C33,103.5,32.9,103.3,32.8,103.1z M34.7,106.6
			c0.4,0.6,0.7,1.2,1.1,1.8C35.5,107.7,35.1,107.2,34.7,106.6z M33.7,104.8c0.2,0.3,0.3,0.6,0.5,0.9
			C34.1,105.4,33.9,105.1,33.7,104.8z M107,122.5c0.6-0.4,1.2-0.8,1.8-1.3C108.3,121.7,107.7,122.1,107,122.5z M115.9,104.2
			c-1.7,2.6-3.6,5-5.8,7.2c-2.1,2.1-4.3,3.9-6.8,5.6c-2.3,1.5-4.7,2.8-7.2,3.9c-2.7,1.1-5.5,2-8.4,2.6c-3,0.6-6,1-9.2,1
			c-3,0-5.9-0.3-8.7-0.9c-2.7-0.5-5.3-1.3-7.9-2.3c-2.7-1.1-5.3-2.5-7.8-4.1c-2.6-1.7-5-3.6-7.2-5.8c-2.1-2.1-3.9-4.3-5.6-6.8
			c-1.5-2.3-2.8-4.7-3.9-7.2c-1.1-2.7-2-5.5-2.6-8.4c-0.6-3-1-6-1-9.2c0-3,0.3-5.9,0.9-8.7c0.5-2.7,1.3-5.3,2.3-7.9
			c1.1-2.7,2.5-5.3,4.1-7.8c1.7-2.6,3.6-5,5.8-7.2c2.1-2.1,4.3-3.9,6.8-5.6c2.3-1.5,4.7-2.8,7.2-3.9c2.7-1.1,5.5-2,8.4-2.6
			c3-0.6,6-1,9.2-1c3,0,5.9,0.3,8.7,0.9c2.7,0.5,5.3,1.3,7.9,2.3c2.7,1.1,5.3,2.5,7.8,4.1c2.6,1.7,5,3.6,7.2,5.8
			c2.1,2.1,3.9,4.3,5.6,6.8c1.5,2.3,2.8,4.7,3.9,7.2c1.1,2.7,2,5.5,2.6,8.4c0.6,3,1,6,1,9.2c0,3-0.3,5.9-0.9,8.7
			c-0.5,2.7-1.3,5.3-2.3,7.9C118.9,99.2,117.5,101.8,115.9,104.2z M129.6,74.9l0,0.2L129.6,74.9z M129.8,76.4c0,0.1,0,0.2,0,0.3
			C129.8,76.6,129.8,76.5,129.8,76.4z M129.8,77.9c0,0.1,0,0.2,0,0.4C129.8,78.2,129.8,78.1,129.8,77.9z"/>
		<path class="st1" d="M42.3,43.5c1.3-1.3,2.8-2.6,4.2-3.8l-7.6-9.5c-1.8,1.5-3.6,3-5.2,4.7c-3.1,3.1-5.8,6.5-8.2,10.1l10.2,6.7
			C37.6,48.8,39.8,46,42.3,43.5z"/>
		<path class="st3" d="M118.7,71.4c-0.6-2.7-1.4-5.2-2.4-7.7c-1-2.3-2.2-4.5-3.6-6.6c-1.5-2.2-3.2-4.3-5.1-6.2c-2-2-4.2-3.8-6.6-5.3
			c-2.2-1.5-4.6-2.7-7.1-3.7c-2.3-0.9-4.7-1.7-7.2-2.2c-2.6-0.5-5.3-0.8-8-0.8c-2.9,0-5.7,0.3-8.5,0.9c-2.7,0.6-5.2,1.4-7.7,2.4
			c-2.3,1-4.5,2.2-6.6,3.6c-2.2,1.5-4.3,3.2-6.2,5.1c-2,2-3.8,4.2-5.3,6.6c-1.5,2.2-2.7,4.6-3.7,7.1c-0.9,2.3-1.7,4.7-2.2,7.2
			c-0.5,2.6-0.8,5.3-0.8,8c0,2.9,0.3,5.7,0.9,8.5c0.6,2.7,1.4,5.2,2.4,7.7c1,2.3,2.2,4.5,3.6,6.6c1.5,2.2,3.2,4.3,5.1,6.2
			c2,2,4.2,3.8,6.6,5.3c2.2,1.5,4.6,2.7,7.1,3.7c2.3,0.9,4.7,1.7,7.2,2.2c2,0.4,4,0.6,6,0.7c-2-0.1-4-0.3-5.9-0.7
			c-2.5-0.5-4.9-1.2-7.1-2.1c-2.5-1-4.8-2.2-7.1-3.7c-2.4-1.5-4.5-3.3-6.5-5.3c-1.9-1.9-3.6-3.9-5-6.2c-1.4-2.1-2.6-4.2-3.6-6.5
			c-1-2.4-1.8-5-2.4-7.6C38.3,86,38,83.2,38,80.3c0-2.7,0.3-5.4,0.8-7.9c0.5-2.5,1.2-4.9,2.1-7.1c1-2.5,2.2-4.8,3.7-7.1
			c1.5-2.4,3.3-4.5,5.3-6.5c1.9-1.9,3.9-3.6,6.2-5c2.1-1.4,4.2-2.6,6.5-3.6c2.4-1,5-1.8,7.6-2.4c2.7-0.6,5.5-0.9,8.4-0.9
			c2.7,0,5.4,0.3,7.9,0.8c2.5,0.5,4.9,1.2,7.1,2.1c2.5,1,4.8,2.2,7.1,3.7c2.4,1.5,4.5,3.3,6.5,5.3c1.9,1.9,3.6,3.9,5,6.2
			c1.4,2.1,2.6,4.2,3.6,6.5c1,2.4,1.8,5,2.4,7.6c0.6,2.7,0.9,5.5,0.9,8.4c0,2.7-0.3,5.4-0.8,7.9c-0.5,2.5-1.2,4.9-2.1,7.1
			c-1,2.5-2.2,4.8-3.7,7.1c-1.5,2.4-3.3,4.5-5.3,6.5c-1.9,1.9-3.9,3.6-6.2,5c-2.1,1.4-4.2,2.6-6.5,3.6c-2.4,1-5,1.8-7.6,2.4
			c-2.7,0.6-5.5,0.9-8.4,0.9c2.9,0,5.7-0.3,8.5-0.9c2.7-0.6,5.2-1.4,7.7-2.4c2.3-1,4.5-2.2,6.6-3.6c2.2-1.5,4.3-3.2,6.2-5.1
			c2-2,3.8-4.2,5.3-6.6c1.5-2.2,2.7-4.6,3.7-7.1c0.9-2.3,1.7-4.7,2.2-7.2c0.5-2.6,0.8-5.3,0.8-8C119.6,76.9,119.3,74.1,118.7,71.4z"
			/>
		
			<linearGradient id="SVGID_1_" gradientUnits="userSpaceOnUse" x1="575.9222" y1="844.2691" x2="576.9222" y2="844.2691" gradientTransform="matrix(-64.2086 -64.2086 -64.2086 64.2086 91299.2344 -17118.1465)">
			<stop  offset="0" style="stop-color:#00E7EB"/>
			<stop  offset="0.2396" style="stop-color:#00D9E4"/>
			<stop  offset="0.6872" style="stop-color:#00B6D2"/>
			<stop  offset="1" style="stop-color:#0099C3"/>
		</linearGradient>
		<path class="st4" d="M40.5,55c-1.6,2.5-3,5.2-4.1,7.9c-1,2.6-1.8,5.3-2.4,8c-0.6,2.9-0.9,5.9-0.9,8.9c0,3.1,0.3,6.3,1,9.4
			c0.6,2.9,1.5,5.7,2.7,8.5c1.1,2.5,2.4,5,4,7.3c1.6,2.4,3.5,4.8,5.7,6.9c2.3,2.3,4.7,4.2,7.3,5.9c2.5,1.6,5.2,3,7.9,4.1
			c2.6,1,5.3,1.8,8,2.4c2.9,0.6,5.9,0.9,8.9,0.9c3.1,0,6.3-0.3,9.4-1c2.9-0.6,5.7-1.5,8.5-2.7c2.5-1.1,5-2.4,7.3-4
			c2.4-1.6,4.7-3.5,6.9-5.7c2.3-2.3,4.2-4.7,5.9-7.3c1.6-2.5,3-5.2,4.1-7.9c1-2.6,1.8-5.3,2.4-8c0.6-2.9,0.9-5.9,0.9-8.9
			c0-3.1-0.3-6.3-1-9.4c-0.6-2.9-1.5-5.7-2.7-8.5c-1.1-2.5-2.4-5-4-7.3c-1.6-2.4-3.5-4.7-5.7-6.9c-2.3-2.3-4.7-4.2-7.3-5.9
			c-2.5-1.6-5.2-3-7.9-4.1c-2.6-1-5.3-1.8-8-2.4c-2.9-0.6-5.9-0.9-8.9-0.9c-3.1,0-6.3,0.3-9.4,1c-2.9,0.6-5.7,1.5-8.5,2.7
			c-2.5,1.1-5,2.4-7.3,4c-2.4,1.6-4.7,3.5-6.9,5.7C44.2,50,42.2,52.5,40.5,55z M62.1,41.5c2.5-1.1,5.2-1.9,7.8-2.5
			c2.8-0.6,5.7-0.9,8.6-0.9c2.7,0,5.5,0.3,8.2,0.8c2.5,0.5,5,1.2,7.4,2.2c2.5,1,5,2.3,7.3,3.8c2.4,1.6,4.6,3.4,6.7,5.4
			c2,2,3.7,4.1,5.2,6.3c1.4,2.2,2.7,4.4,3.6,6.8c1.1,2.5,1.9,5.2,2.5,7.8c0.6,2.8,0.9,5.7,0.9,8.6c0,2.7-0.3,5.5-0.8,8.2
			c-0.5,2.5-1.2,5-2.2,7.4c-1,2.5-2.3,5-3.8,7.3c-1.6,2.4-3.4,4.6-5.4,6.7c-2,2-4.1,3.7-6.3,5.2c-2.2,1.4-4.4,2.7-6.8,3.6
			c-2.5,1.1-5.2,1.9-7.8,2.5c-2.8,0.6-5.7,0.9-8.6,0.9c-2.7,0-5.5-0.3-8.2-0.8c-2.5-0.5-5-1.2-7.4-2.2c-2.5-1-5-2.3-7.3-3.8
			c-2.4-1.6-4.6-3.4-6.7-5.4c-2-2-3.7-4.1-5.2-6.3c-1.4-2.2-2.7-4.4-3.6-6.8c-1.1-2.5-1.9-5.2-2.5-7.8c-0.6-2.8-0.9-5.7-0.9-8.6
			c0-2.7,0.3-5.5,0.8-8.2c0.5-2.5,1.2-5,2.2-7.4c1-2.5,2.3-5,3.8-7.3c1.6-2.4,3.4-4.6,5.4-6.7c2-2,4.1-3.7,6.3-5.2
			C57.5,43.7,59.8,42.5,62.1,41.5z"/>
		<path class="st0" d="M112.6,57.1l3-2c-1.6-2.4-3.5-4.7-5.6-6.8l-2.5,2.5C109.4,52.7,111.1,54.8,112.6,57.1z"/>
		<path class="st5" d="M116.2,63.7l3.3-1.4c-1.1-2.5-2.4-4.9-3.9-7.2l-3,2C114,59.2,115.2,61.4,116.2,63.7z"/>
		<path class="st0" d="M118.7,71.4l3.5-0.7c-0.6-2.9-1.5-5.7-2.6-8.4l-3.3,1.4C117.3,66.2,118.1,68.7,118.7,71.4z"/>
		<path class="st5" d="M107.5,108.8l2.5,2.5c2.2-2.2,4.1-4.6,5.8-7.2l-3-2C111.3,104.6,109.5,106.8,107.5,108.8z"/>
		<path class="st5" d="M40.5,64.6l-3.3-1.3c-1,2.5-1.8,5.1-2.3,7.9l3.5,0.7C38.8,69.3,39.6,66.9,40.5,64.6z"/>
		<path class="st0" d="M38.4,88.3L34.9,89c0.6,2.9,1.5,5.7,2.6,8.4l3.3-1.4C39.8,93.5,39,91,38.4,88.3z"/>
		<path class="st0" d="M38.3,71.8l-3.5-0.7c-0.6,2.8-0.9,5.7-0.9,8.7h3.6C37.5,77.1,37.8,74.4,38.3,71.8z"/>
		<path class="st5" d="M37.5,79.8h-3.6c0,3.2,0.3,6.2,1,9.2l3.5-0.7C37.8,85.6,37.5,82.7,37.5,79.8z"/>
		<path class="st5" d="M40.8,96l-3.3,1.4c1.1,2.5,2.4,4.9,3.9,7.2l3-2C43.1,100.5,41.8,98.3,40.8,96z"/>
		<path class="st5" d="M49.6,108.8l-2.5,2.5c2.2,2.2,4.6,4.1,7.2,5.8l2-3C53.8,112.6,51.6,110.8,49.6,108.8z"/>
		<path class="st0" d="M44.5,102.6l-3,2c1.6,2.4,3.5,4.7,5.6,6.8l2.5-2.5C47.7,106.9,46,104.8,44.5,102.6z"/>
		<path class="st0" d="M56.2,114.2l-2,3c2.4,1.6,5,3,7.8,4.1l1.3-3.3C60.8,116.9,58.4,115.6,56.2,114.2z"/>
		<path class="st0" d="M44.2,57.4l-3-2c-1.6,2.4-3,5-4.1,7.8l3.3,1.3C41.5,62.1,42.7,59.7,44.2,57.4z"/>
		<path class="st5" d="M78.5,38.8v-3.6c-3.2,0-6.2,0.3-9.2,1l0.7,3.5C72.8,39.1,75.7,38.8,78.5,38.8z"/>
		<path class="st5" d="M62.4,42.1L61,38.8c-2.5,1.1-4.9,2.4-7.2,3.9l2,3C57.9,44.3,60.1,43.1,62.4,42.1z"/>
		<path class="st0" d="M70.1,39.7l-0.7-3.5c-2.9,0.6-5.7,1.5-8.4,2.6l1.4,3.3C64.9,41.1,67.4,40.3,70.1,39.7z"/>
		<path class="st5" d="M49.6,50.9L47,48.3c-2.2,2.2-4.1,4.6-5.8,7.2l3,2C45.8,55.1,47.6,52.9,49.6,50.9z"/>
		<path class="st0" d="M55.8,45.7l-2-3c-2.4,1.6-4.7,3.5-6.8,5.6l2.5,2.5C51.5,49,53.5,47.2,55.8,45.7z"/>
		<path class="st5" d="M118.7,71.4c0.6,2.7,0.9,5.6,0.9,8.5h3.6c0-3.2-0.3-6.2-1-9.2L118.7,71.4z"/>
		<path class="st0" d="M118.8,87.9l3.5,0.7c0.6-2.8,0.9-5.7,0.9-8.7h-3.6C119.6,82.6,119.3,85.3,118.8,87.9z"/>
		<path class="st5" d="M107.5,50.9l2.5-2.5c-2.2-2.2-4.6-4.1-7.2-5.8l-2,3C103.3,47.1,105.5,48.8,107.5,50.9z"/>
		<path class="st5" d="M116.6,95.1l3.3,1.3c1-2.5,1.8-5.1,2.3-7.9l-3.5-0.7C118.3,90.4,117.5,92.8,116.6,95.1z"/>
		<path class="st5" d="M63.3,117.9l-1.3,3.3c2.5,1,5.1,1.8,7.9,2.3l0.7-3.5C68,119.6,65.6,118.8,63.3,117.9z"/>
		<path class="st0" d="M100.9,45.5l2-3c-2.4-1.6-5-3-7.8-4.1l-1.3,3.3C96.3,42.8,98.7,44,100.9,45.5z"/>
		<path class="st5" d="M93.8,41.8l1.3-3.3c-2.5-1-5.1-1.8-7.9-2.3l-0.7,3.5C89.1,40.1,91.5,40.8,93.8,41.8z"/>
		<path class="st0" d="M112.9,102.2l3,2c1.6-2.4,3-5,4.1-7.8l-3.3-1.3C115.6,97.6,114.3,100,112.9,102.2z"/>
		<path class="st5" d="M78.5,120.8v3.6c3.2,0,6.2-0.3,9.2-1L87,120C84.3,120.5,81.4,120.8,78.5,120.8z"/>
		<path class="st0" d="M86.6,39.6l0.7-3.5c-2.8-0.6-5.7-0.9-8.7-0.9v3.6C81.3,38.8,84,39.1,86.6,39.6z"/>
		<path class="st0" d="M70.5,120.1l-0.7,3.5c2.8,0.6,5.7,0.9,8.7,0.9v-3.6C75.8,120.8,73.1,120.6,70.5,120.1z"/>
		<path class="st0" d="M87,120l0.7,3.5c2.9-0.6,5.7-1.5,8.4-2.6l-1.4-3.3C92.2,118.6,89.7,119.4,87,120z"/>
		<path class="st5" d="M94.7,117.5l1.4,3.3c2.5-1.1,4.9-2.4,7.2-3.9l-2-3C99.2,115.3,97,116.5,94.7,117.5z"/>
		<path class="st0" d="M101.3,113.9l2,3c2.4-1.6,4.7-3.5,6.8-5.6l-2.5-2.5C105.6,110.7,103.5,112.4,101.3,113.9z"/>
		<path class="st0" d="M27.9,87.9c0,0.1,0,0.3,0.1,0.4C27.9,88.2,27.9,88.1,27.9,87.9z"/>
		<path class="st0" d="M114.8,116.1c2.5-2.5,4.7-5.2,6.6-8.2C119.5,110.9,117.3,113.6,114.8,116.1z"/>
		<path class="st0" d="M63.6,128.9c1.4,0.4,2.8,0.8,4.2,1.1C66.3,129.7,64.9,129.3,63.6,128.9z"/>
		<path class="st0" d="M61.5,128.3c0.6,0.2,1.1,0.4,1.7,0.5C62.6,128.6,62.1,128.5,61.5,128.3z"/>
		<path class="st0" d="M129.2,71.3l0,0.2L129.2,71.3z"/>
		<path class="st6" d="M38.7,47.5c-1.1,1.4-2.1,2.8-3.1,4.2C36.6,50.2,37.6,48.8,38.7,47.5z"/>
		<path class="st6" d="M40.4,45.5c-0.5,0.6-1.1,1.2-1.6,1.8C39.4,46.7,39.9,46.1,40.4,45.5z"/>
		
			<linearGradient id="SVGID_2_" gradientUnits="userSpaceOnUse" x1="450.455" y1="1043.673" x2="451.4541" y2="1043.673" gradientTransform="matrix(3.7452 -1.1097 -1.1097 -3.7452 -513.1706 4506.73)">
			<stop  offset="0" style="stop-color:#9FA3A5"/>
			<stop  offset="0.2936" style="stop-color:#C6C8C9"/>
			<stop  offset="0.5842" style="stop-color:#E5E6E7"/>
			<stop  offset="0.8296" style="stop-color:#F8F8F9"/>
			<stop  offset="1" style="stop-color:#FFFFFF"/>
		</linearGradient>
		<path class="st7" d="M21.9,106.5c-0.3-0.7-0.6-1.4-0.9-2.1c-1.6-3.7-2.8-7.7-3.7-11.7c-0.4-1.7-0.6-3.4-0.8-5.1l-0.9,0.1
			c0.2,1.8,0.5,3.5,0.9,5.2c0.9,4.1,2.1,8.1,3.8,11.9c0.3,0.7,0.6,1.4,1,2.1L21.9,106.5z"/>
		
			<linearGradient id="SVGID_3_" gradientUnits="userSpaceOnUse" x1="684.1811" y1="847.1822" x2="685.1809" y2="847.1822" gradientTransform="matrix(-5.3902 -5.3902 -5.3902 5.3902 8382.6846 -753.1845)">
			<stop  offset="0" style="stop-color:#9FA3A5"/>
			<stop  offset="0.2936" style="stop-color:#C6C8C9"/>
			<stop  offset="0.5842" style="stop-color:#E5E6E7"/>
			<stop  offset="0.8296" style="stop-color:#F8F8F9"/>
			<stop  offset="1" style="stop-color:#FFFFFF"/>
		</linearGradient>
		<path class="st8" d="M122.8,124.1c-1.6,1.6-3.4,3.2-5.2,4.6l0.6,0.7c1.8-1.5,3.6-3,5.2-4.7c3.1-3.1,5.8-6.5,8.2-10.1l-0.8-0.5
			C128.5,117.7,125.8,121.1,122.8,124.1z"/>
		
			<linearGradient id="SVGID_4_" gradientUnits="userSpaceOnUse" x1="652.2751" y1="1053.7444" x2="653.2746" y2="1053.7444" gradientTransform="matrix(1.4311 -3.7061 -3.7061 -1.4311 3026.8459 4065.9241)">
			<stop  offset="0" style="stop-color:#9FA3A5"/>
			<stop  offset="0.2936" style="stop-color:#C6C8C9"/>
			<stop  offset="0.5842" style="stop-color:#E5E6E7"/>
			<stop  offset="0.8296" style="stop-color:#F8F8F9"/>
			<stop  offset="1" style="stop-color:#FFFFFF"/>
		</linearGradient>
		<path class="st9" d="M55.3,138c-2.9-1.1-5.6-2.5-8.2-4l-0.5,0.8c2.7,1.6,5.5,2.9,8.4,4.1c3.3,1.3,6.7,2.4,10.3,3.1l0.2-0.9
			C61.9,140.3,58.5,139.3,55.3,138z"/>
		
			<linearGradient id="SVGID_5_" gradientUnits="userSpaceOnUse" x1="637.85" y1="735.5975" x2="638.8508" y2="735.5975" gradientTransform="matrix(-6.7547 1.559 1.559 6.7547 3304.4736 -5901.7261)">
			<stop  offset="0" style="stop-color:#9FA3A5"/>
			<stop  offset="0.2936" style="stop-color:#C6C8C9"/>
			<stop  offset="0.5842" style="stop-color:#E5E6E7"/>
			<stop  offset="0.8296" style="stop-color:#F8F8F9"/>
			<stop  offset="1" style="stop-color:#FFFFFF"/>
		</linearGradient>
		<path class="st10" d="M136.1,55.2c1.6,3.7,2.8,7.7,3.7,11.7c0.4,1.7,0.6,3.4,0.8,5.1l0.9-0.1c-0.2-1.8-0.5-3.5-0.9-5.2
			c-0.9-4.1-2.1-8.1-3.8-11.9c-0.3-0.7-0.6-1.4-1-2.1l-0.8,0.4C135.5,53.8,135.8,54.5,136.1,55.2z"/>
		
			<linearGradient id="SVGID_6_" gradientUnits="userSpaceOnUse" x1="519.1355" y1="722.1545" x2="520.134" y2="722.1545" gradientTransform="matrix(-2.6351 6.3796 6.3796 2.6351 -3135.835 -5198.4038)">
			<stop  offset="0" style="stop-color:#9FA3A5"/>
			<stop  offset="0.2936" style="stop-color:#C6C8C9"/>
			<stop  offset="0.5842" style="stop-color:#E5E6E7"/>
			<stop  offset="0.8296" style="stop-color:#F8F8F9"/>
			<stop  offset="1" style="stop-color:#FFFFFF"/>
		</linearGradient>
		<path class="st11" d="M101.8,21.7c2.9,1.1,5.6,2.5,8.2,4l0.5-0.8c-2.7-1.6-5.5-2.9-8.4-4.1c-3.3-1.3-6.7-2.4-10.3-3.1l-0.2,0.9
			C95.2,19.4,98.6,20.4,101.8,21.7z"/>
		
			<linearGradient id="SVGID_7_" gradientUnits="userSpaceOnUse" x1="687.3639" y1="789.0286" x2="688.3638" y2="789.0286" gradientTransform="matrix(-6.3948 -2.2152 -2.2152 6.3948 6158.7939 -3458.4187)">
			<stop  offset="0" style="stop-color:#00EAE6"/>
			<stop  offset="0.4675" style="stop-color:#00E8E5"/>
			<stop  offset="0.6369" style="stop-color:#00E1E2"/>
			<stop  offset="0.7578" style="stop-color:#00D5DD"/>
			<stop  offset="0.8556" style="stop-color:#00C5D6"/>
			<stop  offset="0.9384" style="stop-color:#00AFCC"/>
			<stop  offset="1" style="stop-color:#0099C3"/>
		</linearGradient>
		<path class="st12" d="M16.4,87.6c-0.3-2.6-0.5-5.2-0.5-7.8c0-4.2,0.4-8.3,1.2-12.2c0.8-3.8,1.9-7.5,3.3-11
			c1.5-3.8,3.4-7.5,5.7-10.9l0.1-0.1L25.4,45l-0.1,0.1c-2.3,3.5-4.2,7.2-5.8,11.1c-1.4,3.6-2.6,7.3-3.3,11.2
			c-0.8,4-1.2,8.2-1.2,12.4c0,2.7,0.2,5.3,0.5,7.9L16.4,87.6z"/>
		
			<linearGradient id="SVGID_8_" gradientUnits="userSpaceOnUse" x1="572.9228" y1="709.6022" x2="573.923" y2="709.6022" gradientTransform="matrix(-4.8493 4.6142 4.6142 4.8493 -461.8212 -5964.1421)">
			<stop  offset="0" style="stop-color:#00DDE2"/>
			<stop  offset="0.2173" style="stop-color:#00D5DE"/>
			<stop  offset="0.5493" style="stop-color:#00C0D5"/>
			<stop  offset="0.9526" style="stop-color:#009EC5"/>
			<stop  offset="1" style="stop-color:#0099C3"/>
		</linearGradient>
		<path class="st13" d="M47,133.9c-0.9-0.5-1.8-1.1-2.7-1.7c-3.6-2.4-7-5.1-10.1-8.2c-2.9-2.9-5.5-6.1-7.8-9.5
			c-1.7-2.6-3.2-5.3-4.6-8.1l-0.8,0.4c1.3,2.8,2.9,5.6,4.6,8.2c2.3,3.5,5,6.7,7.9,9.6c3.1,3.1,6.5,5.9,10.2,8.3
			c0.9,0.6,1.8,1.1,2.7,1.7L47,133.9z"/>
		
			<linearGradient id="SVGID_9_" gradientUnits="userSpaceOnUse" x1="506.3833" y1="806.3615" x2="507.383" y2="806.3615" gradientTransform="matrix(3.1438 12.3895 12.3895 -3.1438 -11491.4688 -3606.2341)">
			<stop  offset="0" style="stop-color:#00A6BE"/>
			<stop  offset="0.2698" style="stop-color:#0096B6"/>
			<stop  offset="0.5811" style="stop-color:#008DB1"/>
			<stop  offset="1" style="stop-color:#008AAF"/>
		</linearGradient>
		<path class="st14" d="M117.7,128.7c-1.4,1.1-2.8,2.2-4.3,3.2c-3.2,2.1-6.6,4-10.1,5.5c-3.7,1.6-7.7,2.8-11.7,3.7
			c-4.2,0.9-8.5,1.3-12.9,1.3c-4.2,0-8.3-0.4-12.2-1.2c-0.3-0.1-0.6-0.1-0.9-0.2l-0.2,0.9c0.3,0.1,0.6,0.1,0.9,0.2
			c4,0.8,8.2,1.2,12.4,1.2c4.5,0,8.9-0.5,13.1-1.4c4.1-0.9,8.1-2.1,11.9-3.8c3.6-1.5,7-3.4,10.3-5.6c1.5-1,3-2.1,4.4-3.2
			L117.7,128.7z"/>
		
			<linearGradient id="SVGID_10_" gradientUnits="userSpaceOnUse" x1="518.7679" y1="832.8256" x2="519.7678" y2="832.8256" gradientTransform="matrix(10.1714 15.5348 15.5348 -10.1714 -18086.2695 492.6625)">
			<stop  offset="0" style="stop-color:#00E5FD"/>
			<stop  offset="0.4752" style="stop-color:#00E3FC"/>
			<stop  offset="0.6464" style="stop-color:#00DCF6"/>
			<stop  offset="0.7685" style="stop-color:#00D1ED"/>
			<stop  offset="0.8671" style="stop-color:#00C0E0"/>
			<stop  offset="0.9506" style="stop-color:#00AAD0"/>
			<stop  offset="1" style="stop-color:#0099C3"/>
		</linearGradient>
		<path class="st15" d="M141.6,71.9l-0.9,0.1l0,0c0.3,2.6,0.5,5.2,0.5,7.8c0,4.2-0.4,8.3-1.2,12.2c-0.8,3.8-1.9,7.5-3.3,11
			c-1.5,3.8-3.4,7.5-5.7,10.9l-0.1,0.1l0.8,0.5l0.1-0.1c2.3-3.5,4.2-7.2,5.8-11.1c1.4-3.6,2.6-7.3,3.3-11.2c0.8-4,1.2-8.2,1.2-12.4
			C142.1,77.2,141.9,74.5,141.6,71.9z"/>
		
			<linearGradient id="SVGID_11_" gradientUnits="userSpaceOnUse" x1="535.6771" y1="945.2424" x2="536.6771" y2="945.2424" gradientTransform="matrix(7.3982 -4.2536 -4.2536 -7.3982 177.6261 9312.3838)">
			<stop  offset="0" style="stop-color:#00EAE6"/>
			<stop  offset="0.4675" style="stop-color:#00E8E5"/>
			<stop  offset="0.6369" style="stop-color:#00E1E2"/>
			<stop  offset="0.7578" style="stop-color:#00D5DD"/>
			<stop  offset="0.8556" style="stop-color:#00C5D6"/>
			<stop  offset="0.9384" style="stop-color:#00AFCC"/>
			<stop  offset="1" style="stop-color:#0099C3"/>
		</linearGradient>
		<path class="st16" d="M110.1,25.7c0.9,0.5,1.8,1.1,2.7,1.7c3.6,2.4,7,5.1,10.1,8.2c2.9,2.9,5.5,6.1,7.8,9.5
			c1.7,2.6,3.2,5.3,4.6,8.1l0.8-0.4c-1.3-2.8-2.9-5.6-4.6-8.2c-2.3-3.5-5-6.7-7.9-9.6c-3.1-3.1-6.5-5.9-10.2-8.3
			c-0.9-0.6-1.8-1.1-2.7-1.7L110.1,25.7z"/>
		
			<linearGradient id="SVGID_12_" gradientUnits="userSpaceOnUse" x1="733.9899" y1="944.1349" x2="734.9898" y2="944.1349" gradientTransform="matrix(-1.2515 -4.4379 -4.4379 1.2515 5171.9404 2092.6396)">
			<stop  offset="0" style="stop-color:#00EAE6"/>
			<stop  offset="0.4675" style="stop-color:#00E8E5"/>
			<stop  offset="0.6369" style="stop-color:#00E1E2"/>
			<stop  offset="0.7578" style="stop-color:#00D5DD"/>
			<stop  offset="0.8556" style="stop-color:#00C5D6"/>
			<stop  offset="0.9384" style="stop-color:#00AFCC"/>
			<stop  offset="1" style="stop-color:#0099C3"/>
		</linearGradient>
		<path class="st17" d="M39.4,31c1.4-1.1,2.8-2.2,4.3-3.2c3.2-2.1,6.6-4,10.1-5.5c3.7-1.6,7.7-2.8,11.7-3.7
			c4.2-0.9,8.5-1.3,12.9-1.3c4.2,0,8.3,0.4,12.2,1.2c0.3,0.1,0.6,0.1,0.9,0.2l0.2-0.9c-0.3-0.1-0.6-0.1-0.9-0.2
			c-4-0.8-8.2-1.2-12.4-1.2c-4.5,0-8.9,0.5-13.1,1.4c-4.1,0.9-8.1,2.1-11.9,3.8c-3.6,1.5-7,3.4-10.3,5.6c-1.5,1-3,2.1-4.4,3.2
			L39.4,31z"/>
		
			<linearGradient id="SVGID_13_" gradientUnits="userSpaceOnUse" x1="459.5248" y1="845.1405" x2="460.5267" y2="845.1405" gradientTransform="matrix(6.2075 5.75 5.75 -6.2075 -7684.8765 2636.9722)">
			<stop  offset="0" style="stop-color:#9FA3A5"/>
			<stop  offset="0.2936" style="stop-color:#C6C8C9"/>
			<stop  offset="0.5842" style="stop-color:#E5E6E7"/>
			<stop  offset="0.8296" style="stop-color:#F8F8F9"/>
			<stop  offset="1" style="stop-color:#FFFFFF"/>
		</linearGradient>
		<path class="st18" d="M34.3,35.6c1.6-1.6,3.4-3.2,5.2-4.6l-0.6-0.7c-1.8,1.5-3.6,3-5.2,4.7c-3.1,3.1-5.8,6.5-8.2,10.1l0.8,0.5
			C28.5,41.9,31.3,38.6,34.3,35.6z"/>
		<circle class="st6" cx="92" cy="133.4" r="2.6"/>
		<circle class="st6" cx="65.8" cy="26.3" r="2.6"/>
		<circle class="st6" cx="24.4" cy="70.1" r="2.6"/>
		<circle class="st6" cx="38.8" cy="118" r="2.6"/>
		<circle class="st6" cx="132" cy="92.5" r="2.6"/>
		<circle class="st6" cx="119.2" cy="43.1" r="2.6"/>
		
			<linearGradient id="SVGID_14_" gradientUnits="userSpaceOnUse" x1="555.0133" y1="843.7037" x2="556.0133" y2="843.7037" gradientTransform="matrix(57.9976 57.9976 57.9976 -57.9976 -81072.7969 16794.0742)">
			<stop  offset="0" style="stop-color:#00E7EB"/>
			<stop  offset="0.2396" style="stop-color:#00D9E4"/>
			<stop  offset="0.6872" style="stop-color:#00B6D2"/>
			<stop  offset="1" style="stop-color:#0099C3"/>
		</linearGradient>
		<path class="st19" d="M112.9,102.2c1.5-2.3,2.7-4.7,3.7-7.2c0.9-2.4,1.7-4.8,2.1-7.2c0.5-2.6,0.8-5.3,0.8-8c0-2.8-0.3-5.7-0.9-8.4
			c-0.5-2.6-1.4-5.2-2.4-7.7c-1-2.3-2.2-4.5-3.6-6.6c-0.3-0.5-0.7-1-1-1.5c-0.1-0.1-0.2-0.3-0.3-0.4c-0.3-0.3-0.5-0.7-0.8-1
			c-0.1-0.2-0.2-0.3-0.4-0.5c-0.3-0.4-0.7-0.8-1.1-1.2l-0.1-0.1c-0.4-0.5-0.9-1-1.4-1.5c-0.5-0.5-1-1-1.5-1.5l0,0l0,0l0,0l-0.1-0.1
			c-0.4-0.4-0.9-0.8-1.3-1.1c-0.2-0.1-0.3-0.3-0.5-0.4c-0.4-0.3-0.7-0.6-1.1-0.8c-0.2-0.1-0.3-0.2-0.5-0.3c-0.5-0.4-1-0.7-1.5-1.1
			c-2.3-1.5-4.7-2.7-7.2-3.7c-2.4-0.9-4.8-1.7-7.2-2.1c-2.6-0.5-5.3-0.8-8-0.8c-2.8,0-5.7,0.3-8.4,0.9c-2.6,0.5-5.2,1.4-7.7,2.4
			c-2.3,1-4.5,2.2-6.6,3.6c-2.2,1.5-4.3,3.2-6.2,5.1c-2,2-3.8,4.3-5.4,6.6c-1.5,2.3-2.7,4.7-3.7,7.2c-0.9,2.4-1.7,4.8-2.1,7.2
			c-0.5,2.6-0.8,5.3-0.8,8c0,2.8,0.3,5.7,0.9,8.4c0.5,2.6,1.4,5.2,2.4,7.7c1,2.3,2.2,4.5,3.6,6.6c0.3,0.5,0.7,1,1,1.5
			c0.1,0.1,0.2,0.3,0.3,0.4c0.3,0.3,0.5,0.7,0.8,1c0.1,0.2,0.2,0.3,0.4,0.5c0.3,0.4,0.7,0.8,1.1,1.2c0.5,0.5,1,1.1,1.5,1.6
			c2,2,4.3,3.8,6.6,5.4c2.3,1.5,4.7,2.7,7.2,3.7c2.4,0.9,4.8,1.7,7.2,2.1c2.6,0.5,5.3,0.8,8,0.8c2.8,0,5.7-0.3,8.4-0.9
			c2.6-0.5,5.2-1.4,7.7-2.4c2.3-1,4.5-2.2,6.6-3.6c2.2-1.5,4.3-3.2,6.2-5.1C109.6,106.8,111.4,104.6,112.9,102.2z M111.9,56
			c-0.1-0.1-0.1-0.2-0.2-0.3C111.8,55.8,111.9,55.9,111.9,56z M111.1,55c-0.2-0.2-0.4-0.5-0.6-0.7C110.8,54.5,111,54.7,111.1,55z
			 M110.1,53.6c-0.3-0.4-0.7-0.8-1-1.2C109.4,52.8,109.8,53.2,110.1,53.6z M105.9,49.2c-0.4-0.4-0.8-0.7-1.3-1.1
			C105,48.5,105.4,48.9,105.9,49.2z M104,47.7c-0.3-0.2-0.5-0.4-0.8-0.6C103.4,47.3,103.7,47.5,104,47.7z M102.4,46.5
			c-0.1-0.1-0.2-0.1-0.3-0.2C102.2,46.3,102.3,46.4,102.4,46.5z M45.2,103.6c0.1,0.1,0.1,0.2,0.2,0.3
			C45.3,103.8,45.2,103.7,45.2,103.6z M45.9,104.7c0.2,0.2,0.4,0.5,0.6,0.7C46.3,105.2,46.1,104.9,45.9,104.7z M47,106
			c0.3,0.4,0.7,0.8,1,1.2C47.7,106.8,47.3,106.4,47,106z"/>
		<path class="st2" d="M117.8,71.6c-0.5-2.6-1.4-5.1-2.4-7.5c-1-2.3-2.2-4.4-3.5-6.5c-1.5-2.2-3.1-4.2-5-6.1c-2-2-4.1-3.7-6.5-5.2
			c-2.2-1.4-4.5-2.7-7-3.6c-2.3-0.9-4.6-1.6-7.1-2.1c-0.6-0.1-1.1-0.2-1.7-0.3c-0.2,0-0.4-0.1-0.5-0.1c-0.4-0.1-0.8-0.1-1.3-0.2
			c-0.2,0-0.4,0-0.6-0.1c-0.5-0.1-1.1-0.1-1.6-0.1l-0.2,0c-0.7,0-1.3,0-2,0c-0.7,0-1.4,0-2.1,0.1h0h0h0l-0.2,0
			c-0.6,0-1.1,0.1-1.7,0.1c-0.2,0-0.4,0-0.6,0.1c-0.4,0.1-0.9,0.1-1.3,0.2c-0.2,0-0.4,0.1-0.6,0.1c-0.6,0.1-1.2,0.2-1.8,0.3
			c-2.6,0.5-5.1,1.3-7.5,2.4c-2.3,1-4.4,2.2-6.5,3.5c-2.2,1.5-4.2,3.1-6.1,5c-2,2-3.7,4.1-5.2,6.5c-1.4,2.2-2.7,4.5-3.6,7
			c-0.9,2.3-1.6,4.6-2.1,7.1c-0.5,2.5-0.8,5.2-0.8,7.8c0,2.8,0.3,5.6,0.9,8.3c0.5,2.6,1.4,5.1,2.4,7.5c1,2.3,2.2,4.4,3.5,6.5
			c1.5,2.2,3.1,4.2,5,6.1c2,2,4.1,3.7,6.5,5.2c2.2,1.4,4.5,2.7,7,3.6c2.3,0.9,4.6,1.6,7.1,2.1c0.6,0.1,1.1,0.2,1.7,0.3
			c0.2,0,0.4,0.1,0.5,0.1c0.4,0.1,0.8,0.1,1.3,0.2c0.2,0,0.4,0,0.6,0.1c0.5,0.1,1.1,0.1,1.6,0.1c0.7,0,1.4,0.1,2.2,0.1
			c2.8,0,5.6-0.3,8.3-0.9c2.6-0.5,5.1-1.3,7.5-2.4c2.3-1,4.4-2.2,6.5-3.5c2.2-1.5,4.2-3.1,6.1-5c2-2,3.7-4.1,5.2-6.5
			c1.4-2.2,2.7-4.5,3.6-7c0.9-2.3,1.6-4.6,2.1-7.1c0.5-2.5,0.8-5.2,0.8-7.8C118.7,77,118.4,74.2,117.8,71.6z M85.2,40.3
			c-0.1,0-0.2,0-0.4-0.1C84.9,40.2,85.1,40.2,85.2,40.3z M83.9,40.1C83.6,40,83.3,40,83,40C83.3,40,83.6,40,83.9,40.1z M82.2,39.9
			c-0.5,0-1-0.1-1.5-0.1C81.2,39.8,81.7,39.8,82.2,39.9z M73.9,40c-0.3,0-0.6,0.1-1,0.1C73.2,40.1,73.5,40,73.9,40z M71.9,40.3
			c-0.1,0-0.2,0-0.4,0.1C71.7,40.3,71.8,40.3,71.9,40.3z M71.9,119.4c0.1,0,0.2,0,0.4,0.1C72.2,119.4,72,119.4,71.9,119.4z
			 M73.2,119.6c0.3,0,0.6,0.1,0.9,0.1C73.8,119.7,73.5,119.6,73.2,119.6z M74.8,119.8c0.5,0,1,0.1,1.5,0.1
			C75.9,119.9,75.4,119.8,74.8,119.8z"/>
	</g>
</g>
<text transform="matrix(0.693 0 0 1 47.1854 97.3877)" class="st20 st21 st22">100</text>
</svg>
