<?xml version="1.0" encoding="utf-8"?>
<!-- Generator: Adobe Illustrator 21.1.0, SVG Export Plug-In . SVG Version: 6.00 Build 0)  -->
<svg version="1.1" id="Layer_1" xmlns="http://www.w3.org/2000/svg" xmlns:xlink="http://www.w3.org/1999/xlink" x="0px" y="0px"
	 viewBox="0 0 186 188" style="enable-background:new 0 0 186 188;" xml:space="preserve">
<style type="text/css">
	.st0{fill:#C80E2D;}
	.st1{fill:#F7FAF6;}
	.st2{fill:#E31A3C;}
	.st3{fill:#81FF9D;}
	.st4{fill:url(#SVGID_1_);}
	.st5{fill:#E2ECE6;}
	.st6{fill:#F8FAF8;}
	.st7{fill:url(#SVGID_2_);}
	.st8{fill:url(#SVGID_3_);}
	.st9{fill:url(#SVGID_4_);}
	.st10{fill:url(#SVGID_5_);}
	.st11{fill:url(#SVGID_6_);}
	.st12{fill:url(#SVGID_7_);}
	.st13{fill:url(#SVGID_8_);}
	.st14{fill:url(#SVGID_9_);}
	.st15{fill:url(#SVGID_10_);}
	.st16{fill:url(#SVGID_11_);}
	.st17{fill:url(#SVGID_12_);}
	.st18{fill:url(#SVGID_13_);}
	.st19{fill:url(#SVGID_14_);}
	.st20{fill:#FFFFFF;}
	.st21{font-family:'Charter-BoldItalic';}
	.st22{font-size:67.7283px;}
</style>
<g>
	<g>
		<g>
			<path class="st0" d="M139.1,88.9c-0.7-3.2-1.6-6.2-2.9-9.1c-1.2-2.8-2.6-5.4-4.3-7.9c-1.8-2.7-3.8-5.1-6.1-7.4
				c-2.4-2.4-5-4.5-7.8-6.3c-2.7-1.7-5.5-3.2-8.5-4.4c-2.7-1.1-5.6-2-8.6-2.6c-0.7-0.1-1.4-0.3-2.1-0.4c-0.2,0-0.4-0.1-0.6-0.1
				c-0.5-0.1-1-0.1-1.5-0.2c-0.2,0-0.5-0.1-0.7-0.1c-0.6-0.1-1.3-0.1-1.9-0.1l-0.2,0c-0.8,0-1.6-0.1-2.4-0.1c-0.8,0-1.7,0-2.5,0.1h0
				h0h0l-0.2,0c-0.7,0-1.4,0.1-2.1,0.2c-0.2,0-0.5,0.1-0.7,0.1c-0.5,0.1-1.1,0.1-1.6,0.2c-0.2,0-0.5,0.1-0.7,0.1
				c-0.7,0.1-1.5,0.3-2.2,0.4c-3.2,0.7-6.2,1.6-9.1,2.9c-2.8,1.2-5.4,2.6-7.9,4.3c-2.7,1.8-5.1,3.8-7.4,6.1c-2.4,2.4-4.5,5-6.3,7.8
				c-1.7,2.7-3.2,5.5-4.4,8.5c-1.1,2.7-2,5.6-2.6,8.6c-0.6,3.1-0.9,6.2-0.9,9.5c0,3.4,0.4,6.8,1,10c0.7,3.2,1.6,6.2,2.9,9.1
				c1.2,2.8,2.6,5.4,4.3,7.9c1.8,2.7,3.8,5.1,6.1,7.4c2.4,2.4,5,4.5,7.8,6.3c2.7,1.7,5.5,3.2,8.5,4.4c2.7,1.1,5.6,2,8.6,2.6
				c0.7,0.1,1.4,0.3,2.1,0.4c0.2,0,0.4,0.1,0.6,0.1c0.5,0.1,1,0.1,1.5,0.2c0.2,0,0.5,0.1,0.7,0.1c0.6,0.1,1.3,0.1,1.9,0.1
				c0.9,0,1.7,0.1,2.6,0.1c3.4,0,6.8-0.4,10-1c3.2-0.7,6.2-1.6,9.1-2.9c2.8-1.2,5.4-2.6,7.9-4.3c2.7-1.8,5.1-3.8,7.4-6.1
				c2.4-2.4,4.5-5,6.3-7.8c1.7-2.7,3.2-5.5,4.4-8.5c1.1-2.7,2-5.6,2.6-8.6c0.6-3.1,0.9-6.2,0.9-9.5
				C140.1,95.5,139.7,92.1,139.1,88.9z M99.5,51c-0.1,0-0.3-0.1-0.4-0.1C99.3,51,99.4,51,99.5,51z M98,50.8c-0.4,0-0.7-0.1-1.1-0.1
				C97.3,50.7,97.6,50.7,98,50.8z M96,50.5c-0.6-0.1-1.2-0.1-1.8-0.1C94.8,50.4,95.4,50.5,96,50.5z M88.8,50.4c-0.7,0-1.3,0.1-2,0.2
				C87.4,50.5,88.1,50.4,88.8,50.4z M85.8,50.7c-0.4,0-0.8,0.1-1.2,0.2C85.1,50.8,85.4,50.7,85.8,50.7z M83.5,51
				c-0.2,0-0.3,0.1-0.4,0.1C83.2,51.1,83.3,51,83.5,51z M83.5,146.8c0.1,0,0.3,0.1,0.4,0.1C83.8,146.9,83.6,146.9,83.5,146.8z
				 M85,147.1c0.4,0,0.7,0.1,1.1,0.1C85.8,147.2,85.4,147.1,85,147.1z M87,147.3c0.6,0.1,1.2,0.1,1.8,0.1
				C88.3,147.4,87.6,147.4,87,147.3z"/>
			<path class="st1" d="M44.3,119.1c-1.3-3.1-2.3-6.3-3-9.6c-0.3-1.4-0.5-2.8-0.7-4.2l-12.1,1.5c0.2,1.8,0.5,3.5,0.9,5.2
				c0.9,4.1,2.1,8.1,3.8,11.9c0.3,0.7,0.6,1.4,0.9,2.1l11-5.2C44.8,120.2,44.6,119.7,44.3,119.1z"/>
			<path class="st1" d="M144.6,133.7l-10.2-6.7c-1.9,2.9-4.2,5.7-6.6,8.2c-1.3,1.3-2.8,2.6-4.2,3.8l7.6,9.5c1.8-1.5,3.6-3,5.2-4.7
				C139.5,140.8,142.2,137.4,144.6,133.7z"/>
			<path class="st1" d="M72.4,146.6c-2.3-0.9-4.6-2-6.8-3.3l-6.1,10.5c2.7,1.6,5.5,2.9,8.4,4.1c3.3,1.3,6.7,2.4,10.3,3.1l2.6-11.9
				C77.9,148.5,75.1,147.6,72.4,146.6z"/>
			<path class="st1" d="M138.7,78.7c1.3,3.1,2.3,6.3,3,9.6c0.3,1.4,0.5,2.8,0.7,4.2l12.1-1.5c-0.2-1.8-0.5-3.5-0.9-5.2
				c-0.9-4.1-2.1-8.1-3.8-11.9c-0.3-0.7-0.6-1.4-1-2.1l-11,5.2C138.2,77.6,138.5,78.2,138.7,78.7z"/>
			<path class="st1" d="M110.6,51.3c2.3,0.9,4.6,2,6.7,3.3l6.1-10.5c-2.7-1.6-5.5-2.9-8.4-4.1c-3.3-1.3-6.7-2.4-10.3-3.1l-2.6,11.9
				C105.2,49.4,107.9,50.2,110.6,51.3z"/>
			<path class="st2" d="M154.5,91l-12.1,1.5v0c-0.2-1.4-0.4-2.8-0.7-4.2c-0.7-3.3-1.7-6.6-3-9.6c-0.2-0.6-0.5-1.1-0.8-1.7l0,0
				l11-5.2c-1.3-2.8-2.9-5.6-4.6-8.2c-2.3-3.5-5-6.7-7.9-9.6c-3.1-3.1-6.5-5.9-10.2-8.3c-0.9-0.6-1.8-1.1-2.7-1.7l-6.1,10.5l0,0
				c-2.2-1.3-4.4-2.4-6.8-3.3c-2.7-1.1-5.4-1.9-8.3-2.5l2.6-11.9c-0.3-0.1-0.6-0.1-0.9-0.2c-4-0.8-8.2-1.2-12.4-1.2
				c-4.5,0-8.9,0.5-13.1,1.4c-4.1,0.9-8.1,2.1-11.9,3.8c-3.6,1.5-7,3.4-10.3,5.6c-1.5,1-3,2.1-4.4,3.2l7.6,9.5
				c-1.5,1.2-2.9,2.4-4.2,3.8c-2.5,2.5-4.8,5.3-6.7,8.3l0.1-0.1l-10.2-6.7l-0.1,0.1c-2.3,3.5-4.2,7.2-5.8,11.1
				c-1.4,3.6-2.6,7.3-3.3,11.2c-0.8,4-1.2,8.2-1.2,12.4c0,2.7,0.2,5.3,0.5,7.9l12.1-1.5l0,0c0.2,1.4,0.4,2.8,0.7,4.2
				c0.7,3.3,1.7,6.6,3,9.6c0.2,0.6,0.5,1.1,0.8,1.7L34,126c1.3,2.8,2.9,5.6,4.6,8.2c2.3,3.5,5,6.7,7.9,9.6c3.1,3.1,6.5,5.9,10.2,8.3
				c0.9,0.6,1.8,1.1,2.7,1.7l6.1-10.5v0c2.2,1.3,4.4,2.4,6.8,3.3c2.9,1.2,5.9,2.1,9.1,2.7c-0.3-0.1-0.5-0.1-0.8-0.2L78.2,161
				c0.3,0.1,0.6,0.1,0.9,0.2c4,0.8,8.2,1.2,12.4,1.2c4.5,0,8.9-0.5,13.1-1.4c4.1-0.9,8.1-2.1,11.9-3.8c3.6-1.5,7-3.4,10.3-5.6
				c1.5-1,3-2.1,4.4-3.2l-7.6-9.5c1.5-1.2,2.9-2.4,4.2-3.8c2.5-2.5,4.7-5.2,6.6-8.2l10.2,6.7l0.1-0.1c2.3-3.5,4.2-7.2,5.8-11.1
				c1.4-3.6,2.6-7.3,3.3-11.2c0.8-4,1.2-8.2,1.2-12.4C155,96.2,154.9,93.6,154.5,91z M137.2,75.6c-0.1-0.2-0.2-0.4-0.3-0.5
				C137.1,75.3,137.2,75.5,137.2,75.6z M135.3,72.2c-0.4-0.6-0.7-1.2-1.1-1.8C134.6,71,135,71.6,135.3,72.2z M136.3,73.9
				c-0.2-0.3-0.3-0.6-0.5-0.9C136,73.3,136.2,73.6,136.3,73.9z M63,56.2c-0.6,0.4-1.2,0.8-1.8,1.3C61.8,57.1,62.4,56.6,63,56.2z
				 M40.4,103.6l0,0.2L40.4,103.6z M40.2,100.4c0,0.1,0,0.2,0,0.4C40.2,100.7,40.2,100.6,40.2,100.4z M40.3,102c0,0.1,0,0.2,0,0.4
				C40.3,102.2,40.3,102.1,40.3,102z M45.8,122.2c0.1,0.2,0.2,0.4,0.3,0.5C46,122.6,45.9,122.4,45.8,122.2z M47.7,125.6
				c0.4,0.6,0.7,1.2,1.1,1.8C48.4,126.8,48.1,126.2,47.7,125.6z M46.7,123.9c0.2,0.3,0.3,0.6,0.5,0.9
				C47,124.5,46.8,124.2,46.7,123.9z M120,141.6c0.6-0.4,1.2-0.8,1.8-1.3C121.2,140.8,120.6,141.2,120,141.6z M128.9,123.3
				c-1.7,2.6-3.6,5-5.8,7.2c-2.1,2.1-4.3,3.9-6.8,5.6c-2.3,1.5-4.7,2.8-7.2,3.9c-2.7,1.1-5.5,2-8.4,2.6c-3,0.6-6,1-9.2,1
				c-3,0-5.9-0.3-8.7-0.9c-2.7-0.5-5.3-1.3-7.9-2.3c-2.7-1.1-5.3-2.5-7.8-4.1c-2.6-1.7-5-3.6-7.2-5.8c-2.1-2.1-3.9-4.3-5.6-6.8
				c-1.5-2.3-2.8-4.7-3.9-7.2c-1.1-2.7-2-5.5-2.6-8.4c-0.6-3-1-6-1-9.2c0-3,0.3-5.9,0.9-8.7c0.5-2.7,1.3-5.3,2.3-7.9
				c1.1-2.7,2.5-5.3,4.1-7.8c1.7-2.6,3.6-5,5.8-7.2c2.1-2.1,4.3-3.9,6.8-5.6c2.3-1.5,4.7-2.8,7.2-3.9c2.7-1.1,5.5-2,8.4-2.6
				c3-0.6,6-1,9.2-1c3,0,5.9,0.3,8.7,0.9c2.7,0.5,5.3,1.3,7.9,2.3c2.7,1.1,5.3,2.5,7.8,4.1c2.6,1.7,5,3.6,7.2,5.8
				c2.1,2.1,3.9,4.3,5.6,6.8c1.5,2.3,2.8,4.7,3.9,7.2c1.1,2.7,2,5.5,2.6,8.4c0.6,3,1,6,1,9.2c0,3-0.3,5.9-0.9,8.7
				c-0.5,2.7-1.3,5.3-2.3,7.9C131.8,118.2,130.5,120.8,128.9,123.3z M142.6,94l0,0.2L142.6,94z M142.7,95.5c0,0.1,0,0.2,0,0.3
				C142.7,95.7,142.7,95.6,142.7,95.5z M142.8,97c0,0.1,0,0.2,0,0.4C142.8,97.3,142.8,97.2,142.8,97z"/>
			<path class="st1" d="M55.2,62.6c1.3-1.3,2.8-2.6,4.2-3.8l-7.6-9.5c-1.8,1.5-3.6,3-5.2,4.7c-3.1,3.1-5.8,6.5-8.2,10.1l10.2,6.7
				C50.5,67.8,52.7,65.1,55.2,62.6z"/>
			<path class="st3" d="M131.6,90.5c-0.6-2.7-1.4-5.2-2.4-7.7c-1-2.3-2.2-4.5-3.6-6.6c-1.5-2.2-3.2-4.3-5.1-6.2
				c-2-2-4.2-3.8-6.6-5.3c-2.2-1.5-4.6-2.7-7.1-3.7c-2.3-0.9-4.7-1.7-7.2-2.2c-2.6-0.5-5.3-0.8-8-0.8c-2.9,0-5.7,0.3-8.5,0.9
				c-2.7,0.6-5.2,1.4-7.7,2.4c-2.3,1-4.5,2.2-6.6,3.6c-2.2,1.5-4.3,3.2-6.2,5.1c-2,2-3.8,4.2-5.3,6.6c-1.5,2.2-2.7,4.6-3.7,7.1
				c-0.9,2.3-1.7,4.7-2.2,7.2c-0.5,2.6-0.8,5.3-0.8,8c0,2.9,0.3,5.7,0.9,8.5c0.6,2.7,1.4,5.2,2.4,7.7c1,2.3,2.2,4.5,3.6,6.6
				c1.5,2.2,3.2,4.3,5.1,6.2c2,2,4.2,3.8,6.6,5.3c2.2,1.5,4.6,2.7,7.1,3.7c2.3,0.9,4.7,1.7,7.2,2.2c2,0.4,4,0.6,6,0.7
				c-2-0.1-4-0.3-5.9-0.7c-2.5-0.5-4.9-1.2-7.1-2.1c-2.5-1-4.8-2.2-7.1-3.7c-2.4-1.5-4.5-3.3-6.5-5.3c-1.9-1.9-3.6-3.9-5.1-6.2
				c-1.4-2.1-2.6-4.2-3.6-6.5c-1-2.4-1.8-5-2.4-7.6c-0.6-2.7-0.9-5.5-0.9-8.4c0-2.7,0.3-5.4,0.8-7.9c0.5-2.5,1.2-4.9,2.1-7.1
				c1-2.5,2.2-4.8,3.7-7.1c1.5-2.4,3.3-4.5,5.3-6.5c1.9-1.9,3.9-3.6,6.2-5c2.1-1.4,4.2-2.6,6.5-3.6c2.4-1,5-1.8,7.6-2.4
				c2.7-0.6,5.5-0.9,8.4-0.9c2.7,0,5.4,0.3,7.9,0.8c2.5,0.5,4.9,1.2,7.1,2.1c2.5,1,4.8,2.2,7.1,3.7c2.4,1.5,4.5,3.3,6.5,5.3
				c1.9,1.9,3.6,3.9,5,6.2c1.4,2.1,2.6,4.2,3.6,6.5c1,2.4,1.8,5,2.4,7.6c0.6,2.7,0.9,5.5,0.9,8.4c0,2.7-0.3,5.4-0.8,7.9
				c-0.5,2.5-1.2,4.9-2.1,7.1c-1,2.5-2.2,4.8-3.7,7.1c-1.5,2.4-3.3,4.5-5.3,6.5c-1.9,1.9-3.9,3.6-6.2,5c-2.1,1.4-4.2,2.6-6.5,3.6
				c-2.4,1-5,1.8-7.6,2.4c-2.7,0.6-5.5,0.9-8.4,0.9c2.9,0,5.7-0.3,8.5-0.9c2.7-0.6,5.2-1.4,7.7-2.4c2.3-1,4.5-2.2,6.6-3.6
				c2.2-1.5,4.3-3.2,6.2-5.1c2-2,3.8-4.2,5.3-6.6c1.5-2.2,2.7-4.6,3.7-7.1c0.9-2.3,1.7-4.7,2.2-7.2c0.5-2.6,0.8-5.3,0.8-8
				C132.5,96,132.2,93.2,131.6,90.5z"/>
			
				<linearGradient id="SVGID_1_" gradientUnits="userSpaceOnUse" x1="-280.9724" y1="320.7859" x2="-279.9724" y2="320.7859" gradientTransform="matrix(-64.2086 -64.2086 -64.2086 64.2086 2680.0815 -38506.9414)">
				<stop  offset="0" style="stop-color:#FC005C"/>
				<stop  offset="0.3338" style="stop-color:#EE0450"/>
				<stop  offset="0.9578" style="stop-color:#CB0D2F"/>
				<stop  offset="1" style="stop-color:#C80E2D"/>
			</linearGradient>
			<path class="st4" d="M53.5,74.1c-1.6,2.5-3,5.2-4.1,7.9c-1,2.6-1.8,5.3-2.4,8c-0.6,2.9-0.9,5.9-0.9,8.9c0,3.1,0.3,6.3,1,9.4
				c0.6,2.9,1.5,5.7,2.7,8.5c1.1,2.5,2.4,5,4,7.3c1.6,2.4,3.5,4.8,5.7,6.9c2.3,2.3,4.7,4.2,7.3,5.9c2.5,1.6,5.2,3,7.9,4.1
				c2.6,1,5.3,1.8,8,2.4c2.9,0.6,5.9,0.9,8.9,0.9c3.1,0,6.3-0.3,9.4-1c2.9-0.6,5.8-1.5,8.5-2.7c2.5-1.1,5-2.4,7.3-4
				c2.4-1.6,4.8-3.5,6.9-5.7c2.3-2.3,4.2-4.7,5.9-7.3c1.6-2.5,3-5.2,4.1-7.9c1-2.6,1.8-5.3,2.4-8c0.6-2.9,0.9-5.9,0.9-8.9
				c0-3.1-0.3-6.3-1-9.4c-0.6-2.9-1.5-5.7-2.7-8.5c-1.1-2.5-2.4-5-4-7.3c-1.6-2.4-3.5-4.7-5.7-6.9c-2.3-2.3-4.7-4.2-7.3-5.9
				c-2.5-1.6-5.2-3-7.9-4.1c-2.6-1-5.3-1.8-8-2.4c-2.9-0.6-5.9-0.9-8.9-0.9c-3.1,0-6.3,0.3-9.4,1c-2.9,0.6-5.7,1.5-8.5,2.7
				c-2.5,1.1-5,2.4-7.3,4c-2.4,1.6-4.7,3.5-6.9,5.7C57.1,69.1,55.2,71.5,53.5,74.1z M75.1,60.6c2.5-1.1,5.2-1.9,7.8-2.5
				c2.8-0.6,5.7-0.9,8.6-0.9c2.7,0,5.5,0.3,8.2,0.8c2.5,0.5,5,1.2,7.4,2.2c2.5,1,5,2.3,7.3,3.8c2.4,1.6,4.6,3.4,6.7,5.4
				c2,2,3.7,4.1,5.2,6.3c1.4,2.2,2.7,4.4,3.6,6.8c1.1,2.5,1.9,5.2,2.5,7.8c0.6,2.8,0.9,5.7,0.9,8.6c0,2.7-0.3,5.5-0.8,8.2
				c-0.5,2.5-1.2,5-2.2,7.4c-1,2.5-2.3,5-3.8,7.3c-1.5,2.4-3.4,4.6-5.4,6.7c-2,2-4.1,3.7-6.3,5.2c-2.2,1.4-4.4,2.7-6.8,3.6
				c-2.5,1.1-5.2,1.9-7.8,2.5c-2.8,0.6-5.7,0.9-8.6,0.9c-2.7,0-5.5-0.3-8.2-0.8c-2.5-0.5-5-1.2-7.4-2.2c-2.5-1-5-2.3-7.3-3.8
				c-2.4-1.6-4.6-3.4-6.7-5.4c-2-2-3.7-4.1-5.2-6.3c-1.4-2.2-2.7-4.4-3.6-6.8c-1.1-2.5-1.9-5.2-2.5-7.8c-0.6-2.8-0.9-5.7-0.9-8.6
				c0-2.7,0.3-5.5,0.8-8.2c0.5-2.5,1.2-5,2.2-7.4c1-2.5,2.3-5,3.8-7.3c1.6-2.4,3.4-4.6,5.4-6.7c2-2,4.1-3.7,6.3-5.2
				C70.5,62.8,72.8,61.6,75.1,60.6z"/>
			<path class="st0" d="M125.6,76.2l3-2c-1.6-2.4-3.5-4.7-5.6-6.8l-2.5,2.5C122.4,71.8,124.1,73.9,125.6,76.2z"/>
			<path class="st5" d="M129.2,82.8l3.3-1.4c-1.1-2.5-2.4-4.9-3.9-7.2l-3,2C127,78.2,128.2,80.5,129.2,82.8z"/>
			<path class="st0" d="M131.6,90.5l3.5-0.7c-0.6-2.9-1.5-5.7-2.6-8.4l-3.3,1.4C130.3,85.2,131.1,87.8,131.6,90.5z"/>
			<path class="st5" d="M120.5,127.9l2.5,2.5c2.2-2.2,4.1-4.6,5.8-7.2l-3-2C124.3,123.7,122.5,125.9,120.5,127.9z"/>
			<path class="st5" d="M53.5,83.7l-3.3-1.3c-1,2.5-1.8,5.1-2.3,7.9l3.5,0.7C51.8,88.4,52.5,86,53.5,83.7z"/>
			<path class="st0" d="M51.4,107.4l-3.5,0.7c0.6,2.9,1.5,5.7,2.6,8.4l3.3-1.4C52.8,112.6,51.9,110,51.4,107.4z"/>
			<path class="st0" d="M51.3,90.9l-3.5-0.7c-0.6,2.8-0.9,5.7-0.9,8.7h3.6C50.5,96.2,50.8,93.5,51.3,90.9z"/>
			<path class="st5" d="M50.5,98.9h-3.6c0,3.2,0.3,6.2,1,9.2l3.5-0.7C50.8,104.6,50.5,101.8,50.5,98.9z"/>
			<path class="st5" d="M53.8,115.1l-3.3,1.4c1.1,2.5,2.4,4.9,3.9,7.2l3-2C56,119.6,54.8,117.4,53.8,115.1z"/>
			<path class="st5" d="M62.5,127.9l-2.5,2.5c2.2,2.2,4.6,4.1,7.2,5.8l2-3C66.7,131.7,64.5,129.9,62.5,127.9z"/>
			<path class="st0" d="M57.4,121.7l-3,2c1.6,2.4,3.5,4.7,5.6,6.8l2.5-2.5C60.6,126,58.9,123.9,57.4,121.7z"/>
			<path class="st0" d="M69.1,133.2l-2,3c2.4,1.6,5,3,7.8,4.1l1.3-3.3C73.8,136,71.4,134.7,69.1,133.2z"/>
			<path class="st0" d="M57.2,76.5l-3-2c-1.6,2.4-3,5-4.1,7.8l3.3,1.3C54.5,81.2,55.7,78.8,57.2,76.5z"/>
			<path class="st5" d="M91.5,57.9v-3.6c-3.2,0-6.2,0.3-9.2,1l0.7,3.5C85.8,58.2,88.6,57.9,91.5,57.9z"/>
			<path class="st5" d="M75.4,61.2L74,57.9c-2.5,1.1-4.9,2.4-7.2,3.9l2,3C70.8,63.4,73.1,62.2,75.4,61.2z"/>
			<path class="st0" d="M83.1,58.8l-0.7-3.5c-2.9,0.6-5.7,1.5-8.4,2.6l1.4,3.3C77.8,60.2,80.4,59.3,83.1,58.8z"/>
			<path class="st5" d="M62.5,69.9L60,67.4c-2.2,2.2-4.1,4.6-5.8,7.2l3,2C58.7,74.2,60.5,71.9,62.5,69.9z"/>
			<path class="st0" d="M68.8,64.8l-2-3c-2.4,1.6-4.7,3.5-6.8,5.6l2.5,2.5C64.4,68,66.5,66.3,68.8,64.8z"/>
			<path class="st5" d="M131.6,90.5c0.6,2.7,0.9,5.6,0.9,8.5h3.6c0-3.2-0.3-6.2-1-9.2L131.6,90.5z"/>
			<path class="st0" d="M131.7,106.9l3.5,0.7c0.6-2.8,0.9-5.7,0.9-8.7h-3.6C132.5,101.7,132.2,104.3,131.7,106.9z"/>
			<path class="st5" d="M120.5,69.9l2.5-2.5c-2.2-2.2-4.6-4.1-7.2-5.8l-2,3C116.3,66.1,118.5,67.9,120.5,69.9z"/>
			<path class="st5" d="M129.6,114.2l3.3,1.3c1-2.5,1.8-5.1,2.3-7.9l-3.5-0.7C131.2,109.4,130.5,111.8,129.6,114.2z"/>
			<path class="st5" d="M76.3,137l-1.3,3.3c2.5,1,5.1,1.8,7.9,2.3l0.7-3.5C81,138.6,78.6,137.9,76.3,137z"/>
			<path class="st0" d="M113.9,64.6l2-3c-2.4-1.6-5-3-7.8-4.1l-1.3,3.3C109.3,61.9,111.7,63.1,113.9,64.6z"/>
			<path class="st5" d="M106.8,60.9l1.3-3.3c-2.5-1-5.1-1.8-7.9-2.3l-0.7,3.5C102,59.2,104.4,59.9,106.8,60.9z"/>
			<path class="st0" d="M125.8,121.3l3,2c1.6-2.4,3-5,4.1-7.8l-3.3-1.3C128.6,116.7,127.3,119.1,125.8,121.3z"/>
			<path class="st5" d="M91.5,139.9v3.6c3.2,0,6.2-0.3,9.2-1L100,139C97.2,139.6,94.4,139.9,91.5,139.9z"/>
			<path class="st0" d="M99.5,58.7l0.7-3.5c-2.8-0.6-5.7-0.9-8.7-0.9v3.6C94.3,57.9,96.9,58.2,99.5,58.7z"/>
			<path class="st0" d="M83.5,139.1l-0.7,3.5c2.8,0.6,5.7,0.9,8.7,0.9v-3.6C88.8,139.9,86.1,139.7,83.5,139.1z"/>
			<path class="st0" d="M100,139l0.7,3.5c2.9-0.6,5.7-1.5,8.4-2.6l-1.4-3.3C105.2,137.7,102.6,138.5,100,139z"/>
			<path class="st5" d="M107.6,136.6l1.4,3.3c2.5-1.1,4.9-2.4,7.2-3.9l-2-3C112.2,134.4,110,135.6,107.6,136.6z"/>
			<path class="st0" d="M114.3,133l2,3c2.4-1.6,4.7-3.5,6.8-5.6l-2.5-2.5C118.6,129.8,116.5,131.5,114.3,133z"/>
			<path class="st0" d="M40.8,107c0,0.1,0,0.3,0.1,0.4C40.9,107.3,40.9,107.1,40.8,107z"/>
			<path class="st0" d="M127.8,135.2c2.5-2.5,4.7-5.2,6.6-8.2C132.5,130,130.3,132.7,127.8,135.2z"/>
			<path class="st0" d="M76.5,148c1.4,0.4,2.8,0.8,4.2,1.1C79.3,148.8,77.9,148.4,76.5,148z"/>
			<path class="st0" d="M74.5,147.3c0.6,0.2,1.1,0.4,1.7,0.5C75.6,147.7,75,147.5,74.5,147.3z"/>
			<path class="st0" d="M142.1,90.4l0,0.2L142.1,90.4z"/>
			<path class="st6" d="M51.7,66.5c-1.1,1.4-2.1,2.8-3.1,4.2C49.6,69.3,50.6,67.9,51.7,66.5z"/>
			<path class="st6" d="M53.4,64.5c-0.5,0.6-1.1,1.2-1.6,1.8C52.3,65.8,52.9,65.1,53.4,64.5z"/>
			
				<linearGradient id="SVGID_2_" gradientUnits="userSpaceOnUse" x1="-223.9842" y1="327.6335" x2="-222.9855" y2="327.6335" gradientTransform="matrix(3.7452 -1.1097 -1.1097 -3.7452 1231.1149 1095.6746)">
				<stop  offset="0" style="stop-color:#A9A5A6"/>
				<stop  offset="0.2641" style="stop-color:#C9C6C7"/>
				<stop  offset="0.566" style="stop-color:#E6E5E5"/>
				<stop  offset="0.8221" style="stop-color:#F8F8F8"/>
				<stop  offset="1" style="stop-color:#FFFFFF"/>
			</linearGradient>
			<path class="st7" d="M34.9,125.6c-0.3-0.7-0.6-1.4-0.9-2.1c-1.6-3.7-2.8-7.7-3.7-11.7c-0.4-1.7-0.6-3.4-0.8-5.1l-0.9,0.1
				c0.2,1.8,0.5,3.5,0.9,5.2c0.9,4.1,2.1,8.1,3.8,11.9c0.3,0.7,0.6,1.4,0.9,2.1L34.9,125.6z"/>
			
				<linearGradient id="SVGID_3_" gradientUnits="userSpaceOnUse" x1="-291.5955" y1="296.6022" x2="-290.5959" y2="296.6022" gradientTransform="matrix(-5.3902 -5.3902 -5.3902 5.3902 168.2809 -3025.9995)">
				<stop  offset="0" style="stop-color:#A9A5A6"/>
				<stop  offset="0.2641" style="stop-color:#C9C6C7"/>
				<stop  offset="0.566" style="stop-color:#E6E5E5"/>
				<stop  offset="0.8221" style="stop-color:#F8F8F8"/>
				<stop  offset="1" style="stop-color:#FFFFFF"/>
			</linearGradient>
			<path class="st8" d="M135.8,143.2c-1.6,1.6-3.4,3.2-5.2,4.6l0.6,0.7c1.8-1.5,3.6-3,5.2-4.7c3.1-3.1,5.8-6.5,8.2-10.1l-0.8-0.5
				C141.5,136.8,138.8,140.2,135.8,143.2z"/>
			
				<linearGradient id="SVGID_4_" gradientUnits="userSpaceOnUse" x1="-242.6586" y1="282.0784" x2="-241.659" y2="282.0784" gradientTransform="matrix(1.4311 -3.7061 -3.7061 -1.4311 1460.6785 -336.0396)">
				<stop  offset="0" style="stop-color:#A9A5A6"/>
				<stop  offset="0.2641" style="stop-color:#C9C6C7"/>
				<stop  offset="0.566" style="stop-color:#E6E5E5"/>
				<stop  offset="0.8221" style="stop-color:#F8F8F8"/>
				<stop  offset="1" style="stop-color:#FFFFFF"/>
			</linearGradient>
			<path class="st9" d="M68.2,157c-2.9-1.1-5.6-2.5-8.2-4l-0.5,0.8c2.7,1.6,5.5,2.9,8.4,4.1c3.3,1.3,6.7,2.4,10.3,3.1l0.2-0.9
				C74.9,159.4,71.5,158.3,68.2,157z"/>
			
				<linearGradient id="SVGID_5_" gradientUnits="userSpaceOnUse" x1="-311.3634" y1="318.3756" x2="-310.3622" y2="318.3756" gradientTransform="matrix(-6.7547 1.559 1.559 6.7547 -2443.7634 -1584.6133)">
				<stop  offset="0" style="stop-color:#A9A5A6"/>
				<stop  offset="0.2641" style="stop-color:#C9C6C7"/>
				<stop  offset="0.566" style="stop-color:#E6E5E5"/>
				<stop  offset="0.8221" style="stop-color:#F8F8F8"/>
				<stop  offset="1" style="stop-color:#FFFFFF"/>
			</linearGradient>
			<path class="st10" d="M149.1,74.3c1.6,3.7,2.8,7.7,3.7,11.7c0.4,1.7,0.6,3.4,0.8,5.1l0.9-0.1c-0.2-1.8-0.5-3.5-0.9-5.2
				c-0.9-4.1-2.1-8.1-3.8-11.9c-0.3-0.7-0.6-1.4-1-2.1l-0.8,0.4C148.5,72.9,148.8,73.6,149.1,74.3z"/>
			
				<linearGradient id="SVGID_6_" gradientUnits="userSpaceOnUse" x1="-302.054" y1="346.0448" x2="-301.0556" y2="346.0448" gradientTransform="matrix(-2.6351 6.3796 6.3796 2.6351 -2887.3579 1050.625)">
				<stop  offset="0" style="stop-color:#A9A5A6"/>
				<stop  offset="0.2641" style="stop-color:#C9C6C7"/>
				<stop  offset="0.566" style="stop-color:#E6E5E5"/>
				<stop  offset="0.8221" style="stop-color:#F8F8F8"/>
				<stop  offset="1" style="stop-color:#FFFFFF"/>
			</linearGradient>
			<path class="st11" d="M114.8,40.8c2.9,1.1,5.6,2.5,8.2,4l0.5-0.8c-2.7-1.6-5.5-2.9-8.4-4.1c-3.3-1.3-6.7-2.4-10.3-3.1l-0.2,0.9
				C108.2,38.5,111.6,39.5,114.8,40.8z"/>
			
				<linearGradient id="SVGID_7_" gradientUnits="userSpaceOnUse" x1="-304.6887" y1="301.8913" x2="-303.6889" y2="301.8913" gradientTransform="matrix(-6.3948 -2.2152 -2.2152 6.3948 -1251.3259 -2521.7871)">
				<stop  offset="0" style="stop-color:#FB0065"/>
				<stop  offset="0.5037" style="stop-color:#F90063"/>
				<stop  offset="0.6861" style="stop-color:#F3025C"/>
				<stop  offset="0.8164" style="stop-color:#E80550"/>
				<stop  offset="0.921" style="stop-color:#D90940"/>
				<stop  offset="1" style="stop-color:#C80E2D"/>
			</linearGradient>
			<path class="st12" d="M29.4,106.7c-0.3-2.6-0.5-5.2-0.5-7.8c0-4.2,0.4-8.3,1.2-12.2c0.8-3.8,1.9-7.5,3.3-11
				c1.5-3.8,3.4-7.5,5.7-10.9l0.1-0.1l-0.8-0.5l-0.1,0.1c-2.3,3.5-4.2,7.2-5.8,11.1c-1.4,3.6-2.6,7.3-3.3,11.2
				c-0.8,4-1.2,8.2-1.2,12.4c0,2.7,0.2,5.3,0.5,7.9L29.4,106.7z"/>
			
				<linearGradient id="SVGID_8_" gradientUnits="userSpaceOnUse" x1="-310.423" y1="335.5103" x2="-309.4227" y2="335.5103" gradientTransform="matrix(-4.8493 4.6142 4.6142 4.8493 -3006.3308 -55.0434)">
				<stop  offset="0" style="stop-color:#F30058"/>
				<stop  offset="0.2996" style="stop-color:#EB0350"/>
				<stop  offset="0.7561" style="stop-color:#D6093B"/>
				<stop  offset="1" style="stop-color:#C80E2D"/>
			</linearGradient>
			<path class="st13" d="M60,153c-0.9-0.5-1.8-1.1-2.7-1.7c-3.6-2.4-7-5.1-10.1-8.2c-2.9-2.9-5.5-6.1-7.8-9.5
				c-1.7-2.6-3.2-5.3-4.6-8.1L34,126c1.3,2.8,2.9,5.6,4.6,8.2c2.3,3.5,5,6.7,7.9,9.6c3.1,3.1,6.5,5.9,10.2,8.3
				c0.9,0.6,1.8,1.1,2.7,1.7L60,153z"/>
			
				<linearGradient id="SVGID_9_" gradientUnits="userSpaceOnUse" x1="-282.1337" y1="340.1054" x2="-281.1341" y2="340.1054" gradientTransform="matrix(3.1438 12.3895 12.3895 -3.1438 -3222.884 4716.3628)">
				<stop  offset="0" style="stop-color:#CF0237"/>
				<stop  offset="2.008885e-02" style="stop-color:#CD0337"/>
				<stop  offset="0.2891" style="stop-color:#BD0B32"/>
				<stop  offset="0.5923" style="stop-color:#B4102F"/>
				<stop  offset="1" style="stop-color:#B1122E"/>
			</linearGradient>
			<path class="st14" d="M130.6,147.8c-1.4,1.1-2.8,2.2-4.3,3.2c-3.2,2.1-6.6,4-10.1,5.5c-3.7,1.6-7.7,2.8-11.7,3.7
				c-4.2,0.9-8.5,1.3-12.9,1.3c-4.2,0-8.3-0.4-12.2-1.2c-0.3-0.1-0.6-0.1-0.9-0.2l-0.2,0.9c0.3,0.1,0.6,0.1,0.9,0.2
				c4,0.8,8.2,1.2,12.4,1.2c4.5,0,8.9-0.5,13.1-1.4c4.1-0.9,8.1-2.1,11.9-3.8c3.6-1.5,7-3.4,10.3-5.6c1.5-1,3-2.1,4.4-3.2
				L130.6,147.8z"/>
			
				<linearGradient id="SVGID_10_" gradientUnits="userSpaceOnUse" x1="-277.5582" y1="334.5945" x2="-276.5583" y2="334.5945" gradientTransform="matrix(10.1714 15.5348 15.5348 -10.1714 -2233.6335 7814.8037)">
				<stop  offset="0" style="stop-color:#FC1054"/>
				<stop  offset="0.5129" style="stop-color:#FA1053"/>
				<stop  offset="0.6976" style="stop-color:#F3104E"/>
				<stop  offset="0.8293" style="stop-color:#E80F45"/>
				<stop  offset="0.935" style="stop-color:#D70F38"/>
				<stop  offset="1" style="stop-color:#C80E2D"/>
			</linearGradient>
			<path class="st15" d="M154.5,91l-0.9,0.1l0,0c0.3,2.6,0.5,5.2,0.5,7.8c0,4.2-0.4,8.3-1.2,12.2c-0.8,3.8-1.9,7.5-3.3,11
				c-1.5,3.8-3.4,7.5-5.7,10.9l-0.1,0.1l0.8,0.5l0.1-0.1c2.3-3.5,4.2-7.2,5.8-11.1c1.4-3.6,2.6-7.3,3.3-11.2c0.8-4,1.2-8.2,1.2-12.4
				C155,96.2,154.9,93.6,154.5,91z"/>
			
				<linearGradient id="SVGID_11_" gradientUnits="userSpaceOnUse" x1="-254.6082" y1="319.2076" x2="-253.6083" y2="319.2076" gradientTransform="matrix(7.3982 -4.2536 -4.2536 -7.3982 3374.3777 1338.3757)">
				<stop  offset="0" style="stop-color:#FB0065"/>
				<stop  offset="0.5037" style="stop-color:#F90063"/>
				<stop  offset="0.6861" style="stop-color:#F3025C"/>
				<stop  offset="0.8164" style="stop-color:#E80550"/>
				<stop  offset="0.921" style="stop-color:#D90940"/>
				<stop  offset="1" style="stop-color:#C80E2D"/>
			</linearGradient>
			<path class="st16" d="M123,44.8c0.9,0.5,1.8,1.1,2.7,1.7c3.6,2.4,7,5.1,10.1,8.2c2.9,2.9,5.5,6.1,7.8,9.5
				c1.7,2.6,3.2,5.3,4.6,8.1l0.8-0.4c-1.3-2.8-2.9-5.6-4.6-8.2c-2.3-3.5-5-6.7-7.9-9.6c-3.1-3.1-6.5-5.9-10.2-8.3
				c-0.9-0.6-1.8-1.1-2.7-1.7L123,44.8z"/>
			
				<linearGradient id="SVGID_12_" gradientUnits="userSpaceOnUse" x1="-275.3038" y1="275.6323" x2="-274.3039" y2="275.6323" gradientTransform="matrix(-1.2515 -4.4379 -4.4379 1.2515 955.0254 -1530.7924)">
				<stop  offset="0" style="stop-color:#FB0065"/>
				<stop  offset="0.5037" style="stop-color:#F90063"/>
				<stop  offset="0.6861" style="stop-color:#F3025C"/>
				<stop  offset="0.8164" style="stop-color:#E80550"/>
				<stop  offset="0.921" style="stop-color:#D90940"/>
				<stop  offset="1" style="stop-color:#C80E2D"/>
			</linearGradient>
			<path class="st17" d="M52.4,50c1.4-1.1,2.8-2.2,4.3-3.2c3.2-2.1,6.6-4,10.1-5.5c3.7-1.6,7.7-2.8,11.7-3.7
				c4.2-0.9,8.5-1.3,12.9-1.3c4.2,0,8.3,0.4,12.2,1.2c0.3,0.1,0.6,0.1,0.9,0.2l0.2-0.9c-0.3-0.1-0.6-0.1-0.9-0.2
				c-4-0.8-8.2-1.2-12.4-1.2c-4.5,0-8.9,0.5-13.1,1.4c-4.1,0.9-8.1,2.1-11.9,3.8c-3.6,1.5-7,3.4-10.3,5.6c-1.5,1-3,2.1-4.4,3.2
				L52.4,50z"/>
			
				<linearGradient id="SVGID_13_" gradientUnits="userSpaceOnUse" x1="-268.6262" y1="346.2996" x2="-267.6239" y2="346.2996" gradientTransform="matrix(6.2075 5.75 5.75 -6.2075 -283.5816 3746.3645)">
				<stop  offset="0" style="stop-color:#A9A5A6"/>
				<stop  offset="0.2641" style="stop-color:#C9C6C7"/>
				<stop  offset="0.566" style="stop-color:#E6E5E5"/>
				<stop  offset="0.8221" style="stop-color:#F8F8F8"/>
				<stop  offset="1" style="stop-color:#FFFFFF"/>
			</linearGradient>
			<path class="st18" d="M47.2,54.7c1.6-1.6,3.4-3.2,5.2-4.6l-0.6-0.7c-1.8,1.5-3.6,3-5.2,4.7c-3.1,3.1-5.8,6.5-8.2,10.1l0.8,0.5
				C41.5,61,44.2,57.7,47.2,54.7z"/>
			<circle class="st6" cx="105" cy="152.5" r="2.6"/>
			<circle class="st6" cx="78.8" cy="45.4" r="2.6"/>
			<circle class="st6" cx="37.3" cy="89.2" r="2.6"/>
			<circle class="st6" cx="51.7" cy="137.1" r="2.6"/>
			<circle class="st6" cx="145" cy="111.6" r="2.6"/>
			<circle class="st6" cx="132.2" cy="62.2" r="2.6"/>
			
				<linearGradient id="SVGID_14_" gradientUnits="userSpaceOnUse" x1="-278.9254" y1="325.4528" x2="-277.9254" y2="325.4528" gradientTransform="matrix(57.9976 57.9976 57.9976 -57.9976 -2636.0767 35122.293)">
				<stop  offset="0" style="stop-color:#FC005C"/>
				<stop  offset="0.3338" style="stop-color:#EE0450"/>
				<stop  offset="0.9578" style="stop-color:#CB0D2F"/>
				<stop  offset="1" style="stop-color:#C80E2D"/>
			</linearGradient>
			<path class="st19" d="M125.9,121.3c1.5-2.3,2.7-4.7,3.7-7.2c0.9-2.4,1.7-4.8,2.1-7.2c0.5-2.6,0.8-5.3,0.8-8
				c0-2.8-0.3-5.7-0.9-8.4c-0.5-2.6-1.4-5.2-2.4-7.7c-1-2.3-2.2-4.5-3.6-6.6c-0.3-0.5-0.7-1-1-1.5c-0.1-0.1-0.2-0.3-0.3-0.4
				c-0.3-0.3-0.5-0.7-0.8-1c-0.1-0.2-0.2-0.3-0.4-0.5c-0.3-0.4-0.7-0.8-1.1-1.2l-0.1-0.1c-0.4-0.5-0.9-1-1.4-1.5
				c-0.5-0.5-1-1-1.5-1.5l0,0l0,0l0,0l-0.1-0.1c-0.4-0.4-0.9-0.8-1.3-1.1c-0.2-0.1-0.3-0.3-0.5-0.4c-0.4-0.3-0.7-0.6-1.1-0.8
				c-0.2-0.1-0.3-0.2-0.5-0.3c-0.5-0.4-1-0.7-1.5-1.1c-2.3-1.5-4.7-2.7-7.2-3.7c-2.4-0.9-4.8-1.7-7.2-2.1c-2.6-0.5-5.3-0.8-8-0.8
				c-2.8,0-5.7,0.3-8.4,0.9c-2.6,0.5-5.2,1.4-7.7,2.4c-2.3,1-4.5,2.2-6.6,3.6c-2.2,1.5-4.3,3.2-6.2,5.1c-2,2-3.8,4.3-5.4,6.6
				c-1.5,2.3-2.7,4.7-3.7,7.2c-0.9,2.4-1.7,4.8-2.1,7.2c-0.5,2.6-0.8,5.3-0.8,8c0,2.8,0.3,5.7,0.9,8.4c0.5,2.6,1.4,5.2,2.4,7.7
				c1,2.3,2.2,4.5,3.6,6.6c0.3,0.5,0.7,1,1,1.5c0.1,0.1,0.2,0.3,0.3,0.4c0.3,0.3,0.5,0.7,0.8,1c0.1,0.2,0.2,0.3,0.4,0.5
				c0.3,0.4,0.7,0.8,1.1,1.2c0.5,0.5,1,1.1,1.5,1.6c2,2,4.3,3.8,6.6,5.4c2.3,1.5,4.7,2.7,7.2,3.7c2.4,0.9,4.8,1.7,7.2,2.1
				c2.6,0.5,5.3,0.8,8,0.8c2.8,0,5.7-0.3,8.4-0.9c2.6-0.5,5.2-1.4,7.7-2.4c2.3-1,4.5-2.2,6.6-3.6c2.2-1.5,4.3-3.2,6.2-5.1
				C122.6,125.9,124.3,123.7,125.9,121.3z M124.9,75.1c-0.1-0.1-0.1-0.2-0.2-0.3C124.8,74.9,124.8,75,124.9,75.1z M124.1,74.1
				c-0.2-0.2-0.4-0.5-0.6-0.7C123.7,73.6,123.9,73.8,124.1,74.1z M123.1,72.7c-0.3-0.4-0.7-0.8-1-1.2
				C122.4,71.9,122.7,72.3,123.1,72.7z M118.8,68.3c-0.4-0.4-0.8-0.7-1.3-1.1C118,67.6,118.4,68,118.8,68.3z M116.9,66.7
				c-0.3-0.2-0.5-0.4-0.8-0.6C116.4,66.3,116.7,66.5,116.9,66.7z M115.3,65.5c-0.1-0.1-0.2-0.1-0.3-0.2
				C115.1,65.4,115.2,65.5,115.3,65.5z M58.1,122.7c0.1,0.1,0.1,0.2,0.2,0.3C58.3,122.9,58.2,122.8,58.1,122.7z M58.9,123.8
				c0.2,0.2,0.4,0.5,0.6,0.7C59.3,124.3,59.1,124,58.9,123.8z M60,125.1c0.3,0.4,0.7,0.8,1,1.2C60.6,125.9,60.3,125.5,60,125.1z"/>
			<path class="st2" d="M130.8,90.6c-0.5-2.6-1.4-5.1-2.4-7.5c-1-2.3-2.2-4.4-3.5-6.5c-1.5-2.2-3.1-4.2-5-6.1c-2-2-4.1-3.7-6.5-5.2
				c-2.2-1.4-4.5-2.7-7-3.6c-2.3-0.9-4.6-1.6-7.1-2.1c-0.6-0.1-1.1-0.2-1.7-0.3c-0.2,0-0.4-0.1-0.5-0.1c-0.4-0.1-0.8-0.1-1.3-0.2
				c-0.2,0-0.4,0-0.6-0.1c-0.5-0.1-1.1-0.1-1.6-0.1l-0.2,0c-0.7,0-1.3,0-2,0c-0.7,0-1.4,0-2.1,0.1h0h0h0l-0.2,0
				c-0.6,0-1.1,0.1-1.7,0.1c-0.2,0-0.4,0-0.6,0.1c-0.4,0.1-0.9,0.1-1.3,0.2c-0.2,0-0.4,0.1-0.6,0.1c-0.6,0.1-1.2,0.2-1.8,0.3
				c-2.6,0.5-5.1,1.3-7.5,2.4c-2.3,1-4.4,2.2-6.5,3.5c-2.2,1.5-4.2,3.1-6.1,5c-2,2-3.7,4.1-5.2,6.5c-1.4,2.2-2.7,4.5-3.6,7
				c-0.9,2.3-1.6,4.6-2.1,7.1c-0.5,2.5-0.8,5.2-0.8,7.8c0,2.8,0.3,5.6,0.9,8.3c0.5,2.6,1.3,5.1,2.4,7.5c1,2.3,2.2,4.4,3.5,6.5
				c1.5,2.2,3.1,4.2,5,6.1c2,2,4.1,3.7,6.5,5.2c2.2,1.4,4.5,2.7,7,3.6c2.3,0.9,4.6,1.6,7.1,2.1c0.6,0.1,1.1,0.2,1.7,0.3
				c0.2,0,0.4,0.1,0.5,0.1c0.4,0.1,0.8,0.1,1.3,0.2c0.2,0,0.4,0,0.6,0.1c0.5,0.1,1.1,0.1,1.6,0.1c0.7,0,1.4,0.1,2.2,0.1
				c2.8,0,5.6-0.3,8.3-0.9c2.6-0.5,5.1-1.3,7.5-2.4c2.3-1,4.4-2.2,6.5-3.5c2.2-1.5,4.2-3.1,6.1-5c2-2,3.7-4.1,5.2-6.5
				c1.4-2.2,2.7-4.5,3.6-7c0.9-2.3,1.6-4.6,2.1-7.1c0.5-2.5,0.8-5.2,0.8-7.8C131.6,96.1,131.3,93.3,130.8,90.6z M98.1,59.3
				c-0.1,0-0.2,0-0.4-0.1C97.9,59.3,98,59.3,98.1,59.3z M96.9,59.2c-0.3,0-0.6-0.1-0.9-0.1C96.3,59.1,96.6,59.1,96.9,59.2z M95.2,59
				c-0.5,0-1-0.1-1.5-0.1C94.2,58.9,94.7,58.9,95.2,59z M86.8,59.1c-0.3,0-0.6,0.1-1,0.1C86.2,59.1,86.5,59.1,86.8,59.1z M84.9,59.3
				c-0.1,0-0.2,0-0.4,0.1C84.6,59.4,84.8,59.4,84.9,59.3z M84.9,138.5c0.1,0,0.2,0,0.4,0.1C85.1,138.5,85,138.5,84.9,138.5z
				 M86.2,138.7c0.3,0,0.6,0.1,0.9,0.1C86.8,138.8,86.5,138.7,86.2,138.7z M87.8,138.9c0.5,0,1,0.1,1.5,0.1
				C88.8,139,88.3,138.9,87.8,138.9z"/>
		</g>
	</g>
</g>
<text transform="matrix(1.1125 0 0 1 70.124 121.3047)" class="st20 st21 st22">5</text>
</svg>
