<?xml version="1.0" encoding="utf-8"?>
<!-- Generator: Adobe Illustrator 21.1.0, SVG Export Plug-In . SVG Version: 6.00 Build 0)  -->
<svg version="1.1" id="Layer_1" xmlns="http://www.w3.org/2000/svg" xmlns:xlink="http://www.w3.org/1999/xlink" x="0px" y="0px"
	 viewBox="0 0 350 286" style="enable-background:new 0 0 350 286;" xml:space="preserve">
<style type="text/css">
	.st0{fill:#808285;}
	.st1{fill:url(#SVGID_1_);}
	.st2{fill:url(#SVGID_2_);}
	.st3{fill:url(#SVGID_3_);}
	.st4{fill:url(#SVGID_4_);}
	.st5{fill:url(#SVGID_5_);}
	.st6{fill:#F9F5C8;}
	.st7{fill:url(#SVGID_6_);}
	.st8{fill:url(#SVGID_7_);}
	.st9{fill:url(#SVGID_8_);}
	.st10{fill:url(#SVGID_9_);}
	.st11{fill:url(#SVGID_10_);}
	.st12{fill:url(#SVGID_11_);}
	.st13{fill:url(#SVGID_12_);}
	.st14{fill:url(#SVGID_13_);}
	.st15{fill:url(#SVGID_14_);}
	.st16{fill:url(#SVGID_15_);}
	.st17{fill:url(#SVGID_16_);}
	.st18{fill:url(#SVGID_17_);}
	.st19{fill:url(#SVGID_18_);}
	.st20{fill:url(#SVGID_19_);}
	.st21{fill:url(#SVGID_20_);}
	.st22{fill:url(#SVGID_21_);}
	.st23{fill:url(#SVGID_22_);}
	.st24{fill:url(#SVGID_23_);}
	.st25{fill:url(#SVGID_24_);}
	.st26{fill:url(#SVGID_25_);}
	.st27{fill:url(#SVGID_26_);}
	.st28{fill:url(#SVGID_27_);}
	.st29{fill:url(#SVGID_28_);}
	.st30{fill:url(#SVGID_29_);}
	.st31{fill:url(#SVGID_30_);}
	.st32{fill:url(#SVGID_31_);}
	.st33{fill:url(#SVGID_32_);}
	.st34{fill:url(#SVGID_33_);}
	.st35{fill:url(#SVGID_34_);}
	.st36{fill:url(#SVGID_35_);}
	.st37{fill:url(#SVGID_36_);}
	.st38{fill:url(#SVGID_37_);}
	.st39{fill:url(#SVGID_38_);}
	.st40{fill:url(#SVGID_39_);}
	.st41{fill:url(#SVGID_40_);}
	.st42{fill:url(#SVGID_41_);}
	.st43{fill:url(#SVGID_42_);}
	.st44{fill:url(#SVGID_43_);}
	.st45{fill:url(#SVGID_44_);}
	.st46{fill:url(#SVGID_45_);}
	.st47{fill:url(#SVGID_46_);}
	.st48{fill:url(#SVGID_47_);}
	.st49{fill:url(#SVGID_48_);}
	.st50{fill:url(#SVGID_49_);}
	.st51{fill:url(#SVGID_50_);}
	.st52{fill:url(#SVGID_51_);}
	.st53{fill:url(#SVGID_52_);}
	.st54{fill:url(#SVGID_53_);}
	.st55{fill:url(#SVGID_54_);}
	.st56{fill:url(#SVGID_55_);}
	.st57{fill:url(#SVGID_56_);}
	.st58{fill:url(#SVGID_57_);}
	.st59{fill:url(#SVGID_58_);}
	.st60{fill:url(#SVGID_59_);}
	.st61{fill:url(#SVGID_60_);}
	.st62{fill:url(#SVGID_61_);}
	.st63{fill:url(#SVGID_62_);}
	.st64{fill:url(#SVGID_63_);}
	.st65{fill:url(#SVGID_64_);}
	.st66{fill:url(#SVGID_65_);}
	.st67{fill:url(#SVGID_66_);}
	.st68{fill:url(#SVGID_67_);}
	.st69{fill:url(#SVGID_68_);}
	.st70{fill:url(#SVGID_69_);}
	.st71{fill:url(#SVGID_70_);}
</style>
<path class="st0" d="M13.2,276.1"/>
<g>
	
		<radialGradient id="SVGID_1_" cx="75.0764" cy="6555.5552" r="0" gradientTransform="matrix(1 0 0 7.294127e-02 -74.9764 -346.9705)" gradientUnits="userSpaceOnUse">
		<stop  offset="0" style="stop-color:#FFFFFF"/>
		<stop  offset="1" style="stop-color:#FFFFFF;stop-opacity:0"/>
	</radialGradient>
	<path class="st1" d="M0.1,131.2"/>
</g>
<g>
	<g>
		<g>
			
				<linearGradient id="SVGID_2_" gradientUnits="userSpaceOnUse" x1="25.3442" y1="924.2" x2="317.5335" y2="924.2" gradientTransform="matrix(1 0 0 1 0 -784)">
				<stop  offset="0" style="stop-color:#FDDF0B"/>
				<stop  offset="8.064516e-02" style="stop-color:#D1932B"/>
				<stop  offset="0.2634" style="stop-color:#E84324"/>
				<stop  offset="0.6613" style="stop-color:#C16D29"/>
				<stop  offset="1" style="stop-color:#FCE926"/>
			</linearGradient>
			<path class="st2" d="M293.8,87.9h-31.3c-17.3-32.7-51.6-55-91.1-55s-73.9,22.3-91.1,55H49c-14.4,0-25.5,12.8-23.4,27.1
				l16.6,112.3c1.7,11.6,11.7,20.2,23.4,20.2h211.7c11.7,0,21.7-8.6,23.4-20.2L317.3,115C319.3,100.8,308.2,87.9,293.8,87.9z"/>
			
				<linearGradient id="SVGID_3_" gradientUnits="userSpaceOnUse" x1="25.3442" y1="924.2" x2="317.5335" y2="924.2" gradientTransform="matrix(1 0 0 1 0 -784)">
				<stop  offset="0" style="stop-color:#FDDF0B"/>
				<stop  offset="8.064516e-02" style="stop-color:#D1932B"/>
				<stop  offset="0.2634" style="stop-color:#E84324"/>
				<stop  offset="0.6613" style="stop-color:#C16D29"/>
				<stop  offset="1" style="stop-color:#FCE926"/>
			</linearGradient>
			<path class="st3" d="M293.8,87.9h-31.3c-17.3-32.7-51.6-55-91.1-55s-73.9,22.3-91.1,55H49c-14.4,0-25.5,12.8-23.4,27.1
				l16.6,112.3c1.7,11.6,11.7,20.2,23.4,20.2h211.7c11.7,0,21.7-8.6,23.4-20.2L317.3,115C319.3,100.8,308.2,87.9,293.8,87.9z
				 M295.6,111.9L279,224.2c-0.1,0.9-0.9,1.6-1.8,1.6H65.5c-0.9,0-1.7-0.7-1.8-1.6L47,111.9c0-0.2-0.1-0.8,0.4-1.5
				c0.6-0.6,1.2-0.6,1.4-0.6h31.3c8.1,0,15.5-4.5,19.3-11.6c14.1-26.7,41.6-43.4,71.8-43.4s57.7,16.6,71.8,43.4
				c3.8,7.2,11.2,11.6,19.3,11.6h31.3c0.2,0,0.8,0,1.4,0.6C295.7,111,295.6,111.7,295.6,111.9z"/>
			
				<linearGradient id="SVGID_4_" gradientUnits="userSpaceOnUse" x1="171.3" y1="826.8761" x2="171.3" y2="1012.2649" gradientTransform="matrix(1 0 0 1 0 -784)">
				<stop  offset="0" style="stop-color:#FDDF0B"/>
				<stop  offset="8.064516e-02" style="stop-color:#D1932B"/>
				<stop  offset="0.2634" style="stop-color:#E84324"/>
				<stop  offset="0.6613" style="stop-color:#C16D29"/>
				<stop  offset="1" style="stop-color:#FCE926"/>
			</linearGradient>
			<path class="st4" d="M65.4,245.4c-10.6,0-19.7-7.9-21.2-18.3L27.6,114.8c-0.9-6.2,0.9-12.4,5-17.2c4.1-4.7,10-7.4,16.3-7.4h31.3
				c0.8,0,1.6-0.4,1.9-1.2c17.5-33.2,51.7-53.8,89.2-53.8S243,55.8,260.5,89c0.4,0.7,1.1,1.2,1.9,1.2h31.3c6.2,0,12.2,2.7,16.3,7.4
				c4.1,4.7,5.9,11,5,17.2L298.4,227c-1.5,10.5-10.7,18.3-21.2,18.3L65.4,245.4L65.4,245.4z M48.9,107.6c-1.5,0-2.5,0.8-3,1.4
				s-1.2,1.7-0.9,3.2l16.6,112.3c0.3,2,2,3.4,4,3.4h211.7c2,0,3.7-1.5,4-3.4l16.6-112.3c0.2-1.5-0.4-2.6-0.9-3.2s-1.5-1.4-3-1.4
				h-31.3c-7.3,0-13.9-4-17.4-10.5c-14.5-27.5-42.8-44.5-73.8-44.5s-59.3,17.1-73.8,44.5c-3.4,6.5-10.1,10.5-17.4,10.5H48.9z"/>
			<g>
				
					<radialGradient id="SVGID_5_" cx="89.7632" cy="877.1367" r="7.2696" gradientTransform="matrix(1 0 0 1 0 -784)" gradientUnits="userSpaceOnUse">
					<stop  offset="0" style="stop-color:#8DC63F;stop-opacity:0"/>
					<stop  offset="1" style="stop-color:#FFF200"/>
				</radialGradient>
				<path class="st5" d="M93.2,86.7c-3.5-1.9-7.9-0.6-9.9,2.9c-1.9,3.5-0.6,7.9,2.9,9.8c1.1,0.6,2.3,0.9,3.5,0.9
					c2.6,0,5.1-1.4,6.4-3.8C98.1,93.1,96.8,88.7,93.2,86.7z"/>
				<path class="st6" d="M89.8,98.2c-0.8,0-1.7-0.2-2.4-0.6c-1.2-0.7-2.1-1.7-2.5-3s-0.2-2.7,0.4-3.9c0.9-1.6,2.6-2.7,4.5-2.7
					c0.8,0,1.7,0.2,2.4,0.6c2.5,1.3,3.4,4.4,2,6.9C93.3,97.2,91.6,98.2,89.8,98.2z"/>
				
					<radialGradient id="SVGID_6_" cx="65.4445" cy="1020.6389" r="7.268" gradientTransform="matrix(1 0 0 1 0 -784)" gradientUnits="userSpaceOnUse">
					<stop  offset="0" style="stop-color:#8DC63F;stop-opacity:0"/>
					<stop  offset="1" style="stop-color:#FFF200"/>
				</radialGradient>
				<path class="st7" d="M65.4,229.4c-4,0-7.3,3.2-7.3,7.3c0,4,3.2,7.3,7.3,7.3c4,0,7.3-3.3,7.3-7.3
					C72.7,232.6,69.5,229.4,65.4,229.4z"/>
				<path class="st6" d="M65.4,241.7c-2.8,0-5.1-2.3-5.1-5.1s2.3-5.1,5.1-5.1c2.8,0,5.1,2.3,5.1,5.1S68.2,241.7,65.4,241.7z"/>
				
					<radialGradient id="SVGID_7_" cx="102.1" cy="859.1672" r="7.2668" gradientTransform="matrix(1 0 0 1 0 -784)" gradientUnits="userSpaceOnUse">
					<stop  offset="0" style="stop-color:#8DC63F;stop-opacity:0"/>
					<stop  offset="1" style="stop-color:#FFF200"/>
				</radialGradient>
				<path class="st8" d="M107.6,80c2.6-3,2.3-7.6-0.7-10.3c-3-2.6-7.6-2.3-10.3,0.7c-2.6,3-2.3,7.6,0.7,10.3
					c1.4,1.2,3.1,1.8,4.8,1.8C104.1,82.4,106.1,81.6,107.6,80z"/>
				<path class="st6" d="M102.1,80.3c-1.2,0-2.4-0.4-3.4-1.3s-1.6-2.1-1.7-3.5s0.4-2.7,1.2-3.7c1-1.1,2.4-1.7,3.8-1.7
					c1.2,0,2.4,0.4,3.4,1.3s1.6,2.1,1.7,3.5s-0.4,2.7-1.3,3.7C105,79.6,103.6,80.3,102.1,80.3z"/>
				
					<radialGradient id="SVGID_8_" cx="70.0452" cy="882.8455" r="7.268" gradientTransform="matrix(1 0 0 1 0 -784)" gradientUnits="userSpaceOnUse">
					<stop  offset="0" style="stop-color:#8DC63F;stop-opacity:0"/>
					<stop  offset="1" style="stop-color:#FFF200"/>
				</radialGradient>
				<path class="st9" d="M70,91.6c-4,0-7.3,3.2-7.3,7.3c0,4,3.3,7.3,7.3,7.3s7.3-3.3,7.3-7.3C77.3,94.8,74.1,91.6,70,91.6z"/>
				<path class="st6" d="M70,103.9c-2.8,0-5.1-2.3-5.1-5.1s2.3-5.1,5.1-5.1c2.8,0,5.1,2.3,5.1,5.1C75.1,101.7,72.9,103.9,70,103.9z"
					/>
				
					<radialGradient id="SVGID_9_" cx="84.3" cy="1020.6389" r="7.2695" gradientTransform="matrix(1 0 0 1 0 -784)" gradientUnits="userSpaceOnUse">
					<stop  offset="0" style="stop-color:#8DC63F;stop-opacity:0"/>
					<stop  offset="1" style="stop-color:#FFF200"/>
				</radialGradient>
				<path class="st10" d="M84.3,229.4c-4,0-7.3,3.2-7.3,7.3c0,4,3.3,7.3,7.3,7.3s7.3-3.3,7.3-7.3C91.6,232.6,88.3,229.4,84.3,229.4z
					"/>
				<path class="st6" d="M84.3,241.7c-2.8,0-5.1-2.3-5.1-5.1s2.3-5.1,5.1-5.1c2.8,0,5.1,2.3,5.1,5.1S87.1,241.7,84.3,241.7z"/>
				
					<radialGradient id="SVGID_10_" cx="106.1522" cy="1020.6389" r="7.268" gradientTransform="matrix(1 0 0 1 0 -784)" gradientUnits="userSpaceOnUse">
					<stop  offset="0" style="stop-color:#8DC63F;stop-opacity:0"/>
					<stop  offset="1" style="stop-color:#FFF200"/>
				</radialGradient>
				<path class="st11" d="M106.2,229.4c-4,0-7.3,3.2-7.3,7.3c0,4,3.3,7.3,7.3,7.3s7.3-3.3,7.3-7.3
					C113.4,232.6,110.2,229.4,106.2,229.4z"/>
				<path class="st6" d="M106.2,241.7c-2.8,0-5.1-2.3-5.1-5.1s2.3-5.1,5.1-5.1c2.8,0,5.1,2.3,5.1,5.1
					C111.2,239.4,109,241.7,106.2,241.7z"/>
				
					<radialGradient id="SVGID_11_" cx="128" cy="1020.6389" r="7.2695" gradientTransform="matrix(1 0 0 1 0 -784)" gradientUnits="userSpaceOnUse">
					<stop  offset="0" style="stop-color:#8DC63F;stop-opacity:0"/>
					<stop  offset="1" style="stop-color:#FFF200"/>
				</radialGradient>
				<path class="st12" d="M128,229.4c-4,0-7.3,3.2-7.3,7.3c0,4,3.3,7.3,7.3,7.3s7.3-3.3,7.3-7.3C135.3,232.6,132,229.4,128,229.4z"
					/>
				<path class="st6" d="M128,241.7c-2.8,0-5.1-2.3-5.1-5.1s2.3-5.1,5.1-5.1c2.8,0,5.1,2.3,5.1,5.1S130.8,241.7,128,241.7z"/>
				
					<radialGradient id="SVGID_12_" cx="118.2886" cy="844.5959" r="7.2745" gradientTransform="matrix(1 0 0 1 0 -784)" gradientUnits="userSpaceOnUse">
					<stop  offset="0" style="stop-color:#8DC63F;stop-opacity:0"/>
					<stop  offset="1" style="stop-color:#FFF200"/>
				</radialGradient>
				<path class="st13" d="M124.2,56.4c-2.3-3.3-6.8-4.1-10.1-1.8c-3.3,2.3-4.1,6.8-1.8,10.1c1.4,2,3.7,3.1,6,3.1
					c1.4,0,2.9-0.4,4.2-1.3C125.8,64.2,126.6,59.7,124.2,56.4z"/>
				<path class="st6" d="M118.3,65.7c-1.7,0-3.2-0.8-4.2-2.2c-0.8-1.1-1.1-2.5-0.9-3.8s1-2.5,2.1-3.3c0.9-0.6,1.9-0.9,2.9-0.9
					c1.7,0,3.2,0.8,4.2,2.2c1.6,2.3,1.1,5.5-1.2,7.1C120.4,65.4,119.4,65.7,118.3,65.7z"/>
				
					<radialGradient id="SVGID_13_" cx="39.5237" cy="919.6436" r="7.269" gradientTransform="matrix(1 0 0 1 0 -784)" gradientUnits="userSpaceOnUse">
					<stop  offset="0" style="stop-color:#8DC63F;stop-opacity:0"/>
					<stop  offset="1" style="stop-color:#FFF200"/>
				</radialGradient>
				<path class="st14" d="M40.6,142.8c4-0.6,6.7-4.3,6.1-8.3s-4.3-6.7-8.2-6.1c-4,0.6-6.7,4.3-6.1,8.3c0.5,3.6,3.6,6.2,7.2,6.2
					C39.9,142.9,40.2,142.9,40.6,142.8z"/>
				<path class="st6" d="M39.5,140.7c-2.5,0-4.7-1.9-5-4.3c-0.4-2.8,1.5-5.4,4.3-5.8c0.3,0,0.5-0.1,0.8-0.1c2.5,0,4.7,1.9,5,4.3
					c0.4,2.8-1.5,5.4-4.3,5.8C40,140.7,39.8,140.7,39.5,140.7z"/>
				
					<radialGradient id="SVGID_14_" cx="36.3333" cy="898.0359" r="7.2689" gradientTransform="matrix(1 0 0 1 0 -784)" gradientUnits="userSpaceOnUse">
					<stop  offset="0" style="stop-color:#8DC63F;stop-opacity:0"/>
					<stop  offset="1" style="stop-color:#FFF200"/>
				</radialGradient>
				<path class="st15" d="M37.4,121.2c4-0.6,6.7-4.3,6.1-8.2c-0.6-4-4.3-6.7-8.3-6.1s-6.7,4.3-6.1,8.2c0.5,3.6,3.6,6.2,7.2,6.2
					C36.7,121.3,37,121.3,37.4,121.2z"/>
				<path class="st6" d="M36.3,119.1c-2.5,0-4.7-1.9-5-4.3c-0.2-1.3,0.1-2.7,1-3.8c0.8-1.1,2-1.8,3.3-2c0.3,0,0.5-0.1,0.8-0.1
					c2.5,0,4.7,1.9,5,4.3c0.2,1.3-0.1,2.7-0.9,3.8s-2,1.8-3.3,2C36.8,119.1,36.6,119.1,36.3,119.1z"/>
				
					<radialGradient id="SVGID_15_" cx="52.2892" cy="1006.0889" r="7.2677" gradientTransform="matrix(1 0 0 1 0 -784)" gradientUnits="userSpaceOnUse">
					<stop  offset="0" style="stop-color:#8DC63F;stop-opacity:0"/>
					<stop  offset="1" style="stop-color:#FFF200"/>
				</radialGradient>
				<path class="st16" d="M59.5,221c-0.6-4-4.3-6.7-8.2-6.1c-4,0.6-6.7,4.3-6.1,8.2c0.5,3.6,3.6,6.2,7.2,6.2c0.3,0,0.7,0,1.1-0.1
					C57.3,228.7,60.1,225,59.5,221z"/>
				<path class="st6" d="M52.3,227.2c-2.5,0-4.7-1.9-5-4.3c-0.2-1.3,0.1-2.7,0.9-3.8c0.8-1.1,2-1.8,3.3-2c0.3,0,0.5-0.1,0.8-0.1
					c2.5,0,4.7,1.9,5,4.3c0.4,2.8-1.5,5.4-4.3,5.8C52.8,227.2,52.5,227.2,52.3,227.2z"/>
				
					<radialGradient id="SVGID_16_" cx="48.201" cy="882.8454" r="7.2604" gradientTransform="matrix(1 0 0 1 0 -784)" gradientUnits="userSpaceOnUse">
					<stop  offset="0" style="stop-color:#8DC63F;stop-opacity:0"/>
					<stop  offset="1" style="stop-color:#FFF200"/>
				</radialGradient>
				<path class="st17" d="M48.2,106.1c0.1,0,0.2,0,0.4,0c4-0.2,7.1-3.6,6.9-7.6s-3.6-7.1-7.6-6.9s-7.1,3.6-6.9,7.6
					C41.1,103.1,44.3,106.1,48.2,106.1z"/>
				<path class="st6" d="M48.2,103.9c-2.7,0-4.9-2.1-5.1-4.8c-0.1-2.8,2-5.2,4.8-5.3c0.1,0,0.2,0,0.3,0c2.7,0,4.9,2.1,5.1,4.8
					c0.1,2.8-2,5.2-4.8,5.3C48.4,103.9,48.3,103.9,48.2,103.9z"/>
				
					<radialGradient id="SVGID_17_" cx="290.6785" cy="882.8455" r="7.268" gradientTransform="matrix(1 0 0 1 0 -784)" gradientUnits="userSpaceOnUse">
					<stop  offset="0" style="stop-color:#8DC63F;stop-opacity:0"/>
					<stop  offset="1" style="stop-color:#FFF200"/>
				</radialGradient>
				<path class="st18" d="M290.7,106.1c4,0,7.3-3.3,7.3-7.3s-3.3-7.3-7.3-7.3s-7.3,3.2-7.3,7.3C283.4,102.9,286.7,106.1,290.7,106.1
					z"/>
				<path class="st6" d="M290.7,103.9c-2.8,0-5.1-2.3-5.1-5.1s2.3-5.1,5.1-5.1c2.8,0,5.1,2.3,5.1,5.1
					C295.8,101.7,293.5,103.9,290.7,103.9z"/>
				
					<radialGradient id="SVGID_18_" cx="238" cy="856.4058" r="7.2735" gradientTransform="matrix(1 0 0 1 0 -784)" gradientUnits="userSpaceOnUse">
					<stop  offset="0" style="stop-color:#8DC63F;stop-opacity:0"/>
					<stop  offset="1" style="stop-color:#FFF200"/>
				</radialGradient>
				<path class="st19" d="M238,79.7c1.8,0,3.6-0.7,5-2c2.9-2.8,3-7.4,0.3-10.3c-2.8-2.9-7.4-3-10.3-0.3c-2.9,2.8-3,7.4-0.3,10.3
					C234.2,78.9,236.1,79.7,238,79.7z"/>
				<path class="st6" d="M238,77.5c-1.4,0-2.7-0.6-3.7-1.6c-0.9-1-1.4-2.3-1.4-3.6c0-1.4,0.6-2.6,1.6-3.6c1-0.9,2.2-1.4,3.5-1.4
					c1.4,0,2.7,0.6,3.7,1.6c1.9,2,1.9,5.3-0.2,7.2C240.6,77,239.3,77.5,238,77.5z"/>
				
					<radialGradient id="SVGID_19_" cx="137.4808" cy="834.2425" r="7.2644" gradientTransform="matrix(1 0 0 1 0 -784)" gradientUnits="userSpaceOnUse">
					<stop  offset="0" style="stop-color:#8DC63F;stop-opacity:0"/>
					<stop  offset="1" style="stop-color:#FFF200"/>
				</radialGradient>
				<path class="st20" d="M144.2,47.6c-1.5-3.7-5.7-5.6-9.4-4.1s-5.6,5.7-4.1,9.4c1.1,2.9,3.9,4.6,6.8,4.6c0.9,0,1.8-0.2,2.7-0.5
					l0,0C143.9,55.5,145.7,51.3,144.2,47.6z"/>
				<path class="st6" d="M137.5,55.3c-2.1,0-4-1.3-4.7-3.2c-1-2.6,0.3-5.6,2.9-6.6c0.6-0.2,1.2-0.4,1.9-0.4c2.1,0,4,1.3,4.7,3.2
					c1,2.6-0.2,5.5-2.8,6.6h-0.1C138.7,55.2,138.1,55.3,137.5,55.3z"/>
				
					<radialGradient id="SVGID_20_" cx="49.0956" cy="984.4782" r="7.2704" gradientTransform="matrix(1 0 0 1 0 -784)" gradientUnits="userSpaceOnUse">
					<stop  offset="0" style="stop-color:#8DC63F;stop-opacity:0"/>
					<stop  offset="1" style="stop-color:#FFF200"/>
				</radialGradient>
				<path class="st21" d="M50.2,207.7c4-0.6,6.7-4.3,6.1-8.2c-0.6-4-4.3-6.7-8.2-6.1c-4,0.6-6.7,4.3-6.1,8.3
					c0.5,3.6,3.6,6.2,7.2,6.2C49.4,207.7,49.8,207.7,50.2,207.7z"/>
				<path class="st6" d="M49.1,205.6c-2.5,0-4.7-1.9-5-4.3c-0.4-2.8,1.5-5.4,4.3-5.8c0.2,0,0.5-0.1,0.7-0.1c2.5,0,4.7,1.9,5,4.4
					c0.2,1.3-0.1,2.7-0.9,3.8c-0.8,1.1-2,1.8-3.3,2C49.6,205.5,49.3,205.6,49.1,205.6z"/>
				
					<radialGradient id="SVGID_21_" cx="45.9052" cy="962.8662" r="7.269" gradientTransform="matrix(1 0 0 1 0 -784)" gradientUnits="userSpaceOnUse">
					<stop  offset="0" style="stop-color:#8DC63F;stop-opacity:0"/>
					<stop  offset="1" style="stop-color:#FFF200"/>
				</radialGradient>
				<path class="st22" d="M47,186.1c4-0.6,6.7-4.3,6.1-8.2c-0.6-4-4.3-6.7-8.2-6.1c-4,0.6-6.7,4.3-6.1,8.2c0.5,3.6,3.6,6.2,7.2,6.2
					C46.2,186.1,46.6,186.1,47,186.1z"/>
				<path class="st6" d="M45.9,184c-2.5,0-4.7-1.9-5-4.3c-0.4-2.8,1.5-5.4,4.3-5.8c0.3,0,0.5-0.1,0.8-0.1c2.5,0,4.7,1.9,5,4.3
					c0.2,1.3-0.1,2.7-0.9,3.8c-0.8,1.1-2,1.8-3.3,2C46.4,183.9,46.2,184,45.9,184z"/>
				
					<radialGradient id="SVGID_22_" cx="42.7146" cy="941.2583" r="7.2691" gradientTransform="matrix(1 0 0 1 0 -784)" gradientUnits="userSpaceOnUse">
					<stop  offset="0" style="stop-color:#8DC63F;stop-opacity:0"/>
					<stop  offset="1" style="stop-color:#FFF200"/>
				</radialGradient>
				<path class="st23" d="M43.8,164.4c4-0.6,6.7-4.3,6.1-8.2c-0.6-4-4.3-6.7-8.2-6.1c-4,0.6-6.7,4.3-6.1,8.2
					c0.5,3.6,3.6,6.2,7.2,6.2C43.1,164.5,43.4,164.5,43.8,164.4z"/>
				<path class="st6" d="M42.7,162.3c-2.5,0-4.7-1.9-5-4.3c-0.2-1.3,0.1-2.7,1-3.8c0.8-1.1,2-1.8,3.3-2c0.3,0,0.5-0.1,0.8-0.1
					c2.5,0,4.7,1.9,5,4.3c0.4,2.8-1.5,5.4-4.3,5.8C43.2,162.3,42.9,162.3,42.7,162.3z"/>
				
					<radialGradient id="SVGID_23_" cx="193.5347" cy="1020.6389" r="7.268" gradientTransform="matrix(1 0 0 1 0 -784)" gradientUnits="userSpaceOnUse">
					<stop  offset="0" style="stop-color:#8DC63F;stop-opacity:0"/>
					<stop  offset="1" style="stop-color:#FFF200"/>
				</radialGradient>
				<path class="st24" d="M193.5,229.4c-4,0-7.3,3.2-7.3,7.3c0,4,3.3,7.3,7.3,7.3s7.3-3.3,7.3-7.3
					C200.8,232.6,197.5,229.4,193.5,229.4z"/>
				<path class="st6" d="M193.5,241.7c-2.8,0-5.1-2.3-5.1-5.1s2.3-5.1,5.1-5.1s5.1,2.3,5.1,5.1S196.3,241.7,193.5,241.7z"/>
				
					<radialGradient id="SVGID_24_" cx="294.0654" cy="980.7789" r="7.269" gradientTransform="matrix(1 0 0 1 0 -784)" gradientUnits="userSpaceOnUse">
					<stop  offset="0" style="stop-color:#8DC63F;stop-opacity:0"/>
					<stop  offset="1" style="stop-color:#FFF200"/>
				</radialGradient>
				<path class="st25" d="M295.1,189.6c-4-0.6-7.7,2.2-8.2,6.1c-0.6,4,2.2,7.7,6.1,8.3c0.4,0.1,0.7,0.1,1.1,0.1
					c3.5,0,6.7-2.6,7.2-6.2C301.8,193.9,299.1,190.2,295.1,189.6z"/>
				<path class="st6" d="M294.1,201.9c-0.2,0-0.5,0-0.8-0.1c-1.3-0.2-2.5-0.9-3.3-2s-1.1-2.4-0.9-3.8c0.4-2.5,2.5-4.3,5-4.3
					c0.2,0,0.5,0,0.7,0.1c1.3,0.2,2.5,0.9,3.3,2s1.1,2.4,0.9,3.8C298.7,200,296.6,201.9,294.1,201.9z"/>
				
					<radialGradient id="SVGID_25_" cx="290.8748" cy="1002.3894" r="7.2677" gradientTransform="matrix(1 0 0 1 0 -784)" gradientUnits="userSpaceOnUse">
					<stop  offset="0" style="stop-color:#8DC63F;stop-opacity:0"/>
					<stop  offset="1" style="stop-color:#FFF200"/>
				</radialGradient>
				<path class="st26" d="M291.9,211.2c-4-0.6-7.7,2.2-8.2,6.1c-0.6,4,2.2,7.7,6.1,8.2c0.4,0.1,0.7,0.1,1.1,0.1
					c3.5,0,6.7-2.6,7.2-6.2C298.7,215.5,295.9,211.8,291.9,211.2z"/>
				<path class="st6" d="M290.9,223.5c-0.3,0-0.5,0-0.7-0.1c-1.4-0.2-2.6-0.9-3.4-2s-1.1-2.4-0.9-3.8c0.4-2.5,2.5-4.3,5-4.3
					c0.2,0,0.5,0,0.8,0.1c1.3,0.2,2.5,0.9,3.3,2s1.1,2.4,0.9,3.8C295.5,221.6,293.4,223.5,290.9,223.5z"/>
				
					<radialGradient id="SVGID_26_" cx="280.8596" cy="1020.0839" r="7.2701" gradientTransform="matrix(1 0 0 1 0 -784)" gradientUnits="userSpaceOnUse">
					<stop  offset="0" style="stop-color:#8DC63F;stop-opacity:0"/>
					<stop  offset="1" style="stop-color:#FFF200"/>
				</radialGradient>
				<path class="st27" d="M278.7,229.1c-3.8,1.2-6,5.2-4.8,9.1c1,3.1,3.8,5.1,6.9,5.1c0.7,0,1.4-0.1,2.1-0.3c3.8-1.2,6-5.2,4.8-9.1
					C286.6,230.1,282.6,228,278.7,229.1z"/>
				<path class="st6" d="M280.9,241.2c-2.2,0-4.2-1.4-4.9-3.6c-0.4-1.3-0.3-2.7,0.4-3.9c0.6-1.2,1.7-2.1,3-2.5
					c0.5-0.1,1-0.2,1.5-0.2c2.3,0,4.2,1.4,4.9,3.6c0.8,2.7-0.7,5.5-3.4,6.4C281.9,241.1,281.4,241.2,280.9,241.2z"/>
				
					<radialGradient id="SVGID_27_" cx="268.8313" cy="882.8455" r="7.2616" gradientTransform="matrix(1 0 0 1 0 -784)" gradientUnits="userSpaceOnUse">
					<stop  offset="0" style="stop-color:#8DC63F;stop-opacity:0"/>
					<stop  offset="1" style="stop-color:#FFF200"/>
				</radialGradient>
				<path class="st28" d="M276.1,98.8c0-4-3.3-7.3-7.3-7.3s-7.3,3.2-7.3,7.3c0,4,3.3,7.3,7.3,7.3
					C272.8,106.1,276.1,102.9,276.1,98.8z"/>
				<path class="st6" d="M268.8,103.9c-2.8,0-5.1-2.3-5.1-5.1s2.3-5.1,5.1-5.1c2.8,0,5.1,2.3,5.1,5.1
					C273.9,101.7,271.6,103.9,268.8,103.9z"/>
				
					<radialGradient id="SVGID_28_" cx="303.6404" cy="915.9478" r="7.2741" gradientTransform="matrix(1 0 0 1 0 -784)" gradientUnits="userSpaceOnUse">
					<stop  offset="0" style="stop-color:#8DC63F;stop-opacity:0"/>
					<stop  offset="1" style="stop-color:#FFF200"/>
				</radialGradient>
				<path class="st29" d="M304.7,124.8c-4-0.6-7.7,2.2-8.2,6.1c-0.6,4,2.2,7.7,6.1,8.3c0.4,0.1,0.7,0.1,1.1,0.1
					c3.5,0,6.7-2.6,7.2-6.2C311.4,129,308.7,125.3,304.7,124.8z"/>
				<path class="st6" d="M303.6,137c-0.2,0-0.5,0-0.8-0.1c-2.8-0.4-4.7-3-4.3-5.8c0.4-2.5,2.5-4.3,5-4.3c0.2,0,0.5,0,0.8,0.1
					c2.8,0.4,4.7,3,4.3,5.8C308.3,135.2,306.1,137,303.6,137z"/>
				
					<radialGradient id="SVGID_29_" cx="306.4537" cy="894.3127" r="7.2658" gradientTransform="matrix(1 0 0 1 0 -784)" gradientUnits="userSpaceOnUse">
					<stop  offset="0" style="stop-color:#8DC63F;stop-opacity:0"/>
					<stop  offset="1" style="stop-color:#FFF200"/>
				</radialGradient>
				<path class="st30" d="M313.7,109.6c-0.4-4-3.9-6.9-7.9-6.5s-6.9,3.9-6.5,7.9c0.4,3.8,3.5,6.6,7.2,6.6c0.2,0,0.5,0,0.7,0
					C311.1,117.2,314.1,113.6,313.7,109.6z"/>
				<path class="st6" d="M306.4,115.4c-2.6,0-4.8-2-5.1-4.6c-0.1-1.3,0.3-2.7,1.1-3.7c0.9-1,2.1-1.7,3.4-1.8c0.2,0,0.3,0,0.5,0
					c2.6,0,4.8,2,5.1,4.6c0.1,1.4-0.3,2.7-1.1,3.7c-0.9,1-2.1,1.7-3.4,1.8C306.8,115.4,306.6,115.4,306.4,115.4z"/>
				
					<radialGradient id="SVGID_30_" cx="149.8473" cy="1020.6389" r="7.268" gradientTransform="matrix(1 0 0 1 0 -784)" gradientUnits="userSpaceOnUse">
					<stop  offset="0" style="stop-color:#8DC63F;stop-opacity:0"/>
					<stop  offset="1" style="stop-color:#FFF200"/>
				</radialGradient>
				<path class="st31" d="M149.8,229.4c-4,0-7.3,3.2-7.3,7.3c0,4,3.2,7.3,7.3,7.3c4,0,7.3-3.3,7.3-7.3
					C157.1,232.6,153.9,229.4,149.8,229.4z"/>
				<path class="st6" d="M149.8,241.7c-2.8,0-5.1-2.3-5.1-5.1s2.3-5.1,5.1-5.1s5.1,2.3,5.1,5.1C154.9,239.4,152.7,241.7,149.8,241.7
					z"/>
				
					<radialGradient id="SVGID_31_" cx="300.4495" cy="937.5594" r="7.2754" gradientTransform="matrix(1 0 0 1 0 -784)" gradientUnits="userSpaceOnUse">
					<stop  offset="0" style="stop-color:#8DC63F;stop-opacity:0"/>
					<stop  offset="1" style="stop-color:#FFF200"/>
				</radialGradient>
				<path class="st32" d="M301.5,146.4c-4-0.6-7.7,2.2-8.2,6.1c-0.6,4,2.2,7.7,6.1,8.2c0.4,0.1,0.7,0.1,1.1,0.1
					c3.5,0,6.7-2.6,7.2-6.2C308.2,150.7,305.5,147,301.5,146.4z"/>
				<path class="st6" d="M300.5,158.6c-0.3,0-0.5,0-0.7-0.1c-1.4-0.2-2.6-0.9-3.4-2s-1.1-2.4-0.9-3.8c0.4-2.5,2.5-4.3,5-4.3
					c0.2,0,0.5,0,0.8,0.1c1.3,0.2,2.5,0.9,3.3,2s1.1,2.4,1,3.8C305.1,156.8,303,158.6,300.5,158.6z"/>
				
					<radialGradient id="SVGID_32_" cx="297.2562" cy="959.1669" r="7.2676" gradientTransform="matrix(1 0 0 1 0 -784)" gradientUnits="userSpaceOnUse">
					<stop  offset="0" style="stop-color:#8DC63F;stop-opacity:0"/>
					<stop  offset="1" style="stop-color:#FFF200"/>
				</radialGradient>
				<path class="st33" d="M298.3,168c-4-0.6-7.7,2.2-8.2,6.1c-0.6,4,2.2,7.7,6.1,8.3c0.4,0.1,0.7,0.1,1.1,0.1c3.5,0,6.6-2.6,7.2-6.2
					C305,172.3,302.3,168.6,298.3,168z"/>
				<path class="st6" d="M297.3,180.3c-0.3,0-0.5,0-0.8-0.1c-2.8-0.4-4.7-3-4.3-5.8c0.4-2.5,2.5-4.3,5-4.3c0.2,0,0.5,0,0.8,0.1
					c2.8,0.4,4.7,3,4.3,5.8C301.9,178.4,299.8,180.3,297.3,180.3z"/>
				
					<radialGradient id="SVGID_33_" cx="259.0706" cy="1020.6389" r="7.268" gradientTransform="matrix(1 0 0 1 0 -784)" gradientUnits="userSpaceOnUse">
					<stop  offset="0" style="stop-color:#8DC63F;stop-opacity:0"/>
					<stop  offset="1" style="stop-color:#FFF200"/>
				</radialGradient>
				<path class="st34" d="M259.1,229.4c-4,0-7.3,3.2-7.3,7.3c0,4,3.3,7.3,7.3,7.3s7.3-3.3,7.3-7.3
					C266.3,232.6,263.1,229.4,259.1,229.4z"/>
				<path class="st6" d="M259.1,241.7c-2.8,0-5.1-2.3-5.1-5.1s2.3-5.1,5.1-5.1c2.8,0,5.1,2.3,5.1,5.1S261.9,241.7,259.1,241.7z"/>
				
					<radialGradient id="SVGID_34_" cx="171.7" cy="1020.6389" r="7.2617" gradientTransform="matrix(1 0 0 1 0 -784)" gradientUnits="userSpaceOnUse">
					<stop  offset="0" style="stop-color:#8DC63F;stop-opacity:0"/>
					<stop  offset="1" style="stop-color:#FFF200"/>
				</radialGradient>
				<path class="st35" d="M171.7,229.4c-4,0-7.3,3.2-7.3,7.3c0,4,3.3,7.3,7.3,7.3s7.3-3.3,7.3-7.3
					C179,232.6,175.7,229.4,171.7,229.4z"/>
				<path class="st6" d="M171.7,241.7c-2.8,0-5.1-2.3-5.1-5.1s2.3-5.1,5.1-5.1s5.1,2.3,5.1,5.1S174.5,241.7,171.7,241.7z"/>
				
					<radialGradient id="SVGID_35_" cx="201.6351" cy="832.9562" r="7.2694" gradientTransform="matrix(1 0 0 1 0 -784)" gradientUnits="userSpaceOnUse">
					<stop  offset="0" style="stop-color:#8DC63F;stop-opacity:0"/>
					<stop  offset="1" style="stop-color:#FFF200"/>
				</radialGradient>
				<path class="st36" d="M204,42.1c-3.8-1.3-7.9,0.7-9.3,4.5c-1.3,3.8,0.7,7.9,4.5,9.3c0.8,0.3,1.6,0.4,2.4,0.4
					c3,0,5.8-1.9,6.9-4.9C209.8,47.6,207.8,43.4,204,42.1z"/>
				<path class="st6" d="M201.6,54c-0.6,0-1.1-0.1-1.7-0.3c-2.7-0.9-4.1-3.8-3.1-6.5c0.7-2,2.6-3.4,4.8-3.4c0.6,0,1.1,0.1,1.7,0.3
					c2.6,0.9,4.1,3.8,3.1,6.5C205.7,52.7,203.8,54,201.6,54z"/>
				
					<radialGradient id="SVGID_36_" cx="180.3479" cy="828.2816" r="7.2669" gradientTransform="matrix(1 0 0 1 0 -784)" gradientUnits="userSpaceOnUse">
					<stop  offset="0" style="stop-color:#8DC63F;stop-opacity:0"/>
					<stop  offset="1" style="stop-color:#FFF200"/>
				</radialGradient>
				<path class="st37" d="M181.1,37.1c-4-0.4-7.6,2.5-7.9,6.5c-0.4,4,2.5,7.5,6.5,7.9c0.2,0,0.5,0,0.7,0c3.7,0,6.9-2.8,7.2-6.6
					C188,41,185.1,37.4,181.1,37.1z"/>
				<path class="st6" d="M180.4,49.4c-0.2,0-0.3,0-0.5,0c-2.8-0.3-4.9-2.8-4.6-5.6c0.3-2.6,2.4-4.6,5.1-4.6c0.2,0,0.3,0,0.5,0
					c1.4,0.1,2.6,0.8,3.4,1.8c0.9,1,1.3,2.4,1.1,3.7C185.2,47.4,183,49.4,180.4,49.4z"/>
				
					<radialGradient id="SVGID_37_" cx="251.0465" cy="873.8614" r="7.2694" gradientTransform="matrix(1 0 0 1 0 -784)" gradientUnits="userSpaceOnUse">
					<stop  offset="0" style="stop-color:#8DC63F;stop-opacity:0"/>
					<stop  offset="1" style="stop-color:#FFF200"/>
				</radialGradient>
				<path class="st38" d="M257.3,86.2c-2-3.5-6.5-4.7-9.9-2.7c-3.5,2-4.7,6.5-2.7,9.9c1.4,2.3,3.8,3.6,6.3,3.6c1.2,0,2.5-0.3,3.6-1
					C258.2,94.1,259.3,89.7,257.3,86.2z"/>
				<path class="st6" d="M251.1,94.9c-1.8,0-3.5-1-4.4-2.5c-1.4-2.4-0.6-5.5,1.9-6.9c0.8-0.4,1.7-0.7,2.5-0.7c1.8,0,3.5,1,4.4,2.5
					c1.4,2.4,0.6,5.6-1.9,7C252.8,94.7,251.9,94.9,251.1,94.9z"/>
				
					<radialGradient id="SVGID_38_" cx="158.5562" cy="828.7259" r="7.2696" gradientTransform="matrix(1 0 0 1 0 -784)" gradientUnits="userSpaceOnUse">
					<stop  offset="0" style="stop-color:#8DC63F;stop-opacity:0"/>
					<stop  offset="1" style="stop-color:#FFF200"/>
				</radialGradient>
				<path class="st39" d="M165.8,43.7c-0.6-4-4.2-6.8-8.2-6.2s-6.8,4.2-6.2,8.2c0.5,3.6,3.6,6.3,7.2,6.3c0.3,0,0.7,0,1-0.1
					C163.5,51.4,166.3,47.7,165.8,43.7z"/>
				<path class="st6" d="M158.5,49.8c-2.5,0-4.7-1.9-5-4.4c-0.2-1.3,0.2-2.7,1-3.8s2-1.8,3.4-2c0.2,0,0.5,0,0.7,0
					c2.5,0,4.7,1.9,5,4.4c0.4,2.8-1.6,5.4-4.3,5.7C159,49.8,158.8,49.8,158.5,49.8z"/>
				
					<radialGradient id="SVGID_39_" cx="237.2227" cy="1020.6389" r="7.268" gradientTransform="matrix(1 0 0 1 0 -784)" gradientUnits="userSpaceOnUse">
					<stop  offset="0" style="stop-color:#8DC63F;stop-opacity:0"/>
					<stop  offset="1" style="stop-color:#FFF200"/>
				</radialGradient>
				<path class="st40" d="M237.2,229.4c-4,0-7.3,3.2-7.3,7.3c0,4,3.3,7.3,7.3,7.3s7.3-3.3,7.3-7.3
					C244.5,232.6,241.2,229.4,237.2,229.4z"/>
				<path class="st6" d="M237.2,241.7c-2.8,0-5.1-2.3-5.1-5.1s2.3-5.1,5.1-5.1s5.1,2.3,5.1,5.1S240,241.7,237.2,241.7z"/>
				
					<radialGradient id="SVGID_40_" cx="221.2186" cy="842.5094" r="7.2678" gradientTransform="matrix(1 0 0 1 0 -784)" gradientUnits="userSpaceOnUse">
					<stop  offset="0" style="stop-color:#8DC63F;stop-opacity:0"/>
					<stop  offset="1" style="stop-color:#FFF200"/>
				</radialGradient>
				<path class="st41" d="M225.2,52.4c-3.4-2.2-7.9-1.2-10,2.2c-2.2,3.4-1.2,7.9,2.2,10.1c1.2,0.8,2.6,1.2,3.9,1.2
					c2.4,0,4.7-1.2,6.1-3.3C229.5,59.1,228.5,54.6,225.2,52.4z"/>
				<path class="st6" d="M221.2,63.6c-1,0-1.9-0.3-2.8-0.8c-1.1-0.7-1.9-1.9-2.2-3.2s0-2.7,0.7-3.8c0.9-1.5,2.5-2.3,4.3-2.3
					c1,0,1.9,0.3,2.8,0.8c1.1,0.7,1.9,1.9,2.2,3.2s0,2.7-0.7,3.8C224.6,62.7,223,63.6,221.2,63.6z"/>
				
					<radialGradient id="SVGID_41_" cx="215.3826" cy="1020.6389" r="7.268" gradientTransform="matrix(1 0 0 1 0 -784)" gradientUnits="userSpaceOnUse">
					<stop  offset="0" style="stop-color:#8DC63F;stop-opacity:0"/>
					<stop  offset="1" style="stop-color:#FFF200"/>
				</radialGradient>
				<path class="st42" d="M215.4,229.4c-4,0-7.3,3.2-7.3,7.3c0,4,3.2,7.3,7.3,7.3c4,0,7.3-3.3,7.3-7.3
					C222.7,232.6,219.4,229.4,215.4,229.4z"/>
				<path class="st6" d="M215.4,241.7c-2.8,0-5.1-2.3-5.1-5.1s2.3-5.1,5.1-5.1s5.1,2.3,5.1,5.1S218.2,241.7,215.4,241.7z"/>
			</g>
			
				<linearGradient id="SVGID_42_" gradientUnits="userSpaceOnUse" x1="46.9918" y1="924.3" x2="295.4756" y2="924.3" gradientTransform="matrix(1 0 0 1 0 -784)">
				<stop  offset="0" style="stop-color:#FFFFFF"/>
				<stop  offset="9.503473e-02" style="stop-color:#FFFEF7"/>
				<stop  offset="0.2323" style="stop-color:#FEFCE8"/>
				<stop  offset="0.3951" style="stop-color:#FDF9D0"/>
				<stop  offset="0.5777" style="stop-color:#FCF5AE"/>
				<stop  offset="0.7767" style="stop-color:#FAF182"/>
				<stop  offset="0.9864" style="stop-color:#F9ED38"/>
				<stop  offset="1" style="stop-color:#F9ED32"/>
			</linearGradient>
			<path class="st43" d="M65.4,225.7c-0.9,0-1.7-0.7-1.8-1.6L47,111.9c0-0.2-0.1-0.8,0.4-1.5c0.6-0.6,1.2-0.6,1.4-0.6h31.3
				c8.1,0,15.5-4.5,19.3-11.6c14.1-26.7,41.6-43.4,71.8-43.4s57.7,16.6,71.8,43.4c3.8,7.2,11.2,11.6,19.3,11.6h31.3
				c0.2,0,0.8,0,1.4,0.6s0.5,1.3,0.4,1.5L279,224.2c-0.1,0.9-0.9,1.6-1.8,1.6H65.4V225.7z"/>
		</g>
		<g>
			
				<radialGradient id="SVGID_43_" cx="-917.2552" cy="7657.7046" r="26.2049" gradientTransform="matrix(4.499940e-11 -1 7.294127e-02 3.282313e-12 -259.8259 -741.3552)" gradientUnits="userSpaceOnUse">
				<stop  offset="0" style="stop-color:#FFFFFF"/>
				<stop  offset="1" style="stop-color:#FFFFFF;stop-opacity:0"/>
			</radialGradient>
			<ellipse class="st44" cx="298.7" cy="175.9" rx="2.1" ry="26.4"/>
			
				<radialGradient id="SVGID_44_" cx="252.1109" cy="10354.3047" r="26.2093" gradientTransform="matrix(0.7071 -0.7071 5.157726e-02 5.157726e-02 -413.5919 -179.8566)" gradientUnits="userSpaceOnUse">
				<stop  offset="0" style="stop-color:#FFFFFF"/>
				<stop  offset="1" style="stop-color:#FFFFFF;stop-opacity:0"/>
			</radialGradient>
			<path class="st45" d="M300.2,177.4c-10.3,10.3-19.3,18-20.1,17.2c-0.8-0.8,6.9-9.8,17.2-20.1c10.3-10.3,19.3-18,20.1-17.2
				C318.2,158.1,310.5,167.1,300.2,177.4z"/>
			
				<radialGradient id="SVGID_45_" cx="93.3136" cy="6230.6426" r="26.2251" gradientTransform="matrix(1 0 0 7.294127e-02 205.3864 -278.5632)" gradientUnits="userSpaceOnUse">
				<stop  offset="0" style="stop-color:#FFFFFF"/>
				<stop  offset="1" style="stop-color:#FFFFFF;stop-opacity:0"/>
			</radialGradient>
			<ellipse class="st46" cx="298.7" cy="175.9" rx="26.4" ry="2.1"/>
			
				<radialGradient id="SVGID_46_" cx="-1300.5099" cy="-2297.6909" r="26.1927" gradientTransform="matrix(0.7071 0.7071 -5.157726e-02 5.157726e-02 1099.8466 1214.0345)" gradientUnits="userSpaceOnUse">
				<stop  offset="0" style="stop-color:#FFFFFF"/>
				<stop  offset="1" style="stop-color:#FFFFFF;stop-opacity:0"/>
			</radialGradient>
			<path class="st47" d="M297.3,177.4c-10.3-10.3-18-19.3-17.2-20.1s9.8,6.9,20.1,17.2c10.3,10.3,18,19.3,17.2,20.1
				S307.6,187.7,297.3,177.4z"/>
		</g>
		<g>
			
				<radialGradient id="SVGID_47_" cx="-1014.4118" cy="7533.3496" r="32.2821" gradientTransform="matrix(4.499940e-11 -1 7.294127e-02 3.282313e-12 -347.8569 -962.8118)" gradientUnits="userSpaceOnUse">
				<stop  offset="0" style="stop-color:#FFFFFF"/>
				<stop  offset="1" style="stop-color:#FFFFFF;stop-opacity:0"/>
			</radialGradient>
			<ellipse class="st48" cx="201.6" cy="51.6" rx="2.6" ry="32.5"/>
			
				<radialGradient id="SVGID_48_" cx="95.549" cy="10335.0342" r="32.248" gradientTransform="matrix(0.7071 -0.7071 5.157726e-02 5.157726e-02 -398.9714 -413.946)" gradientUnits="userSpaceOnUse">
				<stop  offset="0" style="stop-color:#FFFFFF"/>
				<stop  offset="1" style="stop-color:#FFFFFF;stop-opacity:0"/>
			</radialGradient>
			<path class="st49" d="M203.5,53.4c-12.7,12.7-23.8,22.1-24.8,21.1s8.5-12.1,21.1-24.8s23.8-22.1,24.8-21.1S216.1,40.7,203.5,53.4
				z"/>
			
				<radialGradient id="SVGID_49_" cx="-31.0396" cy="6327.7441" r="32.2775" gradientTransform="matrix(1 0 0 7.294127e-02 232.6396 -410.0008)" gradientUnits="userSpaceOnUse">
				<stop  offset="0" style="stop-color:#FFFFFF"/>
				<stop  offset="1" style="stop-color:#FFFFFF;stop-opacity:0"/>
			</radialGradient>
			<ellipse class="st50" cx="201.6" cy="51.6" rx="32.5" ry="2.6"/>
			
				<radialGradient id="SVGID_50_" cx="-1319.8118" cy="-2141.0977" r="32.26" gradientTransform="matrix(0.7071 0.7071 -5.157726e-02 5.157726e-02 1024.4481 1095.2296)" gradientUnits="userSpaceOnUse">
				<stop  offset="0" style="stop-color:#FFFFFF"/>
				<stop  offset="1" style="stop-color:#FFFFFF;stop-opacity:0"/>
			</radialGradient>
			<path class="st51" d="M199.8,53.4c-12.7-12.7-22.1-23.8-21.1-24.8s12.1,8.5,24.8,21.1s22.1,23.8,21.1,24.8S212.5,66.1,199.8,53.4
				z"/>
		</g>
		<g>
			
				<radialGradient id="SVGID_51_" cx="-1145.9094" cy="7580.6421" r="26.1883" gradientTransform="matrix(4.499940e-11 -1 7.294127e-02 3.282313e-12 -482.8966 -1047.1094)" gradientUnits="userSpaceOnUse">
				<stop  offset="0" style="stop-color:#FFFFFF"/>
				<stop  offset="1" style="stop-color:#FFFFFF;stop-opacity:0"/>
			</radialGradient>
			<ellipse class="st52" cx="70" cy="98.8" rx="2.1" ry="26.4"/>
			
				<radialGradient id="SVGID_52_" cx="35.9288" cy="10461.5234" r="26.2006" gradientTransform="matrix(0.7071 -0.7071 5.157726e-02 5.157726e-02 -494.9367 -415.3261)" gradientUnits="userSpaceOnUse">
				<stop  offset="0" style="stop-color:#FFFFFF"/>
				<stop  offset="1" style="stop-color:#FFFFFF;stop-opacity:0"/>
			</radialGradient>
			<path class="st53" d="M71.5,100.3c-10.3,10.3-19.3,18-20.1,17.2s6.9-9.8,17.2-20.1s19.3-18,20.1-17.2S81.8,90,71.5,100.3z"/>
			
				<radialGradient id="SVGID_53_" cx="16.2431" cy="6459.3345" r="26.2284" gradientTransform="matrix(1 0 0 7.294127e-02 53.7569 -372.3066)" gradientUnits="userSpaceOnUse">
				<stop  offset="0" style="stop-color:#FFFFFF"/>
				<stop  offset="1" style="stop-color:#FFFFFF;stop-opacity:0"/>
			</radialGradient>
			<ellipse class="st54" cx="70" cy="98.8" rx="26.4" ry="2.1"/>
			
				<radialGradient id="SVGID_54_" cx="-1193.323" cy="-2081.4939" r="26.2055" gradientTransform="matrix(0.7071 0.7071 -5.157726e-02 5.157726e-02 806.4909 1050.0065)" gradientUnits="userSpaceOnUse">
				<stop  offset="0" style="stop-color:#FFFFFF"/>
				<stop  offset="1" style="stop-color:#FFFFFF;stop-opacity:0"/>
			</radialGradient>
			<path class="st55" d="M68.6,100.3C58.3,90,50.6,81,51.4,80.2s9.8,6.9,20.1,17.2s18,19.3,17.2,20.1
				C87.9,118.3,78.9,110.6,68.6,100.3z"/>
		</g>
		<g>
			
				<radialGradient id="SVGID_55_" cx="-1181.5396" cy="7595.7236" r="37.8676" gradientTransform="matrix(4.499940e-11 -1 7.294127e-02 3.282313e-12 -519.6082 -1067.6396)" gradientUnits="userSpaceOnUse">
				<stop  offset="0" style="stop-color:#FFFFFF"/>
				<stop  offset="1" style="stop-color:#FFFFFF;stop-opacity:0"/>
			</radialGradient>
			<ellipse class="st56" cx="34.4" cy="113.9" rx="3" ry="38.1"/>
			
				<radialGradient id="SVGID_56_" cx="21.4066" cy="10497.3682" r="37.8744" gradientTransform="matrix(0.7071 -0.7071 5.157726e-02 5.157726e-02 -522.1318 -412.3589)" gradientUnits="userSpaceOnUse">
				<stop  offset="0" style="stop-color:#FFFFFF"/>
				<stop  offset="1" style="stop-color:#FFFFFF;stop-opacity:0"/>
			</radialGradient>
			<path class="st57" d="M36.6,116.1c-14.9,14.9-27.9,26-29.1,24.8s9.9-14.2,24.8-29.1s27.9-26,29.1-24.8
				C62.6,88.1,51.5,101.2,36.6,116.1z"/>
			
				<radialGradient id="SVGID_57_" cx="31.3358" cy="6494.9458" r="37.895" gradientTransform="matrix(1 0 0 7.294127e-02 3.0642 -359.8229)" gradientUnits="userSpaceOnUse">
				<stop  offset="0" style="stop-color:#FFFFFF"/>
				<stop  offset="1" style="stop-color:#FFFFFF;stop-opacity:0"/>
			</radialGradient>
			<ellipse class="st58" cx="34.4" cy="113.9" rx="38.1" ry="3"/>
			
				<radialGradient id="SVGID_58_" cx="-1157.4562" cy="-2066.9065" r="37.9014" gradientTransform="matrix(0.7071 0.7071 -5.157726e-02 5.157726e-02 746.2818 1038.9926)" gradientUnits="userSpaceOnUse">
				<stop  offset="0" style="stop-color:#FFFFFF"/>
				<stop  offset="1" style="stop-color:#FFFFFF;stop-opacity:0"/>
			</radialGradient>
			<path class="st59" d="M32.3,116.1C17.4,101.2,6.3,88.2,7.5,87s14.2,9.9,29.1,24.8s26,27.9,24.8,29.1
				C60.2,142.1,47.2,131,32.3,116.1z"/>
		</g>
		<g>
			
				<radialGradient id="SVGID_59_" cx="-911.4284" cy="7613.7446" r="37.8579" gradientTransform="matrix(4.499940e-11 -1 7.294127e-02 3.282313e-12 -250.8325 -779.5284)" gradientUnits="userSpaceOnUse">
				<stop  offset="0" style="stop-color:#FFFFFF"/>
				<stop  offset="1" style="stop-color:#FFFFFF;stop-opacity:0"/>
			</radialGradient>
			<ellipse class="st60" cx="304.5" cy="131.9" rx="3" ry="38.1"/>
			
				<radialGradient id="SVGID_60_" cx="225.1557" cy="10319.1289" r="37.8635" gradientTransform="matrix(0.7071 -0.7071 5.157726e-02 5.157726e-02 -386.9042 -241.089)" gradientUnits="userSpaceOnUse">
				<stop  offset="0" style="stop-color:#FFFFFF"/>
				<stop  offset="1" style="stop-color:#FFFFFF;stop-opacity:0"/>
			</radialGradient>
			<path class="st61" d="M306.7,134.1c-14.9,14.9-27.9,26-29.1,24.8s9.9-14.2,24.8-29.1s27.9-26,29.1-24.8S321.6,119.2,306.7,134.1z
				"/>
			
				<radialGradient id="SVGID_61_" cx="49.3668" cy="6224.856" r="37.8904" gradientTransform="matrix(1 0 0 7.294127e-02 255.1332 -322.1011)" gradientUnits="userSpaceOnUse">
				<stop  offset="0" style="stop-color:#FFFFFF"/>
				<stop  offset="1" style="stop-color:#FFFFFF;stop-opacity:0"/>
			</radialGradient>
			<ellipse class="st62" cx="304.5" cy="131.9" rx="38.1" ry="3"/>
			
				<radialGradient id="SVGID_62_" cx="-1335.7056" cy="-2270.6985" r="37.8733" gradientTransform="matrix(0.7071 0.7071 -5.157726e-02 5.157726e-02 1131.8989 1193.5558)" gradientUnits="userSpaceOnUse">
				<stop  offset="0" style="stop-color:#FFFFFF"/>
				<stop  offset="1" style="stop-color:#FFFFFF;stop-opacity:0"/>
			</radialGradient>
			<path class="st63" d="M302.4,134.1c-14.9-14.9-26-27.9-24.8-29.1s14.2,9.9,29.1,24.8s26,27.9,24.8,29.1
				C330.3,160.1,317.3,149,302.4,134.1z"/>
		</g>
		<g>
			
				<radialGradient id="SVGID_63_" cx="-1161.8092" cy="7703.8228" r="37.8558" gradientTransform="matrix(4.499940e-11 -1 7.294127e-02 3.282313e-12 -507.7267 -939.7092)" gradientUnits="userSpaceOnUse">
				<stop  offset="0" style="stop-color:#FFFFFF"/>
				<stop  offset="1" style="stop-color:#FFFFFF;stop-opacity:0"/>
			</radialGradient>
			<ellipse class="st64" cx="54.2" cy="222.1" rx="3" ry="38.1"/>
			
				<radialGradient id="SVGID_64_" cx="111.8601" cy="10559.8682" r="37.8777" gradientTransform="matrix(0.7071 -0.7071 5.157726e-02 5.157726e-02 -569.55 -243.4576)" gradientUnits="userSpaceOnUse">
				<stop  offset="0" style="stop-color:#FFFFFF"/>
				<stop  offset="1" style="stop-color:#FFFFFF;stop-opacity:0"/>
			</radialGradient>
			<path class="st65" d="M56.3,224.2c-14.9,14.9-27.9,26-29.1,24.8s9.9-14.2,24.8-29.1s27.9-26,29.1-24.8
				C82.4,196.3,71.2,209.3,56.3,224.2z"/>
			
				<radialGradient id="SVGID_65_" cx="139.5248" cy="6475.1753" r="37.8817" gradientTransform="matrix(1 0 0 7.294127e-02 -85.3248 -250.2211)" gradientUnits="userSpaceOnUse">
				<stop  offset="0" style="stop-color:#FFFFFF"/>
				<stop  offset="1" style="stop-color:#FFFFFF;stop-opacity:0"/>
			</radialGradient>
			<ellipse class="st66" cx="54.2" cy="222.1" rx="38.1" ry="3"/>
			
				<radialGradient id="SVGID_66_" cx="-1094.9766" cy="-2157.4336" r="37.8784" gradientTransform="matrix(0.7071 0.7071 -5.157726e-02 5.157726e-02 717.1923 1107.6234)" gradientUnits="userSpaceOnUse">
				<stop  offset="0" style="stop-color:#FFFFFF"/>
				<stop  offset="1" style="stop-color:#FFFFFF;stop-opacity:0"/>
			</radialGradient>
			<path class="st67" d="M52.1,224.2c-14.9-14.9-26-27.9-24.8-29.1s14.2,9.9,29.1,24.8s26,27.9,24.8,29.1S67,239.1,52.1,224.2z"/>
		</g>
		<g>
			
				<radialGradient id="SVGID_67_" cx="-1085.7496" cy="7718.4355" r="37.8619" gradientTransform="matrix(4.499940e-11 -1 7.294127e-02 3.282313e-12 -432.7812 -849.1497)" gradientUnits="userSpaceOnUse">
				<stop  offset="0" style="stop-color:#FFFFFF"/>
				<stop  offset="1" style="stop-color:#FFFFFF;stop-opacity:0"/>
			</radialGradient>
			<ellipse class="st68" cx="130.2" cy="236.6" rx="3" ry="38.1"/>
			
				<radialGradient id="SVGID_68_" cx="175.9279" cy="10516.4141" r="37.8626" gradientTransform="matrix(0.7071 -0.7071 5.157726e-02 5.157726e-02 -536.5812 -181.384)" gradientUnits="userSpaceOnUse">
				<stop  offset="0" style="stop-color:#FFFFFF"/>
				<stop  offset="1" style="stop-color:#FFFFFF;stop-opacity:0"/>
			</radialGradient>
			<path class="st69" d="M132.4,238.8c-14.9,14.9-27.9,26-29.1,24.8s9.9-14.2,24.8-29.1s27.9-26,29.1-24.8S147.2,223.9,132.4,238.8z
				"/>
			
				<radialGradient id="SVGID_69_" cx="154.0702" cy="6399.168" r="37.8849" gradientTransform="matrix(1 0 0 7.294127e-02 -23.8702 -230.1246)" gradientUnits="userSpaceOnUse">
				<stop  offset="0" style="stop-color:#FFFFFF"/>
				<stop  offset="1" style="stop-color:#FFFFFF;stop-opacity:0"/>
			</radialGradient>
			<ellipse class="st70" cx="130.2" cy="236.6" rx="38.1" ry="3"/>
			
				<radialGradient id="SVGID_70_" cx="-1138.4034" cy="-2221.4688" r="37.8658" gradientTransform="matrix(0.7071 0.7071 -5.157726e-02 5.157726e-02 820.624 1156.2061)" gradientUnits="userSpaceOnUse">
				<stop  offset="0" style="stop-color:#FFFFFF"/>
				<stop  offset="1" style="stop-color:#FFFFFF;stop-opacity:0"/>
			</radialGradient>
			<path class="st71" d="M128.1,238.8c-14.9-14.9-26-27.9-24.8-29.1s14.2,9.9,29.1,24.8s26,27.9,24.8,29.1S143,253.7,128.1,238.8z"
				/>
		</g>
	</g>
</g>
</svg>
