<?xml version="1.0" encoding="utf-8"?>
<!-- Generator: Adobe Illustrator 21.1.0, SVG Export Plug-In . SVG Version: 6.00 Build 0)  -->
<svg version="1.1" id="Layer_1" xmlns="http://www.w3.org/2000/svg" xmlns:xlink="http://www.w3.org/1999/xlink" x="0px" y="0px"
	 viewBox="0 0 139 147" style="enable-background:new 0 0 139 147;" xml:space="preserve">
<style type="text/css">
	.st0{fill:#480979;}
	.st1{fill:#F8F7F5;}
	.st2{fill:#631E97;}
	.st3{fill:#EAE573;}
	.st4{fill:url(#SVGID_1_);}
	.st5{fill:#E2E3DD;}
	.st6{fill:#F8F8F7;}
	.st7{fill:url(#SVGID_2_);}
	.st8{fill:url(#SVGID_3_);}
	.st9{fill:url(#SVGID_4_);}
	.st10{fill:url(#SVGID_5_);}
	.st11{fill:url(#SVGID_6_);}
	.st12{fill:url(#SVGID_7_);}
	.st13{fill:url(#SVGID_8_);}
	.st14{fill:url(#SVGID_9_);}
	.st15{fill:url(#SVGID_10_);}
	.st16{fill:url(#SVGID_11_);}
	.st17{fill:url(#SVGID_12_);}
	.st18{fill:url(#SVGID_13_);}
	.st19{fill:url(#SVGID_14_);}
	.st20{fill:#FFFFFF;}
	.st21{font-family:'Charter-BoldItalic';}
	.st22{font-size:59.5024px;}
</style>
<g>
	<g>
		<path class="st0" d="M118.2,62.8c-0.7-3.2-1.6-6.2-2.9-9.1c-1.2-2.8-2.6-5.4-4.3-7.9c-1.8-2.7-3.8-5.1-6.1-7.4
			c-2.4-2.4-5-4.5-7.8-6.3c-2.7-1.7-5.5-3.2-8.5-4.4c-2.7-1.1-5.6-2-8.6-2.6c-0.7-0.1-1.4-0.3-2.1-0.4c-0.2,0-0.4-0.1-0.7-0.1
			c-0.5-0.1-1-0.1-1.5-0.2c-0.2,0-0.5-0.1-0.7-0.1c-0.6-0.1-1.3-0.1-1.9-0.1l-0.2,0c-0.8,0-1.6-0.1-2.4-0.1c-0.8,0-1.7,0-2.5,0.1h0
			h0h0l-0.2,0c-0.7,0-1.4,0.1-2.1,0.2c-0.2,0-0.5,0.1-0.7,0.1c-0.5,0.1-1.1,0.1-1.6,0.2c-0.2,0-0.5,0.1-0.7,0.1
			c-0.7,0.1-1.5,0.3-2.2,0.4c-3.2,0.7-6.2,1.6-9.1,2.9c-2.8,1.2-5.4,2.6-7.9,4.3c-2.7,1.8-5.1,3.8-7.4,6.1c-2.4,2.4-4.5,5-6.3,7.8
			c-1.7,2.7-3.2,5.5-4.4,8.5c-1.1,2.7-2,5.6-2.6,8.6c-0.6,3.1-0.9,6.2-0.9,9.5c0,3.4,0.4,6.8,1,10c0.7,3.2,1.6,6.2,2.9,9.1
			c1.2,2.8,2.6,5.4,4.3,7.9c1.8,2.7,3.8,5.1,6.1,7.4c2.4,2.4,5,4.5,7.8,6.3c2.7,1.7,5.5,3.2,8.5,4.4c2.7,1.1,5.6,2,8.6,2.6
			c0.7,0.1,1.4,0.3,2.1,0.4c0.2,0,0.4,0.1,0.6,0.1c0.5,0.1,1,0.1,1.5,0.2c0.2,0,0.5,0.1,0.7,0.1c0.6,0.1,1.3,0.1,1.9,0.1
			c0.9,0,1.7,0.1,2.6,0.1c3.4,0,6.8-0.4,10-1c3.2-0.7,6.2-1.6,9.1-2.9c2.8-1.2,5.4-2.6,7.9-4.3c2.7-1.8,5.1-3.8,7.4-6.1
			c2.4-2.4,4.5-5,6.3-7.8c1.7-2.7,3.2-5.5,4.4-8.5c1.1-2.7,2-5.6,2.6-8.6c0.6-3.1,0.9-6.2,0.9-9.5C119.3,69.4,118.9,66.1,118.2,62.8
			z M78.7,24.9c-0.1,0-0.3-0.1-0.4-0.1C78.4,24.9,78.6,24.9,78.7,24.9z M77.2,24.7c-0.4,0-0.7-0.1-1.1-0.1
			C76.4,24.6,76.8,24.6,77.2,24.7z M75.2,24.5c-0.6-0.1-1.2-0.1-1.8-0.1C73.9,24.4,74.5,24.4,75.2,24.5z M67.9,24.3
			c-0.7,0-1.3,0.1-2,0.2C66.6,24.4,67.3,24.4,67.9,24.3z M65,24.6c-0.4,0-0.8,0.1-1.2,0.2C64.2,24.7,64.6,24.6,65,24.6z M62.7,24.9
			c-0.1,0-0.3,0.1-0.4,0.1C62.4,25,62.5,24.9,62.7,24.9z M62.6,120.7c0.1,0,0.3,0.1,0.4,0.1C62.9,120.8,62.8,120.8,62.6,120.7z
			 M64.2,121c0.4,0,0.7,0.1,1.1,0.1C64.9,121.1,64.6,121,64.2,121z M66.2,121.2c0.6,0.1,1.2,0.1,1.8,0.1
			C67.4,121.3,66.8,121.3,66.2,121.2z"/>
		<path class="st1" d="M23.5,93c-1.3-3.1-2.3-6.3-3-9.6c-0.3-1.4-0.5-2.8-0.7-4.2L7.6,80.7c0.2,1.8,0.5,3.5,0.9,5.2
			c0.9,4.1,2.1,8.1,3.8,11.9c0.3,0.7,0.6,1.4,1,2.1l11-5.2C24,94.2,23.7,93.6,23.5,93z"/>
		<path class="st1" d="M123.8,107.7l-10.2-6.7c-1.9,2.9-4.2,5.7-6.6,8.2c-1.3,1.3-2.8,2.6-4.2,3.8l7.6,9.5c1.8-1.5,3.6-3,5.2-4.7
			C118.7,114.7,121.4,111.3,123.8,107.7z"/>
		<path class="st1" d="M51.6,120.5c-2.3-0.9-4.6-2-6.7-3.3l-6.1,10.5c2.7,1.6,5.5,2.9,8.4,4.1c3.3,1.3,6.7,2.4,10.3,3.1l2.6-11.9
			C57,122.4,54.2,121.6,51.6,120.5z"/>
		<path class="st1" d="M117.9,52.6c1.3,3.1,2.3,6.3,3,9.6c0.3,1.4,0.5,2.8,0.7,4.2l12.1-1.5c-0.2-1.8-0.5-3.5-0.9-5.2
			c-0.9-4.1-2.1-8.1-3.8-11.9c-0.3-0.7-0.6-1.4-1-2.1l-11,5.2C117.4,51.5,117.6,52.1,117.9,52.6z"/>
		<path class="st1" d="M89.8,25.2c2.3,0.9,4.6,2,6.8,3.3l6.1-10.5c-2.7-1.6-5.5-2.9-8.4-4.1c-3.3-1.3-6.7-2.4-10.3-3.1l-2.6,11.9
			C84.3,23.3,87.1,24.1,89.8,25.2z"/>
		<path class="st2" d="M133.7,64.9l-12.1,1.5l0,0c-0.2-1.4-0.4-2.8-0.7-4.2c-0.7-3.3-1.7-6.6-3-9.6c-0.2-0.6-0.5-1.1-0.8-1.7l0,0
			l11-5.2c-1.3-2.8-2.9-5.6-4.6-8.2c-2.3-3.5-5-6.7-7.9-9.6c-3.1-3.1-6.5-5.9-10.2-8.3c-0.9-0.6-1.8-1.1-2.7-1.7l-6.1,10.5l0,0
			c-2.2-1.3-4.4-2.4-6.8-3.3c-2.7-1.1-5.4-1.9-8.3-2.5L84,10.7c-0.3-0.1-0.6-0.1-0.9-0.2c-4-0.8-8.2-1.2-12.4-1.2
			c-4.5,0-8.9,0.5-13.1,1.4c-4.1,0.9-8.1,2.1-11.9,3.8c-3.6,1.5-7,3.4-10.3,5.6c-1.5,1-3,2.1-4.4,3.2l7.6,9.5
			c-1.5,1.2-2.9,2.4-4.2,3.8c-2.5,2.5-4.8,5.3-6.7,8.3l0.1-0.1L17.5,38l-0.1,0.1c-2.3,3.5-4.2,7.2-5.8,11.1
			c-1.4,3.6-2.6,7.3-3.3,11.2c-0.8,4-1.2,8.2-1.2,12.4c0,2.7,0.2,5.3,0.5,7.9l12.1-1.5v0c0.2,1.4,0.4,2.8,0.7,4.2
			c0.7,3.3,1.7,6.6,3,9.6c0.2,0.6,0.5,1.1,0.8,1.7l-11,5.2c1.3,2.8,2.9,5.6,4.6,8.2c2.3,3.5,5,6.7,7.9,9.6c3.1,3.1,6.5,5.9,10.2,8.3
			c0.9,0.6,1.8,1.1,2.7,1.7l6.1-10.5l0,0c2.2,1.3,4.4,2.4,6.8,3.3c2.9,1.2,5.9,2.1,9.1,2.7c-0.3-0.1-0.5-0.1-0.8-0.2l-2.6,11.9
			c0.3,0.1,0.6,0.1,0.9,0.2c4,0.8,8.2,1.2,12.4,1.2c4.5,0,8.9-0.5,13.1-1.4c4.1-0.9,8.1-2.1,11.9-3.8c3.6-1.5,7-3.4,10.3-5.6
			c1.5-1,3-2.1,4.4-3.2l-7.6-9.5c1.5-1.2,2.9-2.4,4.2-3.8c2.5-2.5,4.7-5.2,6.6-8.2l10.2,6.7l0.1-0.1c2.3-3.5,4.2-7.2,5.8-11.1
			c1.4-3.6,2.6-7.3,3.3-11.2c0.8-4,1.2-8.2,1.2-12.4C134.2,70.2,134,67.5,133.7,64.9z M116.4,49.6c-0.1-0.2-0.2-0.4-0.3-0.5
			C116.2,49.2,116.3,49.4,116.4,49.6z M114.5,46.1c-0.4-0.6-0.7-1.2-1.1-1.8C113.8,44.9,114.1,45.5,114.5,46.1z M115.5,47.9
			c-0.2-0.3-0.3-0.6-0.5-0.9C115.2,47.3,115.3,47.6,115.5,47.9z M42.2,30.1c-0.6,0.4-1.2,0.8-1.8,1.3C41,31,41.6,30.6,42.2,30.1z
			 M19.6,77.5l0,0.2L19.6,77.5z M19.4,74.4c0,0.1,0,0.2,0,0.4C19.4,74.6,19.4,74.5,19.4,74.4z M19.4,75.9c0,0.1,0,0.2,0,0.4
			C19.5,76.1,19.5,76,19.4,75.9z M24.9,96.1c0.1,0.2,0.2,0.4,0.3,0.5C25.1,96.5,25,96.3,24.9,96.1z M26.9,99.6
			c0.4,0.6,0.7,1.2,1.1,1.8C27.6,100.7,27.2,100.2,26.9,99.6z M25.8,97.8c0.2,0.3,0.3,0.6,0.5,0.9C26.2,98.4,26,98.1,25.8,97.8z
			 M99.2,115.5c0.6-0.4,1.2-0.8,1.8-1.3C100.4,114.7,99.8,115.1,99.2,115.5z M108,97.2c-1.7,2.6-3.6,5-5.8,7.2
			c-2.1,2.1-4.3,3.9-6.8,5.6c-2.3,1.5-4.7,2.8-7.2,3.9c-2.7,1.1-5.5,2-8.4,2.6c-3,0.6-6,1-9.2,1c-3,0-5.9-0.3-8.7-0.9
			c-2.7-0.5-5.3-1.3-7.9-2.3c-2.7-1.1-5.3-2.5-7.8-4.1c-2.6-1.7-5-3.6-7.2-5.8c-2.1-2.1-3.9-4.3-5.6-6.8c-1.5-2.3-2.8-4.7-3.9-7.2
			c-1.1-2.7-2-5.5-2.6-8.4c-0.6-3-1-6-1-9.2c0-3,0.3-5.9,0.9-8.7c0.5-2.7,1.3-5.3,2.3-7.9c1.1-2.7,2.5-5.3,4.1-7.8
			c1.7-2.6,3.6-5,5.8-7.2c2.1-2.1,4.3-3.9,6.8-5.6c2.3-1.5,4.7-2.8,7.2-3.9c2.7-1.1,5.5-2,8.4-2.6c3-0.6,6-1,9.2-1
			c3,0,5.9,0.3,8.7,0.9c2.7,0.5,5.3,1.3,7.9,2.3c2.7,1.1,5.3,2.5,7.8,4.1c2.6,1.7,5,3.6,7.2,5.8c2.1,2.1,3.9,4.3,5.6,6.8
			c1.5,2.3,2.8,4.7,3.9,7.2c1.1,2.7,2,5.5,2.6,8.4c0.6,3,1,6,1,9.2c0,3-0.3,5.9-0.9,8.7c-0.5,2.7-1.3,5.3-2.3,7.9
			C111,92.2,109.6,94.8,108,97.2z M121.8,67.9l0,0.2L121.8,67.9z M121.9,69.4c0,0.1,0,0.2,0,0.3C121.9,69.6,121.9,69.5,121.9,69.4z
			 M122,70.9c0,0.1,0,0.2,0,0.4C122,71.2,122,71.1,122,70.9z"/>
		<path class="st1" d="M34.4,36.5c1.3-1.3,2.8-2.6,4.2-3.8L31,23.2c-1.8,1.5-3.6,3-5.2,4.7c-3.1,3.1-5.8,6.5-8.2,10.1l10.2,6.7
			C29.7,41.8,31.9,39,34.4,36.5z"/>
		<path class="st3" d="M110.8,64.4c-0.6-2.7-1.4-5.2-2.4-7.7c-1-2.3-2.2-4.5-3.6-6.6c-1.5-2.2-3.2-4.3-5.1-6.2c-2-2-4.2-3.8-6.6-5.3
			c-2.2-1.5-4.6-2.7-7.1-3.7c-2.3-0.9-4.7-1.7-7.2-2.2c-2.6-0.5-5.3-0.8-8-0.8c-2.9,0-5.7,0.3-8.5,0.9c-2.7,0.6-5.2,1.4-7.7,2.4
			c-2.3,1-4.5,2.2-6.6,3.6c-2.2,1.5-4.3,3.2-6.2,5.1c-2,2-3.8,4.2-5.3,6.6c-1.5,2.2-2.7,4.6-3.7,7.1c-0.9,2.3-1.7,4.7-2.2,7.2
			c-0.5,2.6-0.8,5.3-0.8,8c0,2.9,0.3,5.7,0.9,8.5c0.6,2.7,1.4,5.2,2.4,7.7c1,2.3,2.2,4.5,3.6,6.6c1.5,2.2,3.2,4.3,5.1,6.2
			c2,2,4.2,3.8,6.6,5.3c2.2,1.5,4.6,2.7,7.1,3.7c2.3,0.9,4.7,1.7,7.2,2.2c2,0.4,4,0.6,6,0.7c-2-0.1-4-0.3-5.9-0.7
			c-2.5-0.5-4.9-1.2-7.1-2.1c-2.5-1-4.8-2.2-7.1-3.7c-2.4-1.5-4.5-3.3-6.5-5.3c-1.9-1.9-3.6-3.9-5-6.2c-1.4-2.1-2.6-4.2-3.6-6.5
			c-1-2.4-1.8-5-2.4-7.6c-0.6-2.7-0.9-5.5-0.9-8.4c0-2.7,0.3-5.4,0.8-7.9c0.5-2.5,1.2-4.9,2.1-7.1c1-2.5,2.2-4.8,3.7-7.1
			c1.5-2.4,3.3-4.5,5.3-6.5c1.9-1.9,3.9-3.6,6.2-5c2.1-1.4,4.2-2.6,6.5-3.6c2.4-1,5-1.8,7.6-2.4c2.7-0.6,5.5-0.9,8.4-0.9
			c2.7,0,5.4,0.3,7.9,0.8c2.5,0.5,4.9,1.2,7.1,2.1c2.5,1,4.8,2.2,7.1,3.7c2.4,1.5,4.5,3.3,6.5,5.3c1.9,1.9,3.6,3.9,5,6.2
			c1.4,2.1,2.6,4.2,3.6,6.5c1,2.4,1.8,5,2.4,7.6c0.6,2.7,0.9,5.5,0.9,8.4c0,2.7-0.3,5.4-0.8,7.9c-0.5,2.5-1.2,4.9-2.1,7.1
			c-1,2.5-2.2,4.8-3.7,7.1c-1.5,2.4-3.3,4.5-5.3,6.5c-1.9,1.9-3.9,3.6-6.2,5c-2.1,1.4-4.2,2.6-6.5,3.6c-2.4,1-5,1.8-7.6,2.4
			c-2.7,0.6-5.5,0.9-8.4,0.9c2.9,0,5.7-0.3,8.5-0.9c2.7-0.6,5.2-1.4,7.7-2.4c2.3-1,4.5-2.2,6.6-3.6c2.2-1.5,4.3-3.2,6.2-5.1
			c2-2,3.8-4.2,5.3-6.6c1.5-2.2,2.7-4.6,3.7-7.1c0.9-2.3,1.7-4.7,2.2-7.2c0.5-2.6,0.8-5.3,0.8-8C111.7,69.9,111.4,67.1,110.8,64.4z"
			/>
		
			<linearGradient id="SVGID_1_" gradientUnits="userSpaceOnUse" x1="124.1165" y1="657.2357" x2="125.1165" y2="657.2357" gradientTransform="matrix(-64.2086 -64.2086 -64.2086 64.2086 50272.4023 -34125.8008)">
			<stop  offset="0" style="stop-color:#4200B3"/>
			<stop  offset="0.3053" style="stop-color:#4302A5"/>
			<stop  offset="0.8759" style="stop-color:#470882"/>
			<stop  offset="1" style="stop-color:#480979"/>
		</linearGradient>
		<path class="st4" d="M32.6,48c-1.6,2.5-3,5.2-4.1,7.9c-1,2.6-1.8,5.3-2.4,8c-0.6,2.9-0.9,5.9-0.9,8.9c0,3.1,0.3,6.3,1,9.4
			c0.6,2.9,1.5,5.7,2.7,8.5c1.1,2.5,2.4,5,4,7.3c1.6,2.4,3.5,4.8,5.7,6.9c2.3,2.3,4.7,4.2,7.3,5.9c2.5,1.6,5.2,3,7.9,4.1
			c2.6,1,5.3,1.8,8,2.4c2.9,0.6,5.9,0.9,8.9,0.9c3.1,0,6.3-0.3,9.4-1c2.9-0.6,5.7-1.5,8.5-2.7c2.5-1.1,5-2.4,7.3-4
			c2.4-1.6,4.7-3.5,6.9-5.7c2.3-2.3,4.2-4.7,5.9-7.3c1.6-2.5,3-5.2,4.1-7.9c1-2.6,1.8-5.3,2.4-8c0.6-2.9,0.9-5.9,0.9-8.9
			c0-3.1-0.3-6.3-1-9.4c-0.6-2.9-1.5-5.7-2.7-8.5c-1.1-2.5-2.4-5-4-7.3c-1.6-2.4-3.5-4.7-5.7-6.9c-2.3-2.3-4.7-4.2-7.3-5.9
			c-2.5-1.6-5.2-3-7.9-4.1c-2.6-1-5.3-1.8-8-2.4c-2.9-0.6-5.9-0.9-8.9-0.9c-3.1,0-6.3,0.3-9.4,1c-2.9,0.6-5.7,1.5-8.5,2.7
			c-2.5,1.1-5,2.4-7.3,4c-2.4,1.6-4.8,3.5-6.9,5.7C36.3,43,34.3,45.5,32.6,48z M54.3,34.5c2.5-1.1,5.2-1.9,7.8-2.5
			c2.8-0.6,5.7-0.9,8.6-0.9c2.7,0,5.5,0.3,8.2,0.8c2.5,0.5,5,1.2,7.4,2.2c2.5,1,5,2.3,7.3,3.8c2.4,1.6,4.6,3.4,6.7,5.4
			c2,2,3.7,4.1,5.2,6.3c1.4,2.2,2.7,4.4,3.6,6.8c1.1,2.5,1.9,5.2,2.5,7.8c0.6,2.8,0.9,5.7,0.9,8.6c0,2.7-0.3,5.5-0.8,8.2
			c-0.5,2.5-1.2,5-2.2,7.4c-1,2.5-2.3,5-3.8,7.3c-1.6,2.4-3.4,4.6-5.4,6.7c-2,2-4.1,3.7-6.3,5.2c-2.2,1.4-4.4,2.7-6.8,3.6
			c-2.5,1.1-5.2,1.9-7.8,2.5c-2.8,0.6-5.7,0.9-8.6,0.9c-2.7,0-5.5-0.3-8.2-0.8c-2.5-0.5-5-1.2-7.4-2.2c-2.5-1-5-2.3-7.3-3.8
			c-2.4-1.6-4.6-3.4-6.7-5.4c-2-2-3.7-4.1-5.2-6.3c-1.4-2.2-2.7-4.4-3.6-6.8c-1.1-2.5-1.9-5.2-2.5-7.8c-0.6-2.8-0.9-5.7-0.9-8.6
			c0-2.7,0.3-5.5,0.8-8.2c0.5-2.5,1.2-5,2.2-7.4c1-2.5,2.3-5,3.8-7.3c1.5-2.4,3.4-4.6,5.4-6.7c2-2,4.1-3.7,6.3-5.2
			C49.7,36.7,51.9,35.5,54.3,34.5z"/>
		<path class="st0" d="M104.8,50.1l3-2c-1.6-2.4-3.5-4.7-5.6-6.8l-2.5,2.5C101.6,45.7,103.3,47.8,104.8,50.1z"/>
		<path class="st5" d="M108.4,56.7l3.3-1.4c-1.1-2.5-2.4-4.9-3.9-7.2l-3,2C106.2,52.2,107.4,54.4,108.4,56.7z"/>
		<path class="st0" d="M110.8,64.4l3.5-0.7c-0.6-2.9-1.5-5.7-2.6-8.4l-3.3,1.4C109.4,59.2,110.2,61.7,110.8,64.4z"/>
		<path class="st5" d="M99.7,101.8l2.5,2.5c2.2-2.2,4.1-4.6,5.8-7.2l-3-2C103.5,97.6,101.7,99.8,99.7,101.8z"/>
		<path class="st5" d="M32.6,57.6l-3.3-1.3c-1,2.5-1.8,5.1-2.3,7.9l3.5,0.7C31,62.3,31.7,59.9,32.6,57.6z"/>
		<path class="st0" d="M30.5,81.3L27,82c0.6,2.9,1.5,5.7,2.6,8.4L33,89C31.9,86.5,31.1,84,30.5,81.3z"/>
		<path class="st0" d="M30.5,64.8l-3.5-0.7c-0.6,2.8-0.9,5.7-0.9,8.7h3.6C29.7,70.1,29.9,67.4,30.5,64.8z"/>
		<path class="st5" d="M29.7,72.8h-3.6c0,3.2,0.3,6.2,1,9.2l3.5-0.7C30,78.6,29.7,75.7,29.7,72.8z"/>
		<path class="st5" d="M33,89l-3.3,1.4c1.1,2.5,2.4,4.9,3.9,7.2l3-2C35.2,93.5,34,91.3,33,89z"/>
		<path class="st5" d="M41.7,101.8l-2.5,2.5c2.2,2.2,4.6,4.1,7.2,5.8l2-3C45.9,105.6,43.7,103.8,41.7,101.8z"/>
		<path class="st0" d="M36.6,95.6l-3,2c1.6,2.4,3.5,4.7,5.6,6.8l2.5-2.5C39.8,99.9,38.1,97.8,36.6,95.6z"/>
		<path class="st0" d="M48.3,107.2l-2,3c2.4,1.6,5,3,7.8,4.1l1.3-3.3C52.9,109.9,50.5,108.6,48.3,107.2z"/>
		<path class="st0" d="M36.3,50.4l-3-2c-1.6,2.4-3,5-4.1,7.8l3.3,1.3C33.6,55.1,34.9,52.7,36.3,50.4z"/>
		<path class="st5" d="M70.7,31.8v-3.6c-3.2,0-6.2,0.3-9.2,1l0.7,3.5C65,32.1,67.8,31.8,70.7,31.8z"/>
		<path class="st5" d="M54.5,35.1l-1.4-3.3c-2.5,1.1-4.9,2.4-7.2,3.9l2,3C50,37.3,52.2,36.1,54.5,35.1z"/>
		<path class="st0" d="M62.2,32.7l-0.7-3.5c-2.9,0.6-5.7,1.5-8.4,2.6l1.4,3.3C57,34.1,59.6,33.3,62.2,32.7z"/>
		<path class="st5" d="M41.7,43.9l-2.5-2.5c-2.2,2.2-4.1,4.6-5.8,7.2l3,2C37.9,48.1,39.7,45.9,41.7,43.9z"/>
		<path class="st0" d="M47.9,38.7l-2-3c-2.4,1.6-4.7,3.5-6.8,5.6l2.5,2.5C43.6,42,45.7,40.2,47.9,38.7z"/>
		<path class="st5" d="M110.8,64.4c0.6,2.7,0.9,5.6,0.9,8.5h3.6c0-3.2-0.3-6.2-1-9.2L110.8,64.4z"/>
		<path class="st0" d="M110.9,80.9l3.5,0.7c0.6-2.8,0.9-5.7,0.9-8.7h-3.6C111.7,75.6,111.4,78.3,110.9,80.9z"/>
		<path class="st5" d="M99.7,43.9l2.5-2.5c-2.2-2.2-4.6-4.1-7.2-5.8l-2,3C95.4,40.1,97.7,41.8,99.7,43.9z"/>
		<path class="st5" d="M108.7,88.1l3.3,1.3c1-2.5,1.8-5.1,2.3-7.9l-3.5-0.7C110.4,83.4,109.7,85.8,108.7,88.1z"/>
		<path class="st5" d="M55.4,110.9l-1.3,3.3c2.5,1,5.1,1.8,7.9,2.3l0.7-3.5C60.2,112.6,57.7,111.8,55.4,110.9z"/>
		<path class="st0" d="M93.1,38.5l2-3c-2.4-1.6-5-3-7.8-4.1l-1.3,3.3C88.4,35.8,90.8,37,93.1,38.5z"/>
		<path class="st5" d="M85.9,34.8l1.3-3.3c-2.5-1-5.1-1.8-7.9-2.3l-0.7,3.5C81.2,33.1,83.6,33.8,85.9,34.8z"/>
		<path class="st0" d="M105,95.2l3,2c1.6-2.4,3-5,4.1-7.8l-3.3-1.3C107.7,90.6,106.5,93,105,95.2z"/>
		<path class="st5" d="M70.7,113.8v3.6c3.2,0,6.2-0.3,9.2-1l-0.7-3.5C76.4,113.5,73.6,113.8,70.7,113.8z"/>
		<path class="st0" d="M78.7,32.6l0.7-3.5c-2.8-0.6-5.7-0.9-8.7-0.9v3.6C73.4,31.8,76.1,32.1,78.7,32.6z"/>
		<path class="st0" d="M62.7,113.1l-0.7,3.5c2.8,0.6,5.7,0.9,8.7,0.9v-3.6C67.9,113.8,65.3,113.6,62.7,113.1z"/>
		<path class="st0" d="M79.1,113l0.7,3.5c2.9-0.6,5.7-1.5,8.4-2.6l-1.4-3.3C84.4,111.6,81.8,112.4,79.1,113z"/>
		<path class="st5" d="M86.8,110.5l1.4,3.3c2.5-1.1,4.9-2.4,7.2-3.9l-2-3C91.4,108.3,89.1,109.5,86.8,110.5z"/>
		<path class="st0" d="M93.4,106.9l2,3c2.4-1.6,4.7-3.5,6.8-5.6l-2.5-2.5C97.8,103.7,95.7,105.4,93.4,106.9z"/>
		<path class="st0" d="M20,80.9c0,0.1,0,0.3,0.1,0.4C20,81.2,20,81.1,20,80.9z"/>
		<path class="st0" d="M107,109.1c2.5-2.5,4.7-5.2,6.6-8.2C111.7,103.9,109.4,106.6,107,109.1z"/>
		<path class="st0" d="M55.7,121.9c1.4,0.4,2.8,0.8,4.2,1.1C58.5,122.7,57.1,122.3,55.7,121.9z"/>
		<path class="st0" d="M53.7,121.3c0.6,0.2,1.1,0.4,1.7,0.5C54.8,121.6,54.2,121.5,53.7,121.3z"/>
		<path class="st0" d="M121.3,64.3l0,0.2L121.3,64.3z"/>
		<path class="st6" d="M30.9,40.5c-1.1,1.4-2.1,2.8-3.1,4.2C28.7,43.2,29.8,41.8,30.9,40.5z"/>
		<path class="st6" d="M32.6,38.5c-0.5,0.6-1.1,1.2-1.6,1.8C31.5,39.7,32,39.1,32.6,38.5z"/>
		
			<linearGradient id="SVGID_2_" gradientUnits="userSpaceOnUse" x1="98.2971" y1="783.0438" x2="99.2962" y2="783.0438" gradientTransform="matrix(3.7452 -1.1097 -1.1097 -3.7452 508.6393 3132.832)">
			<stop  offset="0" style="stop-color:#8F8D90"/>
			<stop  offset="8.237898e-02" style="stop-color:#9C9B9D"/>
			<stop  offset="0.3703" style="stop-color:#C7C6C7"/>
			<stop  offset="0.6293" style="stop-color:#E6E5E6"/>
			<stop  offset="0.8481" style="stop-color:#F8F8F8"/>
			<stop  offset="1" style="stop-color:#FFFFFF"/>
		</linearGradient>
		<path class="st7" d="M14,99.5c-0.3-0.7-0.6-1.4-0.9-2.1c-1.6-3.7-2.8-7.7-3.7-11.7c-0.4-1.7-0.6-3.4-0.8-5.1l-0.9,0.1
			c0.2,1.8,0.5,3.5,0.9,5.2c0.9,4.1,2.1,8.1,3.8,11.9c0.3,0.7,0.6,1.4,1,2.1L14,99.5z"/>
		
			<linearGradient id="SVGID_3_" gradientUnits="userSpaceOnUse" x1="179.9355" y1="637.9597" x2="180.9356" y2="637.9597" gradientTransform="matrix(-5.3902 -5.3902 -5.3902 5.3902 4529.0781 -2350.417)">
			<stop  offset="0" style="stop-color:#8F8D90"/>
			<stop  offset="8.237898e-02" style="stop-color:#9C9B9D"/>
			<stop  offset="0.3703" style="stop-color:#C7C6C7"/>
			<stop  offset="0.6293" style="stop-color:#E6E5E6"/>
			<stop  offset="0.8481" style="stop-color:#F8F8F8"/>
			<stop  offset="1" style="stop-color:#FFFFFF"/>
		</linearGradient>
		<path class="st8" d="M114.9,117.1c-1.6,1.6-3.4,3.2-5.2,4.6l0.6,0.7c1.8-1.5,3.6-3,5.2-4.7c3.1-3.1,5.8-6.5,8.2-10.1l-0.8-0.5
			C120.7,110.7,118,114.1,114.9,117.1z"/>
		
			<linearGradient id="SVGID_4_" gradientUnits="userSpaceOnUse" x1="203.2954" y1="749.4918" x2="204.2947" y2="749.4918" gradientTransform="matrix(1.4311 -3.7061 -3.7061 -1.4311 2533.9192 1959.5439)">
			<stop  offset="0" style="stop-color:#8F8D90"/>
			<stop  offset="8.237898e-02" style="stop-color:#9C9B9D"/>
			<stop  offset="0.3703" style="stop-color:#C7C6C7"/>
			<stop  offset="0.6293" style="stop-color:#E6E5E6"/>
			<stop  offset="0.8481" style="stop-color:#F8F8F8"/>
			<stop  offset="1" style="stop-color:#FFFFFF"/>
		</linearGradient>
		<path class="st9" d="M47.4,131c-2.9-1.1-5.6-2.5-8.2-4l-0.5,0.8c2.7,1.6,5.5,2.9,8.4,4.1c3.3,1.3,6.7,2.4,10.3,3.1l0.2-0.9
			C54,133.3,50.6,132.3,47.4,131z"/>
		
			<linearGradient id="SVGID_5_" gradientUnits="userSpaceOnUse" x1="134.9019" y1="589.8625" x2="135.9024" y2="589.8625" gradientTransform="matrix(-6.7547 1.559 1.559 6.7547 126.5378 -4140.2334)">
			<stop  offset="0" style="stop-color:#8F8D90"/>
			<stop  offset="8.237898e-02" style="stop-color:#9C9B9D"/>
			<stop  offset="0.3703" style="stop-color:#C7C6C7"/>
			<stop  offset="0.6293" style="stop-color:#E6E5E6"/>
			<stop  offset="0.8481" style="stop-color:#F8F8F8"/>
			<stop  offset="1" style="stop-color:#FFFFFF"/>
		</linearGradient>
		<path class="st10" d="M128.2,48.2c1.6,3.7,2.8,7.7,3.7,11.7c0.4,1.7,0.6,3.4,0.8,5.1l0.9-0.1c-0.2-1.8-0.5-3.5-0.9-5.2
			c-0.9-4.1-2.1-8.1-3.8-11.9c-0.3-0.7-0.6-1.4-1-2.1l-0.8,0.4C127.6,46.8,127.9,47.5,128.2,48.2z"/>
		
			<linearGradient id="SVGID_6_" gradientUnits="userSpaceOnUse" x1="71.6826" y1="605.8007" x2="72.681" y2="605.8007" gradientTransform="matrix(-2.6351 6.3796 6.3796 2.6351 -3580.4985 -2044.229)">
			<stop  offset="0" style="stop-color:#8F8D90"/>
			<stop  offset="8.237898e-02" style="stop-color:#9C9B9D"/>
			<stop  offset="0.3703" style="stop-color:#C7C6C7"/>
			<stop  offset="0.6293" style="stop-color:#E6E5E6"/>
			<stop  offset="0.8481" style="stop-color:#F8F8F8"/>
			<stop  offset="1" style="stop-color:#FFFFFF"/>
		</linearGradient>
		<path class="st11" d="M94,14.7c2.9,1.1,5.6,2.5,8.2,4l0.5-0.8c-2.7-1.6-5.5-2.9-8.4-4.1c-3.3-1.3-6.7-2.4-10.3-3.1l-0.2,0.9
			C87.3,12.4,90.7,13.4,94,14.7z"/>
		
			<linearGradient id="SVGID_7_" gradientUnits="userSpaceOnUse" x1="170.4424" y1="607.6424" x2="171.4424" y2="607.6424" gradientTransform="matrix(-6.3948 -2.2152 -2.2152 6.3948 2443.5066 -3450.5752)">
			<stop  offset="0" style="stop-color:#3B00B2"/>
			<stop  offset="0.5019" style="stop-color:#3B00B0"/>
			<stop  offset="0.6837" style="stop-color:#3D01A9"/>
			<stop  offset="0.8135" style="stop-color:#40039D"/>
			<stop  offset="0.9178" style="stop-color:#44068D"/>
			<stop  offset="1" style="stop-color:#480979"/>
		</linearGradient>
		<path class="st12" d="M8.6,80.6c-0.3-2.6-0.5-5.2-0.5-7.8c0-4.2,0.4-8.3,1.2-12.2c0.8-3.8,1.9-7.5,3.3-11
			c1.5-3.8,3.4-7.5,5.7-10.9l0.1-0.1L17.5,38l-0.1,0.1c-2.3,3.5-4.2,7.2-5.8,11.1c-1.4,3.6-2.6,7.3-3.3,11.2
			c-0.8,4-1.2,8.2-1.2,12.4c0,2.7,0.2,5.3,0.5,7.9L8.6,80.6z"/>
		
			<linearGradient id="SVGID_8_" gradientUnits="userSpaceOnUse" x1="96.7276" y1="589.0884" x2="97.7276" y2="589.0884" gradientTransform="matrix(-4.8493 4.6142 4.6142 4.8493 -2222.8313 -3189.4741)">
			<stop  offset="0" style="stop-color:#3E00A8"/>
			<stop  offset="0.2815" style="stop-color:#4001A0"/>
			<stop  offset="0.7104" style="stop-color:#44068B"/>
			<stop  offset="1" style="stop-color:#480979"/>
		</linearGradient>
		<path class="st13" d="M39.2,126.9c-0.9-0.5-1.8-1.1-2.7-1.7c-3.6-2.4-7-5.1-10.1-8.2c-2.9-2.9-5.5-6.1-7.8-9.5
			c-1.7-2.6-3.2-5.3-4.6-8.1l-0.8,0.4c1.3,2.8,2.9,5.6,4.6,8.2c2.3,3.5,5,6.7,7.9,9.6c3.1,3.1,6.5,5.9,10.2,8.3
			c0.9,0.6,1.8,1.1,2.7,1.7L39.2,126.9z"/>
		
			<linearGradient id="SVGID_9_" gradientUnits="userSpaceOnUse" x1="81.3309" y1="651.236" x2="82.3306" y2="651.236" gradientTransform="matrix(3.1438 12.3895 12.3895 -3.1438 -8241.1318 1165.2693)">
			<stop  offset="0" style="stop-color:#3B007C"/>
			<stop  offset="0.2118" style="stop-color:#3B0271"/>
			<stop  offset="0.5479" style="stop-color:#3B0468"/>
			<stop  offset="1" style="stop-color:#3B0565"/>
		</linearGradient>
		<path class="st14" d="M109.8,121.7c-1.4,1.1-2.8,2.2-4.3,3.2c-3.2,2.1-6.6,4-10.1,5.5c-3.7,1.6-7.7,2.8-11.7,3.7
			c-4.2,0.9-8.5,1.3-12.9,1.3c-4.2,0-8.3-0.4-12.2-1.2c-0.3-0.1-0.6-0.1-0.9-0.2l-0.2,0.9c0.3,0.1,0.6,0.1,0.9,0.2
			c4,0.8,8.2,1.2,12.4,1.2c4.5,0,8.9-0.5,13.1-1.4c4.1-0.9,8.1-2.1,11.9-3.8c3.6-1.5,7-3.4,10.3-5.6c1.5-1,3-2.1,4.4-3.2
			L109.8,121.7z"/>
		
			<linearGradient id="SVGID_10_" gradientUnits="userSpaceOnUse" x1="92.7425" y1="662.3599" x2="93.7423" y2="662.3599" gradientTransform="matrix(10.1714 15.5348 15.5348 -10.1714 -11112.7148 5370.0093)">
			<stop  offset="0" style="stop-color:#5C1DAB"/>
			<stop  offset="0.5169" style="stop-color:#5B1CA9"/>
			<stop  offset="0.7031" style="stop-color:#591AA2"/>
			<stop  offset="0.8359" style="stop-color:#541597"/>
			<stop  offset="0.9424" style="stop-color:#4D0E86"/>
			<stop  offset="1" style="stop-color:#480979"/>
		</linearGradient>
		<path class="st15" d="M133.7,64.9l-0.9,0.1l0,0c0.3,2.6,0.5,5.2,0.5,7.8c0,4.2-0.4,8.3-1.2,12.2c-0.8,3.8-1.9,7.5-3.3,11
			c-1.5,3.8-3.4,7.5-5.7,10.9l-0.1,0.1l0.8,0.5l0.1-0.1c2.3-3.5,4.2-7.2,5.8-11.1c1.4-3.6,2.6-7.3,3.3-11.2c0.8-4,1.2-8.2,1.2-12.4
			C134.2,70.2,134,67.5,133.7,64.9z"/>
		
			<linearGradient id="SVGID_11_" gradientUnits="userSpaceOnUse" x1="122.8901" y1="716.5117" x2="123.8903" y2="716.5117" gradientTransform="matrix(7.3982 -4.2536 -4.2536 -7.3982 2250.7056 5857.3574)">
			<stop  offset="0" style="stop-color:#3B00B2"/>
			<stop  offset="0.5019" style="stop-color:#3B00B0"/>
			<stop  offset="0.6837" style="stop-color:#3D01A9"/>
			<stop  offset="0.8135" style="stop-color:#40039D"/>
			<stop  offset="0.9178" style="stop-color:#44068D"/>
			<stop  offset="1" style="stop-color:#480979"/>
		</linearGradient>
		<path class="st16" d="M102.2,18.7c0.9,0.5,1.8,1.1,2.7,1.7c3.6,2.4,7,5.1,10.1,8.2c2.9,2.9,5.5,6.1,7.8,9.5
			c1.7,2.6,3.2,5.3,4.6,8.1l0.8-0.4c-1.3-2.8-2.9-5.6-4.6-8.2c-2.3-3.5-5-6.7-7.9-9.6c-3.1-3.1-6.5-5.9-10.2-8.3
			c-0.9-0.6-1.8-1.1-2.7-1.7L102.2,18.7z"/>
		
			<linearGradient id="SVGID_12_" gradientUnits="userSpaceOnUse" x1="223.9871" y1="677.9523" x2="224.987" y2="677.9523" gradientTransform="matrix(-1.2515 -4.4379 -4.4379 1.2515 3344.5083 155.4258)">
			<stop  offset="0" style="stop-color:#3B00B2"/>
			<stop  offset="0.5019" style="stop-color:#3B00B0"/>
			<stop  offset="0.6837" style="stop-color:#3D01A9"/>
			<stop  offset="0.8135" style="stop-color:#40039D"/>
			<stop  offset="0.9178" style="stop-color:#44068D"/>
			<stop  offset="1" style="stop-color:#480979"/>
		</linearGradient>
		<path class="st17" d="M31.6,24c1.4-1.1,2.8-2.2,4.3-3.2c3.2-2.1,6.6-4,10.1-5.5c3.7-1.6,7.7-2.8,11.7-3.7
			c4.2-0.9,8.5-1.3,12.9-1.3c4.2,0,8.3,0.4,12.2,1.2c0.3,0.1,0.6,0.1,0.9,0.2l0.2-0.9c-0.3-0.1-0.6-0.1-0.9-0.2
			c-4-0.8-8.2-1.2-12.4-1.2c-4.5,0-8.9,0.5-13.1,1.4c-4.1,0.9-8.1,2.1-11.9,3.8c-3.6,1.5-7,3.4-10.3,5.6c-1.5,1-3,2.1-4.4,3.2
			L31.6,24z"/>
		
			<linearGradient id="SVGID_13_" gradientUnits="userSpaceOnUse" x1="64.894" y1="679.9749" x2="65.8957" y2="679.9749" gradientTransform="matrix(6.2075 5.75 5.75 -6.2075 -4293.374 3873.8347)">
			<stop  offset="0" style="stop-color:#8F8D90"/>
			<stop  offset="8.237898e-02" style="stop-color:#9C9B9D"/>
			<stop  offset="0.3703" style="stop-color:#C7C6C7"/>
			<stop  offset="0.6293" style="stop-color:#E6E5E6"/>
			<stop  offset="0.8481" style="stop-color:#F8F8F8"/>
			<stop  offset="1" style="stop-color:#FFFFFF"/>
		</linearGradient>
		<path class="st18" d="M26.4,28.6c1.6-1.6,3.4-3.2,5.2-4.6L31,23.2c-1.8,1.5-3.6,3-5.2,4.7c-3.1,3.1-5.8,6.5-8.2,10.1l0.8,0.5
			C20.7,34.9,23.4,31.6,26.4,28.6z"/>
		<circle class="st6" cx="84.2" cy="126.4" r="2.6"/>
		<circle class="st6" cx="57.9" cy="19.3" r="2.6"/>
		<circle class="st6" cx="16.5" cy="63.1" r="2.6"/>
		<circle class="st6" cx="30.9" cy="111" r="2.6"/>
		<circle class="st6" cx="124.1" cy="85.5" r="2.6"/>
		<circle class="st6" cx="111.4" cy="36.1" r="2.6"/>
		
			<linearGradient id="SVGID_14_" gradientUnits="userSpaceOnUse" x1="113.3336" y1="660.9549" x2="114.3336" y2="660.9549" gradientTransform="matrix(57.9976 57.9976 57.9976 -57.9976 -44865.3125 31804.4453)">
			<stop  offset="0" style="stop-color:#4200B3"/>
			<stop  offset="0.3053" style="stop-color:#4302A5"/>
			<stop  offset="0.8759" style="stop-color:#470882"/>
			<stop  offset="1" style="stop-color:#480979"/>
		</linearGradient>
		<path class="st19" d="M105,95.2c1.5-2.3,2.7-4.7,3.7-7.2c0.9-2.4,1.7-4.8,2.1-7.2c0.5-2.6,0.8-5.3,0.8-8c0-2.8-0.3-5.7-0.9-8.4
			c-0.5-2.6-1.4-5.2-2.4-7.7c-1-2.3-2.2-4.5-3.6-6.6c-0.3-0.5-0.7-1-1-1.5c-0.1-0.1-0.2-0.3-0.3-0.4c-0.3-0.3-0.5-0.7-0.8-1
			c-0.1-0.2-0.2-0.3-0.4-0.5c-0.3-0.4-0.7-0.8-1.1-1.2l-0.1-0.1c-0.5-0.5-0.9-1-1.4-1.5c-0.5-0.5-1-1-1.5-1.5l0,0l0,0l0,0L98,42.3
			c-0.4-0.4-0.9-0.8-1.3-1.1c-0.2-0.1-0.3-0.3-0.5-0.4c-0.4-0.3-0.7-0.6-1.1-0.8c-0.2-0.1-0.3-0.2-0.5-0.3c-0.5-0.4-1-0.7-1.6-1.1
			c-2.3-1.5-4.7-2.7-7.2-3.7c-2.4-0.9-4.8-1.7-7.2-2.1c-2.6-0.5-5.3-0.8-8-0.8c-2.8,0-5.7,0.3-8.4,0.9c-2.6,0.5-5.2,1.4-7.7,2.4
			c-2.3,1-4.5,2.2-6.6,3.6c-2.2,1.5-4.3,3.2-6.2,5.1c-2,2-3.8,4.3-5.4,6.6c-1.5,2.3-2.7,4.7-3.7,7.2c-0.9,2.4-1.7,4.8-2.1,7.2
			c-0.5,2.6-0.8,5.3-0.8,8c0,2.8,0.3,5.7,0.9,8.4c0.5,2.6,1.4,5.2,2.4,7.7c1,2.3,2.2,4.5,3.6,6.6c0.3,0.5,0.7,1,1,1.5
			c0.1,0.1,0.2,0.3,0.3,0.4c0.3,0.3,0.5,0.7,0.8,1c0.1,0.2,0.2,0.3,0.4,0.5c0.3,0.4,0.7,0.8,1.1,1.2c0.5,0.5,1,1.1,1.5,1.6
			c2,2,4.3,3.8,6.6,5.4c2.3,1.5,4.7,2.7,7.2,3.7c2.4,0.9,4.8,1.7,7.2,2.1c2.6,0.5,5.3,0.8,8,0.8c2.8,0,5.7-0.3,8.4-0.9
			c2.6-0.5,5.2-1.4,7.7-2.4c2.3-1,4.5-2.2,6.6-3.6c2.2-1.5,4.3-3.2,6.2-5.1C101.7,99.8,103.5,97.6,105,95.2z M104.1,49
			c-0.1-0.1-0.1-0.2-0.2-0.3C103.9,48.8,104,48.9,104.1,49z M103.3,48c-0.2-0.2-0.4-0.5-0.6-0.7C102.9,47.5,103.1,47.7,103.3,48z
			 M102.2,46.6c-0.3-0.4-0.7-0.8-1-1.2C101.6,45.8,101.9,46.2,102.2,46.6z M98,42.2c-0.4-0.4-0.8-0.7-1.3-1.1
			C97.1,41.5,97.6,41.9,98,42.2z M96.1,40.7c-0.3-0.2-0.5-0.4-0.8-0.6C95.6,40.3,95.8,40.5,96.1,40.7z M94.5,39.5
			c-0.1-0.1-0.2-0.1-0.3-0.2C94.3,39.3,94.4,39.4,94.5,39.5z M37.3,96.6c0.1,0.1,0.1,0.2,0.2,0.3C37.4,96.8,37.4,96.7,37.3,96.6z
			 M38.1,97.7c0.2,0.2,0.4,0.5,0.6,0.7C38.5,98.2,38.3,97.9,38.1,97.7z M39.1,99c0.3,0.4,0.7,0.8,1,1.2C39.8,99.8,39.5,99.4,39.1,99
			z"/>
		<path class="st2" d="M109.9,64.6c-0.5-2.6-1.3-5.1-2.4-7.5c-1-2.3-2.2-4.4-3.5-6.5c-1.5-2.2-3.1-4.2-5-6.1c-2-2-4.1-3.7-6.5-5.2
			c-2.2-1.4-4.5-2.7-7-3.6c-2.3-0.9-4.6-1.6-7.1-2.1c-0.6-0.1-1.1-0.2-1.7-0.3c-0.2,0-0.4-0.1-0.5-0.1C75.8,33,75.4,33,75,32.9
			c-0.2,0-0.4,0-0.6-0.1c-0.5-0.1-1.1-0.1-1.6-0.1l-0.2,0c-0.7,0-1.3,0-2,0c-0.7,0-1.4,0-2.1,0.1h0h0h0l-0.2,0
			c-0.6,0-1.1,0.1-1.7,0.1c-0.2,0-0.4,0-0.6,0.1c-0.4,0.1-0.9,0.1-1.3,0.2c-0.2,0-0.4,0.1-0.6,0.1c-0.6,0.1-1.2,0.2-1.8,0.3
			c-2.6,0.5-5.1,1.3-7.5,2.4c-2.3,1-4.4,2.2-6.5,3.5c-2.2,1.5-4.2,3.1-6.1,5c-2,2-3.7,4.1-5.2,6.5c-1.4,2.2-2.7,4.5-3.6,7
			c-0.9,2.3-1.6,4.6-2.1,7.1c-0.5,2.5-0.8,5.2-0.8,7.8c0,2.8,0.3,5.6,0.9,8.3c0.5,2.6,1.4,5.1,2.4,7.5c1,2.3,2.2,4.4,3.5,6.5
			c1.5,2.2,3.1,4.2,5,6.1c2,2,4.1,3.7,6.5,5.2c2.2,1.4,4.5,2.7,7,3.6c2.3,0.9,4.6,1.6,7.1,2.1c0.6,0.1,1.1,0.2,1.7,0.3
			c0.2,0,0.4,0.1,0.5,0.1c0.4,0.1,0.8,0.1,1.3,0.2c0.2,0,0.4,0,0.6,0.1c0.5,0.1,1.1,0.1,1.6,0.1c0.7,0,1.4,0.1,2.2,0.1
			c2.8,0,5.6-0.3,8.3-0.9c2.6-0.5,5.1-1.3,7.5-2.4c2.3-1,4.4-2.2,6.5-3.5c2.2-1.5,4.2-3.1,6.1-5c2-2,3.7-4.1,5.2-6.5
			c1.4-2.2,2.7-4.5,3.6-7c0.9-2.3,1.6-4.6,2.1-7.1c0.5-2.5,0.8-5.2,0.8-7.8C110.8,70,110.5,67.2,109.9,64.6z M77.3,33.3
			c-0.1,0-0.2,0-0.4-0.1C77.1,33.2,77.2,33.2,77.3,33.3z M76,33.1c-0.3,0-0.6-0.1-0.9-0.1C75.4,33,75.7,33,76,33.1z M74.4,32.9
			c-0.5,0-1-0.1-1.5-0.1C73.4,32.8,73.9,32.8,74.4,32.9z M66,33c-0.3,0-0.6,0.1-1,0.1C65.4,33.1,65.7,33,66,33z M64.1,33.3
			c-0.1,0-0.2,0-0.4,0.1C63.8,33.3,63.9,33.3,64.1,33.3z M64,112.4c0.1,0,0.2,0,0.4,0.1C64.3,112.4,64.2,112.4,64,112.4z
			 M65.3,112.6c0.3,0,0.6,0.1,0.9,0.1C65.9,112.7,65.6,112.6,65.3,112.6z M67,112.8c0.5,0,1,0.1,1.5,0.1
			C68,112.9,67.5,112.8,67,112.8z"/>
	</g>
</g>
<text transform="matrix(0.8955 0 0 1 41.8506 93.2832)" class="st20 st21 st22">25</text>
</svg>
